G04 #@! TF.GenerationSoftware,KiCad,Pcbnew,(5.0.2)-1*
G04 #@! TF.CreationDate,2019-05-07T10:13:45+12:00*
G04 #@! TF.ProjectId,power selector,706f7765-7220-4736-956c-6563746f722e,rev?*
G04 #@! TF.SameCoordinates,Original*
G04 #@! TF.FileFunction,Soldermask,Top*
G04 #@! TF.FilePolarity,Negative*
%FSLAX46Y46*%
G04 Gerber Fmt 4.6, Leading zero omitted, Abs format (unit mm)*
G04 Created by KiCad (PCBNEW (5.0.2)-1) date 7/05/2019 10:13:45 AM*
%MOMM*%
%LPD*%
G01*
G04 APERTURE LIST*
%ADD10C,0.150000*%
G04 APERTURE END LIST*
D10*
G36*
X75985331Y-125418211D02*
X76313092Y-125553974D01*
X76608073Y-125751074D01*
X76858926Y-126001927D01*
X77056026Y-126296908D01*
X77191789Y-126624669D01*
X77261000Y-126972616D01*
X77261000Y-127327384D01*
X77191789Y-127675331D01*
X77056026Y-128003092D01*
X76858926Y-128298073D01*
X76608073Y-128548926D01*
X76313092Y-128746026D01*
X75985331Y-128881789D01*
X75637384Y-128951000D01*
X75282616Y-128951000D01*
X74934669Y-128881789D01*
X74606908Y-128746026D01*
X74311927Y-128548926D01*
X74061074Y-128298073D01*
X73863974Y-128003092D01*
X73728211Y-127675331D01*
X73659000Y-127327384D01*
X73659000Y-126972616D01*
X73728211Y-126624669D01*
X73863974Y-126296908D01*
X74061074Y-126001927D01*
X74311927Y-125751074D01*
X74606908Y-125553974D01*
X74934669Y-125418211D01*
X75282616Y-125349000D01*
X75637384Y-125349000D01*
X75985331Y-125418211D01*
X75985331Y-125418211D01*
G37*
G36*
X180705331Y-125308211D02*
X181033092Y-125443974D01*
X181328073Y-125641074D01*
X181578926Y-125891927D01*
X181776026Y-126186908D01*
X181911789Y-126514669D01*
X181981000Y-126862616D01*
X181981000Y-127217384D01*
X181911789Y-127565331D01*
X181776026Y-127893092D01*
X181578926Y-128188073D01*
X181328073Y-128438926D01*
X181033092Y-128636026D01*
X180705331Y-128771789D01*
X180357384Y-128841000D01*
X180002616Y-128841000D01*
X179654669Y-128771789D01*
X179326908Y-128636026D01*
X179031927Y-128438926D01*
X178781074Y-128188073D01*
X178583974Y-127893092D01*
X178448211Y-127565331D01*
X178379000Y-127217384D01*
X178379000Y-126862616D01*
X178448211Y-126514669D01*
X178583974Y-126186908D01*
X178781074Y-125891927D01*
X179031927Y-125641074D01*
X179326908Y-125443974D01*
X179654669Y-125308211D01*
X180002616Y-125239000D01*
X180357384Y-125239000D01*
X180705331Y-125308211D01*
X180705331Y-125308211D01*
G37*
G36*
X127471000Y-127376000D02*
X116369000Y-127376000D01*
X116369000Y-120274000D01*
X127471000Y-120274000D01*
X127471000Y-127376000D01*
X127471000Y-127376000D01*
G37*
G36*
X152871000Y-127376000D02*
X141769000Y-127376000D01*
X141769000Y-120274000D01*
X152871000Y-120274000D01*
X152871000Y-127376000D01*
X152871000Y-127376000D01*
G37*
G36*
X165571000Y-127376000D02*
X154469000Y-127376000D01*
X154469000Y-120274000D01*
X165571000Y-120274000D01*
X165571000Y-127376000D01*
X165571000Y-127376000D01*
G37*
G36*
X140171000Y-127376000D02*
X129069000Y-127376000D01*
X129069000Y-120274000D01*
X140171000Y-120274000D01*
X140171000Y-127376000D01*
X140171000Y-127376000D01*
G37*
G36*
X94869941Y-111366248D02*
X94869943Y-111366249D01*
X94869944Y-111366249D01*
X95425190Y-111596239D01*
X95425191Y-111596240D01*
X95924902Y-111930136D01*
X96349864Y-112355098D01*
X96349866Y-112355101D01*
X96683761Y-112854810D01*
X96913751Y-113410056D01*
X97031000Y-113999503D01*
X97031000Y-114600497D01*
X96913751Y-115189944D01*
X96683761Y-115745190D01*
X96683760Y-115745191D01*
X96349864Y-116244902D01*
X95924902Y-116669864D01*
X95924899Y-116669866D01*
X95425190Y-117003761D01*
X94869944Y-117233751D01*
X94869943Y-117233751D01*
X94869941Y-117233752D01*
X94280499Y-117351000D01*
X93679501Y-117351000D01*
X93090059Y-117233752D01*
X93090057Y-117233751D01*
X93090056Y-117233751D01*
X92534810Y-117003761D01*
X92035101Y-116669866D01*
X92035098Y-116669864D01*
X91610136Y-116244902D01*
X91276240Y-115745191D01*
X91276239Y-115745190D01*
X91046249Y-115189944D01*
X90929000Y-114600497D01*
X90929000Y-113999503D01*
X91046249Y-113410056D01*
X91276239Y-112854810D01*
X91610134Y-112355101D01*
X91610136Y-112355098D01*
X92035098Y-111930136D01*
X92534809Y-111596240D01*
X92534810Y-111596239D01*
X93090056Y-111366249D01*
X93090057Y-111366249D01*
X93090059Y-111366248D01*
X93679501Y-111249000D01*
X94280499Y-111249000D01*
X94869941Y-111366248D01*
X94869941Y-111366248D01*
G37*
G36*
X79629941Y-111366248D02*
X79629943Y-111366249D01*
X79629944Y-111366249D01*
X80185190Y-111596239D01*
X80185191Y-111596240D01*
X80684902Y-111930136D01*
X81109864Y-112355098D01*
X81109866Y-112355101D01*
X81443761Y-112854810D01*
X81673751Y-113410056D01*
X81791000Y-113999503D01*
X81791000Y-114600497D01*
X81673751Y-115189944D01*
X81443761Y-115745190D01*
X81443760Y-115745191D01*
X81109864Y-116244902D01*
X80684902Y-116669864D01*
X80684899Y-116669866D01*
X80185190Y-117003761D01*
X79629944Y-117233751D01*
X79629943Y-117233751D01*
X79629941Y-117233752D01*
X79040499Y-117351000D01*
X78439501Y-117351000D01*
X77850059Y-117233752D01*
X77850057Y-117233751D01*
X77850056Y-117233751D01*
X77294810Y-117003761D01*
X76795101Y-116669866D01*
X76795098Y-116669864D01*
X76370136Y-116244902D01*
X76036240Y-115745191D01*
X76036239Y-115745190D01*
X75806249Y-115189944D01*
X75689000Y-114600497D01*
X75689000Y-113999503D01*
X75806249Y-113410056D01*
X76036239Y-112854810D01*
X76370134Y-112355101D01*
X76370136Y-112355098D01*
X76795098Y-111930136D01*
X77294809Y-111596240D01*
X77294810Y-111596239D01*
X77850056Y-111366249D01*
X77850057Y-111366249D01*
X77850059Y-111366248D01*
X78439501Y-111249000D01*
X79040499Y-111249000D01*
X79629941Y-111366248D01*
X79629941Y-111366248D01*
G37*
G36*
X145132527Y-106303736D02*
X145232410Y-106323604D01*
X145514674Y-106440521D01*
X145768705Y-106610259D01*
X145984741Y-106826295D01*
X146154479Y-107080326D01*
X146271396Y-107362590D01*
X146331000Y-107662240D01*
X146331000Y-107967760D01*
X146271396Y-108267410D01*
X146154479Y-108549674D01*
X145984741Y-108803705D01*
X145768705Y-109019741D01*
X145514674Y-109189479D01*
X145232410Y-109306396D01*
X145132527Y-109326264D01*
X144932762Y-109366000D01*
X144627238Y-109366000D01*
X144427473Y-109326264D01*
X144327590Y-109306396D01*
X144045326Y-109189479D01*
X143791295Y-109019741D01*
X143575259Y-108803705D01*
X143405521Y-108549674D01*
X143288604Y-108267410D01*
X143229000Y-107967760D01*
X143229000Y-107662240D01*
X143288604Y-107362590D01*
X143405521Y-107080326D01*
X143575259Y-106826295D01*
X143791295Y-106610259D01*
X144045326Y-106440521D01*
X144327590Y-106323604D01*
X144427473Y-106303736D01*
X144627238Y-106264000D01*
X144932762Y-106264000D01*
X145132527Y-106303736D01*
X145132527Y-106303736D01*
G37*
G36*
X124812527Y-106303736D02*
X124912410Y-106323604D01*
X125194674Y-106440521D01*
X125448705Y-106610259D01*
X125664741Y-106826295D01*
X125834479Y-107080326D01*
X125951396Y-107362590D01*
X126011000Y-107662240D01*
X126011000Y-107967760D01*
X125951396Y-108267410D01*
X125834479Y-108549674D01*
X125664741Y-108803705D01*
X125448705Y-109019741D01*
X125194674Y-109189479D01*
X124912410Y-109306396D01*
X124812527Y-109326264D01*
X124612762Y-109366000D01*
X124307238Y-109366000D01*
X124107473Y-109326264D01*
X124007590Y-109306396D01*
X123725326Y-109189479D01*
X123471295Y-109019741D01*
X123255259Y-108803705D01*
X123085521Y-108549674D01*
X122968604Y-108267410D01*
X122909000Y-107967760D01*
X122909000Y-107662240D01*
X122968604Y-107362590D01*
X123085521Y-107080326D01*
X123255259Y-106826295D01*
X123471295Y-106610259D01*
X123725326Y-106440521D01*
X124007590Y-106323604D01*
X124107473Y-106303736D01*
X124307238Y-106264000D01*
X124612762Y-106264000D01*
X124812527Y-106303736D01*
X124812527Y-106303736D01*
G37*
G36*
X119732527Y-106303736D02*
X119832410Y-106323604D01*
X120114674Y-106440521D01*
X120368705Y-106610259D01*
X120584741Y-106826295D01*
X120754479Y-107080326D01*
X120871396Y-107362590D01*
X120931000Y-107662240D01*
X120931000Y-107967760D01*
X120871396Y-108267410D01*
X120754479Y-108549674D01*
X120584741Y-108803705D01*
X120368705Y-109019741D01*
X120114674Y-109189479D01*
X119832410Y-109306396D01*
X119732527Y-109326264D01*
X119532762Y-109366000D01*
X119227238Y-109366000D01*
X119027473Y-109326264D01*
X118927590Y-109306396D01*
X118645326Y-109189479D01*
X118391295Y-109019741D01*
X118175259Y-108803705D01*
X118005521Y-108549674D01*
X117888604Y-108267410D01*
X117829000Y-107967760D01*
X117829000Y-107662240D01*
X117888604Y-107362590D01*
X118005521Y-107080326D01*
X118175259Y-106826295D01*
X118391295Y-106610259D01*
X118645326Y-106440521D01*
X118927590Y-106323604D01*
X119027473Y-106303736D01*
X119227238Y-106264000D01*
X119532762Y-106264000D01*
X119732527Y-106303736D01*
X119732527Y-106303736D01*
G37*
G36*
X132432527Y-106303736D02*
X132532410Y-106323604D01*
X132814674Y-106440521D01*
X133068705Y-106610259D01*
X133284741Y-106826295D01*
X133454479Y-107080326D01*
X133571396Y-107362590D01*
X133631000Y-107662240D01*
X133631000Y-107967760D01*
X133571396Y-108267410D01*
X133454479Y-108549674D01*
X133284741Y-108803705D01*
X133068705Y-109019741D01*
X132814674Y-109189479D01*
X132532410Y-109306396D01*
X132432527Y-109326264D01*
X132232762Y-109366000D01*
X131927238Y-109366000D01*
X131727473Y-109326264D01*
X131627590Y-109306396D01*
X131345326Y-109189479D01*
X131091295Y-109019741D01*
X130875259Y-108803705D01*
X130705521Y-108549674D01*
X130588604Y-108267410D01*
X130529000Y-107967760D01*
X130529000Y-107662240D01*
X130588604Y-107362590D01*
X130705521Y-107080326D01*
X130875259Y-106826295D01*
X131091295Y-106610259D01*
X131345326Y-106440521D01*
X131627590Y-106323604D01*
X131727473Y-106303736D01*
X131927238Y-106264000D01*
X132232762Y-106264000D01*
X132432527Y-106303736D01*
X132432527Y-106303736D01*
G37*
G36*
X150212527Y-106303736D02*
X150312410Y-106323604D01*
X150594674Y-106440521D01*
X150848705Y-106610259D01*
X151064741Y-106826295D01*
X151234479Y-107080326D01*
X151351396Y-107362590D01*
X151411000Y-107662240D01*
X151411000Y-107967760D01*
X151351396Y-108267410D01*
X151234479Y-108549674D01*
X151064741Y-108803705D01*
X150848705Y-109019741D01*
X150594674Y-109189479D01*
X150312410Y-109306396D01*
X150212527Y-109326264D01*
X150012762Y-109366000D01*
X149707238Y-109366000D01*
X149507473Y-109326264D01*
X149407590Y-109306396D01*
X149125326Y-109189479D01*
X148871295Y-109019741D01*
X148655259Y-108803705D01*
X148485521Y-108549674D01*
X148368604Y-108267410D01*
X148309000Y-107967760D01*
X148309000Y-107662240D01*
X148368604Y-107362590D01*
X148485521Y-107080326D01*
X148655259Y-106826295D01*
X148871295Y-106610259D01*
X149125326Y-106440521D01*
X149407590Y-106323604D01*
X149507473Y-106303736D01*
X149707238Y-106264000D01*
X150012762Y-106264000D01*
X150212527Y-106303736D01*
X150212527Y-106303736D01*
G37*
G36*
X157832527Y-106303736D02*
X157932410Y-106323604D01*
X158214674Y-106440521D01*
X158468705Y-106610259D01*
X158684741Y-106826295D01*
X158854479Y-107080326D01*
X158971396Y-107362590D01*
X159031000Y-107662240D01*
X159031000Y-107967760D01*
X158971396Y-108267410D01*
X158854479Y-108549674D01*
X158684741Y-108803705D01*
X158468705Y-109019741D01*
X158214674Y-109189479D01*
X157932410Y-109306396D01*
X157832527Y-109326264D01*
X157632762Y-109366000D01*
X157327238Y-109366000D01*
X157127473Y-109326264D01*
X157027590Y-109306396D01*
X156745326Y-109189479D01*
X156491295Y-109019741D01*
X156275259Y-108803705D01*
X156105521Y-108549674D01*
X155988604Y-108267410D01*
X155929000Y-107967760D01*
X155929000Y-107662240D01*
X155988604Y-107362590D01*
X156105521Y-107080326D01*
X156275259Y-106826295D01*
X156491295Y-106610259D01*
X156745326Y-106440521D01*
X157027590Y-106323604D01*
X157127473Y-106303736D01*
X157327238Y-106264000D01*
X157632762Y-106264000D01*
X157832527Y-106303736D01*
X157832527Y-106303736D01*
G37*
G36*
X162912527Y-106303736D02*
X163012410Y-106323604D01*
X163294674Y-106440521D01*
X163548705Y-106610259D01*
X163764741Y-106826295D01*
X163934479Y-107080326D01*
X164051396Y-107362590D01*
X164111000Y-107662240D01*
X164111000Y-107967760D01*
X164051396Y-108267410D01*
X163934479Y-108549674D01*
X163764741Y-108803705D01*
X163548705Y-109019741D01*
X163294674Y-109189479D01*
X163012410Y-109306396D01*
X162912527Y-109326264D01*
X162712762Y-109366000D01*
X162407238Y-109366000D01*
X162207473Y-109326264D01*
X162107590Y-109306396D01*
X161825326Y-109189479D01*
X161571295Y-109019741D01*
X161355259Y-108803705D01*
X161185521Y-108549674D01*
X161068604Y-108267410D01*
X161009000Y-107967760D01*
X161009000Y-107662240D01*
X161068604Y-107362590D01*
X161185521Y-107080326D01*
X161355259Y-106826295D01*
X161571295Y-106610259D01*
X161825326Y-106440521D01*
X162107590Y-106323604D01*
X162207473Y-106303736D01*
X162407238Y-106264000D01*
X162712762Y-106264000D01*
X162912527Y-106303736D01*
X162912527Y-106303736D01*
G37*
G36*
X137512527Y-106303736D02*
X137612410Y-106323604D01*
X137894674Y-106440521D01*
X138148705Y-106610259D01*
X138364741Y-106826295D01*
X138534479Y-107080326D01*
X138651396Y-107362590D01*
X138711000Y-107662240D01*
X138711000Y-107967760D01*
X138651396Y-108267410D01*
X138534479Y-108549674D01*
X138364741Y-108803705D01*
X138148705Y-109019741D01*
X137894674Y-109189479D01*
X137612410Y-109306396D01*
X137512527Y-109326264D01*
X137312762Y-109366000D01*
X137007238Y-109366000D01*
X136807473Y-109326264D01*
X136707590Y-109306396D01*
X136425326Y-109189479D01*
X136171295Y-109019741D01*
X135955259Y-108803705D01*
X135785521Y-108549674D01*
X135668604Y-108267410D01*
X135609000Y-107967760D01*
X135609000Y-107662240D01*
X135668604Y-107362590D01*
X135785521Y-107080326D01*
X135955259Y-106826295D01*
X136171295Y-106610259D01*
X136425326Y-106440521D01*
X136707590Y-106323604D01*
X136807473Y-106303736D01*
X137007238Y-106264000D01*
X137312762Y-106264000D01*
X137512527Y-106303736D01*
X137512527Y-106303736D01*
G37*
G36*
X100047527Y-100088736D02*
X100147410Y-100108604D01*
X100429674Y-100225521D01*
X100683705Y-100395259D01*
X100899741Y-100611295D01*
X101069479Y-100865326D01*
X101186396Y-101147590D01*
X101246000Y-101447240D01*
X101246000Y-101752760D01*
X101186396Y-102052410D01*
X101069479Y-102334674D01*
X100899741Y-102588705D01*
X100683705Y-102804741D01*
X100429674Y-102974479D01*
X100147410Y-103091396D01*
X100047527Y-103111264D01*
X99847762Y-103151000D01*
X99542238Y-103151000D01*
X99342473Y-103111264D01*
X99242590Y-103091396D01*
X98960326Y-102974479D01*
X98706295Y-102804741D01*
X98490259Y-102588705D01*
X98320521Y-102334674D01*
X98203604Y-102052410D01*
X98144000Y-101752760D01*
X98144000Y-101447240D01*
X98203604Y-101147590D01*
X98320521Y-100865326D01*
X98490259Y-100611295D01*
X98706295Y-100395259D01*
X98960326Y-100225521D01*
X99242590Y-100108604D01*
X99342473Y-100088736D01*
X99542238Y-100049000D01*
X99847762Y-100049000D01*
X100047527Y-100088736D01*
X100047527Y-100088736D01*
G37*
G36*
X100057527Y-94343736D02*
X100157410Y-94363604D01*
X100439674Y-94480521D01*
X100693705Y-94650259D01*
X100909741Y-94866295D01*
X101079479Y-95120326D01*
X101123979Y-95227760D01*
X101196396Y-95402591D01*
X101256000Y-95702238D01*
X101256000Y-96007762D01*
X101216264Y-96207527D01*
X101196396Y-96307410D01*
X101079479Y-96589674D01*
X100909741Y-96843705D01*
X100693705Y-97059741D01*
X100439674Y-97229479D01*
X100157410Y-97346396D01*
X100057527Y-97366264D01*
X99857762Y-97406000D01*
X99552238Y-97406000D01*
X99352473Y-97366264D01*
X99252590Y-97346396D01*
X98970326Y-97229479D01*
X98716295Y-97059741D01*
X98500259Y-96843705D01*
X98330521Y-96589674D01*
X98213604Y-96307410D01*
X98193736Y-96207527D01*
X98154000Y-96007762D01*
X98154000Y-95702238D01*
X98213604Y-95402591D01*
X98286021Y-95227760D01*
X98330521Y-95120326D01*
X98500259Y-94866295D01*
X98716295Y-94650259D01*
X98970326Y-94480521D01*
X99252590Y-94363604D01*
X99352473Y-94343736D01*
X99552238Y-94304000D01*
X99857762Y-94304000D01*
X100057527Y-94343736D01*
X100057527Y-94343736D01*
G37*
G36*
X157832527Y-93563736D02*
X157932410Y-93583604D01*
X158214674Y-93700521D01*
X158468705Y-93870259D01*
X158684741Y-94086295D01*
X158854479Y-94340326D01*
X158912549Y-94480521D01*
X158971396Y-94622591D01*
X159019872Y-94866293D01*
X159031000Y-94922240D01*
X159031000Y-95227760D01*
X158971396Y-95527410D01*
X158854479Y-95809674D01*
X158684741Y-96063705D01*
X158468705Y-96279741D01*
X158214674Y-96449479D01*
X157932410Y-96566396D01*
X157832527Y-96586264D01*
X157632762Y-96626000D01*
X157327238Y-96626000D01*
X157127473Y-96586264D01*
X157027590Y-96566396D01*
X156745326Y-96449479D01*
X156491295Y-96279741D01*
X156275259Y-96063705D01*
X156105521Y-95809674D01*
X155988604Y-95527410D01*
X155929000Y-95227760D01*
X155929000Y-94922240D01*
X155940129Y-94866293D01*
X155988604Y-94622591D01*
X156047451Y-94480521D01*
X156105521Y-94340326D01*
X156275259Y-94086295D01*
X156491295Y-93870259D01*
X156745326Y-93700521D01*
X157027590Y-93583604D01*
X157127473Y-93563736D01*
X157327238Y-93524000D01*
X157632762Y-93524000D01*
X157832527Y-93563736D01*
X157832527Y-93563736D01*
G37*
G36*
X145132527Y-93563736D02*
X145232410Y-93583604D01*
X145514674Y-93700521D01*
X145768705Y-93870259D01*
X145984741Y-94086295D01*
X146154479Y-94340326D01*
X146212549Y-94480521D01*
X146271396Y-94622591D01*
X146319872Y-94866293D01*
X146331000Y-94922240D01*
X146331000Y-95227760D01*
X146271396Y-95527410D01*
X146154479Y-95809674D01*
X145984741Y-96063705D01*
X145768705Y-96279741D01*
X145514674Y-96449479D01*
X145232410Y-96566396D01*
X145132527Y-96586264D01*
X144932762Y-96626000D01*
X144627238Y-96626000D01*
X144427473Y-96586264D01*
X144327590Y-96566396D01*
X144045326Y-96449479D01*
X143791295Y-96279741D01*
X143575259Y-96063705D01*
X143405521Y-95809674D01*
X143288604Y-95527410D01*
X143229000Y-95227760D01*
X143229000Y-94922240D01*
X143240129Y-94866293D01*
X143288604Y-94622591D01*
X143347451Y-94480521D01*
X143405521Y-94340326D01*
X143575259Y-94086295D01*
X143791295Y-93870259D01*
X144045326Y-93700521D01*
X144327590Y-93583604D01*
X144427473Y-93563736D01*
X144627238Y-93524000D01*
X144932762Y-93524000D01*
X145132527Y-93563736D01*
X145132527Y-93563736D01*
G37*
G36*
X150212527Y-93563736D02*
X150312410Y-93583604D01*
X150594674Y-93700521D01*
X150848705Y-93870259D01*
X151064741Y-94086295D01*
X151234479Y-94340326D01*
X151292549Y-94480521D01*
X151351396Y-94622591D01*
X151399872Y-94866293D01*
X151411000Y-94922240D01*
X151411000Y-95227760D01*
X151351396Y-95527410D01*
X151234479Y-95809674D01*
X151064741Y-96063705D01*
X150848705Y-96279741D01*
X150594674Y-96449479D01*
X150312410Y-96566396D01*
X150212527Y-96586264D01*
X150012762Y-96626000D01*
X149707238Y-96626000D01*
X149507473Y-96586264D01*
X149407590Y-96566396D01*
X149125326Y-96449479D01*
X148871295Y-96279741D01*
X148655259Y-96063705D01*
X148485521Y-95809674D01*
X148368604Y-95527410D01*
X148309000Y-95227760D01*
X148309000Y-94922240D01*
X148320129Y-94866293D01*
X148368604Y-94622591D01*
X148427451Y-94480521D01*
X148485521Y-94340326D01*
X148655259Y-94086295D01*
X148871295Y-93870259D01*
X149125326Y-93700521D01*
X149407590Y-93583604D01*
X149507473Y-93563736D01*
X149707238Y-93524000D01*
X150012762Y-93524000D01*
X150212527Y-93563736D01*
X150212527Y-93563736D01*
G37*
G36*
X137512527Y-93563736D02*
X137612410Y-93583604D01*
X137894674Y-93700521D01*
X138148705Y-93870259D01*
X138364741Y-94086295D01*
X138534479Y-94340326D01*
X138592549Y-94480521D01*
X138651396Y-94622591D01*
X138699872Y-94866293D01*
X138711000Y-94922240D01*
X138711000Y-95227760D01*
X138651396Y-95527410D01*
X138534479Y-95809674D01*
X138364741Y-96063705D01*
X138148705Y-96279741D01*
X137894674Y-96449479D01*
X137612410Y-96566396D01*
X137512527Y-96586264D01*
X137312762Y-96626000D01*
X137007238Y-96626000D01*
X136807473Y-96586264D01*
X136707590Y-96566396D01*
X136425326Y-96449479D01*
X136171295Y-96279741D01*
X135955259Y-96063705D01*
X135785521Y-95809674D01*
X135668604Y-95527410D01*
X135609000Y-95227760D01*
X135609000Y-94922240D01*
X135620129Y-94866293D01*
X135668604Y-94622591D01*
X135727451Y-94480521D01*
X135785521Y-94340326D01*
X135955259Y-94086295D01*
X136171295Y-93870259D01*
X136425326Y-93700521D01*
X136707590Y-93583604D01*
X136807473Y-93563736D01*
X137007238Y-93524000D01*
X137312762Y-93524000D01*
X137512527Y-93563736D01*
X137512527Y-93563736D01*
G37*
G36*
X119732527Y-93563736D02*
X119832410Y-93583604D01*
X120114674Y-93700521D01*
X120368705Y-93870259D01*
X120584741Y-94086295D01*
X120754479Y-94340326D01*
X120812549Y-94480521D01*
X120871396Y-94622591D01*
X120919872Y-94866293D01*
X120931000Y-94922240D01*
X120931000Y-95227760D01*
X120871396Y-95527410D01*
X120754479Y-95809674D01*
X120584741Y-96063705D01*
X120368705Y-96279741D01*
X120114674Y-96449479D01*
X119832410Y-96566396D01*
X119732527Y-96586264D01*
X119532762Y-96626000D01*
X119227238Y-96626000D01*
X119027473Y-96586264D01*
X118927590Y-96566396D01*
X118645326Y-96449479D01*
X118391295Y-96279741D01*
X118175259Y-96063705D01*
X118005521Y-95809674D01*
X117888604Y-95527410D01*
X117829000Y-95227760D01*
X117829000Y-94922240D01*
X117840129Y-94866293D01*
X117888604Y-94622591D01*
X117947451Y-94480521D01*
X118005521Y-94340326D01*
X118175259Y-94086295D01*
X118391295Y-93870259D01*
X118645326Y-93700521D01*
X118927590Y-93583604D01*
X119027473Y-93563736D01*
X119227238Y-93524000D01*
X119532762Y-93524000D01*
X119732527Y-93563736D01*
X119732527Y-93563736D01*
G37*
G36*
X124812527Y-93563736D02*
X124912410Y-93583604D01*
X125194674Y-93700521D01*
X125448705Y-93870259D01*
X125664741Y-94086295D01*
X125834479Y-94340326D01*
X125892549Y-94480521D01*
X125951396Y-94622591D01*
X125999872Y-94866293D01*
X126011000Y-94922240D01*
X126011000Y-95227760D01*
X125951396Y-95527410D01*
X125834479Y-95809674D01*
X125664741Y-96063705D01*
X125448705Y-96279741D01*
X125194674Y-96449479D01*
X124912410Y-96566396D01*
X124812527Y-96586264D01*
X124612762Y-96626000D01*
X124307238Y-96626000D01*
X124107473Y-96586264D01*
X124007590Y-96566396D01*
X123725326Y-96449479D01*
X123471295Y-96279741D01*
X123255259Y-96063705D01*
X123085521Y-95809674D01*
X122968604Y-95527410D01*
X122909000Y-95227760D01*
X122909000Y-94922240D01*
X122920129Y-94866293D01*
X122968604Y-94622591D01*
X123027451Y-94480521D01*
X123085521Y-94340326D01*
X123255259Y-94086295D01*
X123471295Y-93870259D01*
X123725326Y-93700521D01*
X124007590Y-93583604D01*
X124107473Y-93563736D01*
X124307238Y-93524000D01*
X124612762Y-93524000D01*
X124812527Y-93563736D01*
X124812527Y-93563736D01*
G37*
G36*
X162912527Y-93563736D02*
X163012410Y-93583604D01*
X163294674Y-93700521D01*
X163548705Y-93870259D01*
X163764741Y-94086295D01*
X163934479Y-94340326D01*
X163992549Y-94480521D01*
X164051396Y-94622591D01*
X164099872Y-94866293D01*
X164111000Y-94922240D01*
X164111000Y-95227760D01*
X164051396Y-95527410D01*
X163934479Y-95809674D01*
X163764741Y-96063705D01*
X163548705Y-96279741D01*
X163294674Y-96449479D01*
X163012410Y-96566396D01*
X162912527Y-96586264D01*
X162712762Y-96626000D01*
X162407238Y-96626000D01*
X162207473Y-96586264D01*
X162107590Y-96566396D01*
X161825326Y-96449479D01*
X161571295Y-96279741D01*
X161355259Y-96063705D01*
X161185521Y-95809674D01*
X161068604Y-95527410D01*
X161009000Y-95227760D01*
X161009000Y-94922240D01*
X161020129Y-94866293D01*
X161068604Y-94622591D01*
X161127451Y-94480521D01*
X161185521Y-94340326D01*
X161355259Y-94086295D01*
X161571295Y-93870259D01*
X161825326Y-93700521D01*
X162107590Y-93583604D01*
X162207473Y-93563736D01*
X162407238Y-93524000D01*
X162712762Y-93524000D01*
X162912527Y-93563736D01*
X162912527Y-93563736D01*
G37*
G36*
X132432527Y-93563736D02*
X132532410Y-93583604D01*
X132814674Y-93700521D01*
X133068705Y-93870259D01*
X133284741Y-94086295D01*
X133454479Y-94340326D01*
X133512549Y-94480521D01*
X133571396Y-94622591D01*
X133619872Y-94866293D01*
X133631000Y-94922240D01*
X133631000Y-95227760D01*
X133571396Y-95527410D01*
X133454479Y-95809674D01*
X133284741Y-96063705D01*
X133068705Y-96279741D01*
X132814674Y-96449479D01*
X132532410Y-96566396D01*
X132432527Y-96586264D01*
X132232762Y-96626000D01*
X131927238Y-96626000D01*
X131727473Y-96586264D01*
X131627590Y-96566396D01*
X131345326Y-96449479D01*
X131091295Y-96279741D01*
X130875259Y-96063705D01*
X130705521Y-95809674D01*
X130588604Y-95527410D01*
X130529000Y-95227760D01*
X130529000Y-94922240D01*
X130540129Y-94866293D01*
X130588604Y-94622591D01*
X130647451Y-94480521D01*
X130705521Y-94340326D01*
X130875259Y-94086295D01*
X131091295Y-93870259D01*
X131345326Y-93700521D01*
X131627590Y-93583604D01*
X131727473Y-93563736D01*
X131927238Y-93524000D01*
X132232762Y-93524000D01*
X132432527Y-93563736D01*
X132432527Y-93563736D01*
G37*
G36*
X82169941Y-85331248D02*
X82169943Y-85331249D01*
X82169944Y-85331249D01*
X82725190Y-85561239D01*
X82725191Y-85561240D01*
X83224902Y-85895136D01*
X83649864Y-86320098D01*
X83649866Y-86320101D01*
X83983761Y-86819810D01*
X84213751Y-87375056D01*
X84331000Y-87964503D01*
X84331000Y-88565497D01*
X84213751Y-89154944D01*
X83983761Y-89710190D01*
X83983760Y-89710191D01*
X83649864Y-90209902D01*
X83224902Y-90634864D01*
X83224899Y-90634866D01*
X82725190Y-90968761D01*
X82169944Y-91198751D01*
X82169943Y-91198751D01*
X82169941Y-91198752D01*
X81580499Y-91316000D01*
X80979501Y-91316000D01*
X80390059Y-91198752D01*
X80390057Y-91198751D01*
X80390056Y-91198751D01*
X79834810Y-90968761D01*
X79335101Y-90634866D01*
X79335098Y-90634864D01*
X78910136Y-90209902D01*
X78576240Y-89710191D01*
X78576239Y-89710190D01*
X78346249Y-89154944D01*
X78229000Y-88565497D01*
X78229000Y-87964503D01*
X78346249Y-87375056D01*
X78576239Y-86819810D01*
X78910134Y-86320101D01*
X78910136Y-86320098D01*
X79335098Y-85895136D01*
X79834809Y-85561240D01*
X79834810Y-85561239D01*
X80390056Y-85331249D01*
X80390057Y-85331249D01*
X80390059Y-85331248D01*
X80979501Y-85214000D01*
X81580499Y-85214000D01*
X82169941Y-85331248D01*
X82169941Y-85331248D01*
G37*
G36*
X97409941Y-85331248D02*
X97409943Y-85331249D01*
X97409944Y-85331249D01*
X97965190Y-85561239D01*
X97965191Y-85561240D01*
X98464902Y-85895136D01*
X98889864Y-86320098D01*
X98889866Y-86320101D01*
X99223761Y-86819810D01*
X99453751Y-87375056D01*
X99571000Y-87964503D01*
X99571000Y-88565497D01*
X99453751Y-89154944D01*
X99223761Y-89710190D01*
X99223760Y-89710191D01*
X98889864Y-90209902D01*
X98464902Y-90634864D01*
X98464899Y-90634866D01*
X97965190Y-90968761D01*
X97409944Y-91198751D01*
X97409943Y-91198751D01*
X97409941Y-91198752D01*
X96820499Y-91316000D01*
X96219501Y-91316000D01*
X95630059Y-91198752D01*
X95630057Y-91198751D01*
X95630056Y-91198751D01*
X95074810Y-90968761D01*
X94575101Y-90634866D01*
X94575098Y-90634864D01*
X94150136Y-90209902D01*
X93816240Y-89710191D01*
X93816239Y-89710190D01*
X93586249Y-89154944D01*
X93469000Y-88565497D01*
X93469000Y-87964503D01*
X93586249Y-87375056D01*
X93816239Y-86819810D01*
X94150134Y-86320101D01*
X94150136Y-86320098D01*
X94575098Y-85895136D01*
X95074809Y-85561240D01*
X95074810Y-85561239D01*
X95630056Y-85331249D01*
X95630057Y-85331249D01*
X95630059Y-85331248D01*
X96219501Y-85214000D01*
X96820499Y-85214000D01*
X97409941Y-85331248D01*
X97409941Y-85331248D01*
G37*
G36*
X165571000Y-82616000D02*
X154469000Y-82616000D01*
X154469000Y-75514000D01*
X165571000Y-75514000D01*
X165571000Y-82616000D01*
X165571000Y-82616000D01*
G37*
G36*
X127471000Y-82616000D02*
X116369000Y-82616000D01*
X116369000Y-75514000D01*
X127471000Y-75514000D01*
X127471000Y-82616000D01*
X127471000Y-82616000D01*
G37*
G36*
X152871000Y-82616000D02*
X141769000Y-82616000D01*
X141769000Y-75514000D01*
X152871000Y-75514000D01*
X152871000Y-82616000D01*
X152871000Y-82616000D01*
G37*
G36*
X140171000Y-82616000D02*
X129069000Y-82616000D01*
X129069000Y-75514000D01*
X140171000Y-75514000D01*
X140171000Y-82616000D01*
X140171000Y-82616000D01*
G37*
G36*
X178689941Y-64376248D02*
X178689943Y-64376249D01*
X178689944Y-64376249D01*
X179245190Y-64606239D01*
X179245191Y-64606240D01*
X179744902Y-64940136D01*
X180169864Y-65365098D01*
X180169866Y-65365101D01*
X180503761Y-65864810D01*
X180733751Y-66420056D01*
X180851000Y-67009503D01*
X180851000Y-67610497D01*
X180733751Y-68199944D01*
X180503761Y-68755190D01*
X180503760Y-68755191D01*
X180169864Y-69254902D01*
X179744902Y-69679864D01*
X179744899Y-69679866D01*
X179245190Y-70013761D01*
X178689944Y-70243751D01*
X178689943Y-70243751D01*
X178689941Y-70243752D01*
X178100499Y-70361000D01*
X177499501Y-70361000D01*
X176910059Y-70243752D01*
X176910057Y-70243751D01*
X176910056Y-70243751D01*
X176354810Y-70013761D01*
X175855101Y-69679866D01*
X175855098Y-69679864D01*
X175430136Y-69254902D01*
X175096240Y-68755191D01*
X175096239Y-68755190D01*
X174866249Y-68199944D01*
X174749000Y-67610497D01*
X174749000Y-67009503D01*
X174866249Y-66420056D01*
X175096239Y-65864810D01*
X175430134Y-65365101D01*
X175430136Y-65365098D01*
X175855098Y-64940136D01*
X176354809Y-64606240D01*
X176354810Y-64606239D01*
X176910056Y-64376249D01*
X176910057Y-64376249D01*
X176910059Y-64376248D01*
X177499501Y-64259000D01*
X178100499Y-64259000D01*
X178689941Y-64376248D01*
X178689941Y-64376248D01*
G37*
G36*
X168529941Y-64376248D02*
X168529943Y-64376249D01*
X168529944Y-64376249D01*
X169085190Y-64606239D01*
X169085191Y-64606240D01*
X169584902Y-64940136D01*
X170009864Y-65365098D01*
X170009866Y-65365101D01*
X170343761Y-65864810D01*
X170573751Y-66420056D01*
X170691000Y-67009503D01*
X170691000Y-67610497D01*
X170573751Y-68199944D01*
X170343761Y-68755190D01*
X170343760Y-68755191D01*
X170009864Y-69254902D01*
X169584902Y-69679864D01*
X169584899Y-69679866D01*
X169085190Y-70013761D01*
X168529944Y-70243751D01*
X168529943Y-70243751D01*
X168529941Y-70243752D01*
X167940499Y-70361000D01*
X167339501Y-70361000D01*
X166750059Y-70243752D01*
X166750057Y-70243751D01*
X166750056Y-70243751D01*
X166194810Y-70013761D01*
X165695101Y-69679866D01*
X165695098Y-69679864D01*
X165270136Y-69254902D01*
X164936240Y-68755191D01*
X164936239Y-68755190D01*
X164706249Y-68199944D01*
X164589000Y-67610497D01*
X164589000Y-67009503D01*
X164706249Y-66420056D01*
X164936239Y-65864810D01*
X165270134Y-65365101D01*
X165270136Y-65365098D01*
X165695098Y-64940136D01*
X166194809Y-64606240D01*
X166194810Y-64606239D01*
X166750056Y-64376249D01*
X166750057Y-64376249D01*
X166750059Y-64376248D01*
X167339501Y-64259000D01*
X167940499Y-64259000D01*
X168529941Y-64376248D01*
X168529941Y-64376248D01*
G37*
G36*
X140517021Y-55726640D02*
X141026770Y-55937785D01*
X141026771Y-55937786D01*
X141485534Y-56244321D01*
X141875679Y-56634466D01*
X142080036Y-56940308D01*
X142182215Y-57093230D01*
X142393360Y-57602979D01*
X142501000Y-58144124D01*
X142501000Y-58695876D01*
X142393360Y-59237021D01*
X142182215Y-59746770D01*
X142182214Y-59746771D01*
X141875679Y-60205534D01*
X141485534Y-60595679D01*
X141179692Y-60800036D01*
X141026770Y-60902215D01*
X140517021Y-61113360D01*
X139975876Y-61221000D01*
X139424124Y-61221000D01*
X138882979Y-61113360D01*
X138373230Y-60902215D01*
X138220308Y-60800036D01*
X137914466Y-60595679D01*
X137524321Y-60205534D01*
X137217786Y-59746771D01*
X137217785Y-59746770D01*
X137006640Y-59237021D01*
X136899000Y-58695876D01*
X136899000Y-58144124D01*
X137006640Y-57602979D01*
X137217785Y-57093230D01*
X137319964Y-56940308D01*
X137524321Y-56634466D01*
X137914466Y-56244321D01*
X138373229Y-55937786D01*
X138373230Y-55937785D01*
X138882979Y-55726640D01*
X139424124Y-55619000D01*
X139975876Y-55619000D01*
X140517021Y-55726640D01*
X140517021Y-55726640D01*
G37*
G36*
X79557021Y-55726640D02*
X80066770Y-55937785D01*
X80066771Y-55937786D01*
X80525534Y-56244321D01*
X80915679Y-56634466D01*
X81120036Y-56940308D01*
X81222215Y-57093230D01*
X81433360Y-57602979D01*
X81541000Y-58144124D01*
X81541000Y-58695876D01*
X81433360Y-59237021D01*
X81222215Y-59746770D01*
X81222214Y-59746771D01*
X80915679Y-60205534D01*
X80525534Y-60595679D01*
X80219692Y-60800036D01*
X80066770Y-60902215D01*
X79557021Y-61113360D01*
X79015876Y-61221000D01*
X78464124Y-61221000D01*
X77922979Y-61113360D01*
X77413230Y-60902215D01*
X77260308Y-60800036D01*
X76954466Y-60595679D01*
X76564321Y-60205534D01*
X76257786Y-59746771D01*
X76257785Y-59746770D01*
X76046640Y-59237021D01*
X75939000Y-58695876D01*
X75939000Y-58144124D01*
X76046640Y-57602979D01*
X76257785Y-57093230D01*
X76359964Y-56940308D01*
X76564321Y-56634466D01*
X76954466Y-56244321D01*
X77413229Y-55937786D01*
X77413230Y-55937785D01*
X77922979Y-55726640D01*
X78464124Y-55619000D01*
X79015876Y-55619000D01*
X79557021Y-55726640D01*
X79557021Y-55726640D01*
G37*
G36*
X94797021Y-55726640D02*
X95306770Y-55937785D01*
X95306771Y-55937786D01*
X95765534Y-56244321D01*
X96155679Y-56634466D01*
X96360036Y-56940308D01*
X96462215Y-57093230D01*
X96673360Y-57602979D01*
X96781000Y-58144124D01*
X96781000Y-58695876D01*
X96673360Y-59237021D01*
X96462215Y-59746770D01*
X96462214Y-59746771D01*
X96155679Y-60205534D01*
X95765534Y-60595679D01*
X95459692Y-60800036D01*
X95306770Y-60902215D01*
X94797021Y-61113360D01*
X94255876Y-61221000D01*
X93704124Y-61221000D01*
X93162979Y-61113360D01*
X92653230Y-60902215D01*
X92500308Y-60800036D01*
X92194466Y-60595679D01*
X91804321Y-60205534D01*
X91497786Y-59746771D01*
X91497785Y-59746770D01*
X91286640Y-59237021D01*
X91179000Y-58695876D01*
X91179000Y-58144124D01*
X91286640Y-57602979D01*
X91497785Y-57093230D01*
X91599964Y-56940308D01*
X91804321Y-56634466D01*
X92194466Y-56244321D01*
X92653229Y-55937786D01*
X92653230Y-55937785D01*
X93162979Y-55726640D01*
X93704124Y-55619000D01*
X94255876Y-55619000D01*
X94797021Y-55726640D01*
X94797021Y-55726640D01*
G37*
G36*
X110037021Y-55726640D02*
X110546770Y-55937785D01*
X110546771Y-55937786D01*
X111005534Y-56244321D01*
X111395679Y-56634466D01*
X111600036Y-56940308D01*
X111702215Y-57093230D01*
X111913360Y-57602979D01*
X112021000Y-58144124D01*
X112021000Y-58695876D01*
X111913360Y-59237021D01*
X111702215Y-59746770D01*
X111702214Y-59746771D01*
X111395679Y-60205534D01*
X111005534Y-60595679D01*
X110699692Y-60800036D01*
X110546770Y-60902215D01*
X110037021Y-61113360D01*
X109495876Y-61221000D01*
X108944124Y-61221000D01*
X108402979Y-61113360D01*
X107893230Y-60902215D01*
X107740308Y-60800036D01*
X107434466Y-60595679D01*
X107044321Y-60205534D01*
X106737786Y-59746771D01*
X106737785Y-59746770D01*
X106526640Y-59237021D01*
X106419000Y-58695876D01*
X106419000Y-58144124D01*
X106526640Y-57602979D01*
X106737785Y-57093230D01*
X106839964Y-56940308D01*
X107044321Y-56634466D01*
X107434466Y-56244321D01*
X107893229Y-55937786D01*
X107893230Y-55937785D01*
X108402979Y-55726640D01*
X108944124Y-55619000D01*
X109495876Y-55619000D01*
X110037021Y-55726640D01*
X110037021Y-55726640D01*
G37*
G36*
X155757021Y-55726640D02*
X156266770Y-55937785D01*
X156266771Y-55937786D01*
X156725534Y-56244321D01*
X157115679Y-56634466D01*
X157320036Y-56940308D01*
X157422215Y-57093230D01*
X157633360Y-57602979D01*
X157741000Y-58144124D01*
X157741000Y-58695876D01*
X157633360Y-59237021D01*
X157422215Y-59746770D01*
X157422214Y-59746771D01*
X157115679Y-60205534D01*
X156725534Y-60595679D01*
X156419692Y-60800036D01*
X156266770Y-60902215D01*
X155757021Y-61113360D01*
X155215876Y-61221000D01*
X154664124Y-61221000D01*
X154122979Y-61113360D01*
X153613230Y-60902215D01*
X153460308Y-60800036D01*
X153154466Y-60595679D01*
X152764321Y-60205534D01*
X152457786Y-59746771D01*
X152457785Y-59746770D01*
X152246640Y-59237021D01*
X152139000Y-58695876D01*
X152139000Y-58144124D01*
X152246640Y-57602979D01*
X152457785Y-57093230D01*
X152559964Y-56940308D01*
X152764321Y-56634466D01*
X153154466Y-56244321D01*
X153613229Y-55937786D01*
X153613230Y-55937785D01*
X154122979Y-55726640D01*
X154664124Y-55619000D01*
X155215876Y-55619000D01*
X155757021Y-55726640D01*
X155757021Y-55726640D01*
G37*
G36*
X125277021Y-55726640D02*
X125786770Y-55937785D01*
X125786771Y-55937786D01*
X126245534Y-56244321D01*
X126635679Y-56634466D01*
X126840036Y-56940308D01*
X126942215Y-57093230D01*
X127153360Y-57602979D01*
X127261000Y-58144124D01*
X127261000Y-58695876D01*
X127153360Y-59237021D01*
X126942215Y-59746770D01*
X126942214Y-59746771D01*
X126635679Y-60205534D01*
X126245534Y-60595679D01*
X125939692Y-60800036D01*
X125786770Y-60902215D01*
X125277021Y-61113360D01*
X124735876Y-61221000D01*
X124184124Y-61221000D01*
X123642979Y-61113360D01*
X123133230Y-60902215D01*
X122980308Y-60800036D01*
X122674466Y-60595679D01*
X122284321Y-60205534D01*
X121977786Y-59746771D01*
X121977785Y-59746770D01*
X121766640Y-59237021D01*
X121659000Y-58695876D01*
X121659000Y-58144124D01*
X121766640Y-57602979D01*
X121977785Y-57093230D01*
X122079964Y-56940308D01*
X122284321Y-56634466D01*
X122674466Y-56244321D01*
X123133229Y-55937786D01*
X123133230Y-55937785D01*
X123642979Y-55726640D01*
X124184124Y-55619000D01*
X124735876Y-55619000D01*
X125277021Y-55726640D01*
X125277021Y-55726640D01*
G37*
G36*
X172339941Y-50406248D02*
X172339943Y-50406249D01*
X172339944Y-50406249D01*
X172895190Y-50636239D01*
X172895191Y-50636240D01*
X173394902Y-50970136D01*
X173819864Y-51395098D01*
X173819866Y-51395101D01*
X174153761Y-51894810D01*
X174383751Y-52450056D01*
X174501000Y-53039503D01*
X174501000Y-53640497D01*
X174383751Y-54229944D01*
X174153761Y-54785190D01*
X174153760Y-54785191D01*
X173819864Y-55284902D01*
X173394902Y-55709864D01*
X173394899Y-55709866D01*
X172895190Y-56043761D01*
X172339944Y-56273751D01*
X172339943Y-56273751D01*
X172339941Y-56273752D01*
X171750499Y-56391000D01*
X171149501Y-56391000D01*
X170560059Y-56273752D01*
X170560057Y-56273751D01*
X170560056Y-56273751D01*
X170004810Y-56043761D01*
X169505101Y-55709866D01*
X169505098Y-55709864D01*
X169080136Y-55284902D01*
X168746240Y-54785191D01*
X168746239Y-54785190D01*
X168516249Y-54229944D01*
X168399000Y-53640497D01*
X168399000Y-53039503D01*
X168516249Y-52450056D01*
X168746239Y-51894810D01*
X169080134Y-51395101D01*
X169080136Y-51395098D01*
X169505098Y-50970136D01*
X170004809Y-50636240D01*
X170004810Y-50636239D01*
X170560056Y-50406249D01*
X170560057Y-50406249D01*
X170560059Y-50406248D01*
X171149501Y-50289000D01*
X171750499Y-50289000D01*
X172339941Y-50406248D01*
X172339941Y-50406248D01*
G37*
G36*
X125277021Y-43661640D02*
X125786770Y-43872785D01*
X125786771Y-43872786D01*
X126245534Y-44179321D01*
X126635679Y-44569466D01*
X126672913Y-44625191D01*
X126942215Y-45028230D01*
X127153360Y-45537979D01*
X127261000Y-46079124D01*
X127261000Y-46630876D01*
X127153360Y-47172021D01*
X126942215Y-47681770D01*
X126942214Y-47681771D01*
X126635679Y-48140534D01*
X126245534Y-48530679D01*
X125939692Y-48735036D01*
X125786770Y-48837215D01*
X125277021Y-49048360D01*
X124735876Y-49156000D01*
X124184124Y-49156000D01*
X123642979Y-49048360D01*
X123133230Y-48837215D01*
X122980308Y-48735036D01*
X122674466Y-48530679D01*
X122284321Y-48140534D01*
X121977786Y-47681771D01*
X121977785Y-47681770D01*
X121766640Y-47172021D01*
X121659000Y-46630876D01*
X121659000Y-46079124D01*
X121766640Y-45537979D01*
X121977785Y-45028230D01*
X122247087Y-44625191D01*
X122284321Y-44569466D01*
X122674466Y-44179321D01*
X123133229Y-43872786D01*
X123133230Y-43872785D01*
X123642979Y-43661640D01*
X124184124Y-43554000D01*
X124735876Y-43554000D01*
X125277021Y-43661640D01*
X125277021Y-43661640D01*
G37*
G36*
X155757021Y-43661640D02*
X156266770Y-43872785D01*
X156266771Y-43872786D01*
X156725534Y-44179321D01*
X157115679Y-44569466D01*
X157152913Y-44625191D01*
X157422215Y-45028230D01*
X157633360Y-45537979D01*
X157741000Y-46079124D01*
X157741000Y-46630876D01*
X157633360Y-47172021D01*
X157422215Y-47681770D01*
X157422214Y-47681771D01*
X157115679Y-48140534D01*
X156725534Y-48530679D01*
X156419692Y-48735036D01*
X156266770Y-48837215D01*
X155757021Y-49048360D01*
X155215876Y-49156000D01*
X154664124Y-49156000D01*
X154122979Y-49048360D01*
X153613230Y-48837215D01*
X153460308Y-48735036D01*
X153154466Y-48530679D01*
X152764321Y-48140534D01*
X152457786Y-47681771D01*
X152457785Y-47681770D01*
X152246640Y-47172021D01*
X152139000Y-46630876D01*
X152139000Y-46079124D01*
X152246640Y-45537979D01*
X152457785Y-45028230D01*
X152727087Y-44625191D01*
X152764321Y-44569466D01*
X153154466Y-44179321D01*
X153613229Y-43872786D01*
X153613230Y-43872785D01*
X154122979Y-43661640D01*
X154664124Y-43554000D01*
X155215876Y-43554000D01*
X155757021Y-43661640D01*
X155757021Y-43661640D01*
G37*
G36*
X140517021Y-43661640D02*
X141026770Y-43872785D01*
X141026771Y-43872786D01*
X141485534Y-44179321D01*
X141875679Y-44569466D01*
X141912913Y-44625191D01*
X142182215Y-45028230D01*
X142393360Y-45537979D01*
X142501000Y-46079124D01*
X142501000Y-46630876D01*
X142393360Y-47172021D01*
X142182215Y-47681770D01*
X142182214Y-47681771D01*
X141875679Y-48140534D01*
X141485534Y-48530679D01*
X141179692Y-48735036D01*
X141026770Y-48837215D01*
X140517021Y-49048360D01*
X139975876Y-49156000D01*
X139424124Y-49156000D01*
X138882979Y-49048360D01*
X138373230Y-48837215D01*
X138220308Y-48735036D01*
X137914466Y-48530679D01*
X137524321Y-48140534D01*
X137217786Y-47681771D01*
X137217785Y-47681770D01*
X137006640Y-47172021D01*
X136899000Y-46630876D01*
X136899000Y-46079124D01*
X137006640Y-45537979D01*
X137217785Y-45028230D01*
X137487087Y-44625191D01*
X137524321Y-44569466D01*
X137914466Y-44179321D01*
X138373229Y-43872786D01*
X138373230Y-43872785D01*
X138882979Y-43661640D01*
X139424124Y-43554000D01*
X139975876Y-43554000D01*
X140517021Y-43661640D01*
X140517021Y-43661640D01*
G37*
G36*
X110037021Y-43661640D02*
X110546770Y-43872785D01*
X110546771Y-43872786D01*
X111005534Y-44179321D01*
X111395679Y-44569466D01*
X111432913Y-44625191D01*
X111702215Y-45028230D01*
X111913360Y-45537979D01*
X112021000Y-46079124D01*
X112021000Y-46630876D01*
X111913360Y-47172021D01*
X111702215Y-47681770D01*
X111702214Y-47681771D01*
X111395679Y-48140534D01*
X111005534Y-48530679D01*
X110699692Y-48735036D01*
X110546770Y-48837215D01*
X110037021Y-49048360D01*
X109495876Y-49156000D01*
X108944124Y-49156000D01*
X108402979Y-49048360D01*
X107893230Y-48837215D01*
X107740308Y-48735036D01*
X107434466Y-48530679D01*
X107044321Y-48140534D01*
X106737786Y-47681771D01*
X106737785Y-47681770D01*
X106526640Y-47172021D01*
X106419000Y-46630876D01*
X106419000Y-46079124D01*
X106526640Y-45537979D01*
X106737785Y-45028230D01*
X107007087Y-44625191D01*
X107044321Y-44569466D01*
X107434466Y-44179321D01*
X107893229Y-43872786D01*
X107893230Y-43872785D01*
X108402979Y-43661640D01*
X108944124Y-43554000D01*
X109495876Y-43554000D01*
X110037021Y-43661640D01*
X110037021Y-43661640D01*
G37*
G36*
X94797021Y-43661640D02*
X95306770Y-43872785D01*
X95306771Y-43872786D01*
X95765534Y-44179321D01*
X96155679Y-44569466D01*
X96192913Y-44625191D01*
X96462215Y-45028230D01*
X96673360Y-45537979D01*
X96781000Y-46079124D01*
X96781000Y-46630876D01*
X96673360Y-47172021D01*
X96462215Y-47681770D01*
X96462214Y-47681771D01*
X96155679Y-48140534D01*
X95765534Y-48530679D01*
X95459692Y-48735036D01*
X95306770Y-48837215D01*
X94797021Y-49048360D01*
X94255876Y-49156000D01*
X93704124Y-49156000D01*
X93162979Y-49048360D01*
X92653230Y-48837215D01*
X92500308Y-48735036D01*
X92194466Y-48530679D01*
X91804321Y-48140534D01*
X91497786Y-47681771D01*
X91497785Y-47681770D01*
X91286640Y-47172021D01*
X91179000Y-46630876D01*
X91179000Y-46079124D01*
X91286640Y-45537979D01*
X91497785Y-45028230D01*
X91767087Y-44625191D01*
X91804321Y-44569466D01*
X92194466Y-44179321D01*
X92653229Y-43872786D01*
X92653230Y-43872785D01*
X93162979Y-43661640D01*
X93704124Y-43554000D01*
X94255876Y-43554000D01*
X94797021Y-43661640D01*
X94797021Y-43661640D01*
G37*
G36*
X79557021Y-43661640D02*
X80066770Y-43872785D01*
X80066771Y-43872786D01*
X80525534Y-44179321D01*
X80915679Y-44569466D01*
X80952913Y-44625191D01*
X81222215Y-45028230D01*
X81433360Y-45537979D01*
X81541000Y-46079124D01*
X81541000Y-46630876D01*
X81433360Y-47172021D01*
X81222215Y-47681770D01*
X81222214Y-47681771D01*
X80915679Y-48140534D01*
X80525534Y-48530679D01*
X80219692Y-48735036D01*
X80066770Y-48837215D01*
X79557021Y-49048360D01*
X79015876Y-49156000D01*
X78464124Y-49156000D01*
X77922979Y-49048360D01*
X77413230Y-48837215D01*
X77260308Y-48735036D01*
X76954466Y-48530679D01*
X76564321Y-48140534D01*
X76257786Y-47681771D01*
X76257785Y-47681770D01*
X76046640Y-47172021D01*
X75939000Y-46630876D01*
X75939000Y-46079124D01*
X76046640Y-45537979D01*
X76257785Y-45028230D01*
X76527087Y-44625191D01*
X76564321Y-44569466D01*
X76954466Y-44179321D01*
X77413229Y-43872786D01*
X77413230Y-43872785D01*
X77922979Y-43661640D01*
X78464124Y-43554000D01*
X79015876Y-43554000D01*
X79557021Y-43661640D01*
X79557021Y-43661640D01*
G37*
G36*
X172339941Y-40246248D02*
X172339943Y-40246249D01*
X172339944Y-40246249D01*
X172895190Y-40476239D01*
X172895191Y-40476240D01*
X173394902Y-40810136D01*
X173819864Y-41235098D01*
X173819866Y-41235101D01*
X174153761Y-41734810D01*
X174383751Y-42290056D01*
X174383752Y-42290059D01*
X174501000Y-42879501D01*
X174501000Y-43480499D01*
X174422969Y-43872786D01*
X174383751Y-44069944D01*
X174153761Y-44625190D01*
X174153760Y-44625191D01*
X173819864Y-45124902D01*
X173394902Y-45549864D01*
X173394899Y-45549866D01*
X172895190Y-45883761D01*
X172339944Y-46113751D01*
X172339943Y-46113751D01*
X172339941Y-46113752D01*
X171750499Y-46231000D01*
X171149501Y-46231000D01*
X170560059Y-46113752D01*
X170560057Y-46113751D01*
X170560056Y-46113751D01*
X170004810Y-45883761D01*
X169505101Y-45549866D01*
X169505098Y-45549864D01*
X169080136Y-45124902D01*
X168746240Y-44625191D01*
X168746239Y-44625190D01*
X168516249Y-44069944D01*
X168477032Y-43872786D01*
X168399000Y-43480499D01*
X168399000Y-42879501D01*
X168516248Y-42290059D01*
X168516249Y-42290056D01*
X168746239Y-41734810D01*
X169080134Y-41235101D01*
X169080136Y-41235098D01*
X169505098Y-40810136D01*
X170004809Y-40476240D01*
X170004810Y-40476239D01*
X170560056Y-40246249D01*
X170560057Y-40246249D01*
X170560059Y-40246248D01*
X171149501Y-40129000D01*
X171750499Y-40129000D01*
X172339941Y-40246248D01*
X172339941Y-40246248D01*
G37*
G36*
X180945331Y-28088211D02*
X181273092Y-28223974D01*
X181568073Y-28421074D01*
X181818926Y-28671927D01*
X182016026Y-28966908D01*
X182151789Y-29294669D01*
X182221000Y-29642616D01*
X182221000Y-29997384D01*
X182151789Y-30345331D01*
X182016026Y-30673092D01*
X181818926Y-30968073D01*
X181568073Y-31218926D01*
X181273092Y-31416026D01*
X180945331Y-31551789D01*
X180597384Y-31621000D01*
X180242616Y-31621000D01*
X179894669Y-31551789D01*
X179566908Y-31416026D01*
X179271927Y-31218926D01*
X179021074Y-30968073D01*
X178823974Y-30673092D01*
X178688211Y-30345331D01*
X178619000Y-29997384D01*
X178619000Y-29642616D01*
X178688211Y-29294669D01*
X178823974Y-28966908D01*
X179021074Y-28671927D01*
X179271927Y-28421074D01*
X179566908Y-28223974D01*
X179894669Y-28088211D01*
X180242616Y-28019000D01*
X180597384Y-28019000D01*
X180945331Y-28088211D01*
X180945331Y-28088211D01*
G37*
G36*
X75935331Y-27938211D02*
X76263092Y-28073974D01*
X76558073Y-28271074D01*
X76808926Y-28521927D01*
X77006026Y-28816908D01*
X77141789Y-29144669D01*
X77211000Y-29492616D01*
X77211000Y-29847384D01*
X77141789Y-30195331D01*
X77006026Y-30523092D01*
X76808926Y-30818073D01*
X76558073Y-31068926D01*
X76263092Y-31266026D01*
X75935331Y-31401789D01*
X75587384Y-31471000D01*
X75232616Y-31471000D01*
X74884669Y-31401789D01*
X74556908Y-31266026D01*
X74261927Y-31068926D01*
X74011074Y-30818073D01*
X73813974Y-30523092D01*
X73678211Y-30195331D01*
X73609000Y-29847384D01*
X73609000Y-29492616D01*
X73678211Y-29144669D01*
X73813974Y-28816908D01*
X74011074Y-28521927D01*
X74261927Y-28271074D01*
X74556908Y-28073974D01*
X74884669Y-27938211D01*
X75232616Y-27869000D01*
X75587384Y-27869000D01*
X75935331Y-27938211D01*
X75935331Y-27938211D01*
G37*
M02*
