M48
;DRILL file {KiCad (5.0.2)-1} date 7/05/2019 10:13:52 AM
;FORMAT={-:-/ absolute / metric / decimal}
FMAT,2
METRIC,TZ
T1C2.000
T2C2.500
T3C2.600
T4C3.200
T5C4.000
T6C4.090
%
G90
G05
T1
X99.705Y-95.855
X99.695Y-101.6
X157.48Y-107.815
X162.56Y-107.815
X144.78Y-107.815
X149.86Y-107.815
X144.78Y-95.075
X149.86Y-95.075
X132.08Y-95.075
X137.16Y-95.075
X132.08Y-107.815
X137.16Y-107.815
X119.38Y-107.815
X124.46Y-107.815
X157.48Y-95.075
X162.56Y-95.075
X119.38Y-95.075
X124.46Y-95.075
X139.7Y-58.42
X154.94Y-46.355
X154.94Y-58.42
X139.7Y-46.355
T2
X180.18Y-127.04
X75.46Y-127.15
X180.42Y-29.82
X75.41Y-29.67
T3
X109.22Y-46.355
X124.46Y-58.42
X124.46Y-46.355
X109.22Y-58.42
T4
X78.74Y-46.355
X78.74Y-58.42
X93.98Y-58.42
X93.98Y-46.355
T5
X78.74Y-114.3
X93.98Y-114.3
X167.64Y-67.31
X177.8Y-67.31
X81.28Y-88.265
X96.52Y-88.265
X171.45Y-43.18
X171.45Y-53.34
T6
X160.02Y-123.825
X147.32Y-123.825
X147.32Y-79.065
X134.62Y-79.065
X134.62Y-123.825
X121.92Y-123.825
X160.02Y-79.065
X121.92Y-79.065
T0
M30
