G04 #@! TF.GenerationSoftware,KiCad,Pcbnew,(5.0.2)-1*
G04 #@! TF.CreationDate,2019-05-07T10:13:45+12:00*
G04 #@! TF.ProjectId,power selector,706f7765-7220-4736-956c-6563746f722e,rev?*
G04 #@! TF.SameCoordinates,Original*
G04 #@! TF.FileFunction,Copper,L1,Top*
G04 #@! TF.FilePolarity,Positive*
%FSLAX46Y46*%
G04 Gerber Fmt 4.6, Leading zero omitted, Abs format (unit mm)*
G04 Created by KiCad (PCBNEW (5.0.2)-1) date 7/05/2019 10:13:45 AM*
%MOMM*%
%LPD*%
G01*
G04 APERTURE LIST*
G04 #@! TA.AperFunction,ComponentPad*
%ADD10C,3.500000*%
G04 #@! TD*
G04 #@! TA.AperFunction,ComponentPad*
%ADD11C,3.000000*%
G04 #@! TD*
G04 #@! TA.AperFunction,ComponentPad*
%ADD12C,6.000000*%
G04 #@! TD*
G04 #@! TA.AperFunction,ComponentPad*
%ADD13R,11.000000X7.000000*%
G04 #@! TD*
G04 #@! TA.AperFunction,ComponentPad*
%ADD14C,5.500000*%
G04 #@! TD*
G04 #@! TA.AperFunction,Conductor*
%ADD15C,5.500000*%
G04 #@! TD*
G04 #@! TA.AperFunction,Conductor*
%ADD16C,2.750000*%
G04 #@! TD*
G04 #@! TA.AperFunction,Conductor*
%ADD17C,0.254000*%
G04 #@! TD*
G04 APERTURE END LIST*
D10*
G04 #@! TO.P,,*
G04 #@! TO.N,*
X75460000Y-127150000D03*
G04 #@! TD*
G04 #@! TO.P,,*
G04 #@! TO.N,*
X180180000Y-127040000D03*
G04 #@! TD*
G04 #@! TO.P,,*
G04 #@! TO.N,*
X180420000Y-29820000D03*
G04 #@! TD*
G04 #@! TO.P,,*
G04 #@! TO.N,*
X75410000Y-29670000D03*
G04 #@! TD*
D11*
G04 #@! TO.P,,1*
G04 #@! TO.N,Net-(H1-Pad1)*
X99695000Y-101600000D03*
G04 #@! TD*
G04 #@! TO.P,,1*
G04 #@! TO.N,Net-(H1-Pad1)*
X99705000Y-95855000D03*
G04 #@! TD*
D12*
G04 #@! TO.P,BT1,-*
G04 #@! TO.N,Net-(H1-Pad1)*
X78740000Y-114300000D03*
G04 #@! TO.P,BT1,+*
X93980000Y-114300000D03*
G04 #@! TD*
D13*
G04 #@! TO.P,D1,4*
G04 #@! TO.N,Net-(D5-Pad2)*
X121920000Y-79065000D03*
D11*
G04 #@! TO.P,D1,3*
G04 #@! TO.N,Net-(H1-Pad1)*
X124460000Y-95075000D03*
G04 #@! TO.P,D1,1*
X119380000Y-95075000D03*
G04 #@! TD*
G04 #@! TO.P,D2,1*
G04 #@! TO.N,Net-(H1-Pad1)*
X162560000Y-107815000D03*
G04 #@! TO.P,D2,3*
X157480000Y-107815000D03*
D13*
G04 #@! TO.P,D2,4*
G04 #@! TO.N,Net-(D5-Pad2)*
X160020000Y-123825000D03*
G04 #@! TD*
G04 #@! TO.P,D3,4*
G04 #@! TO.N,Net-(D5-Pad2)*
X147320000Y-123825000D03*
D11*
G04 #@! TO.P,D3,3*
G04 #@! TO.N,Net-(H1-Pad1)*
X144780000Y-107815000D03*
G04 #@! TO.P,D3,1*
X149860000Y-107815000D03*
G04 #@! TD*
G04 #@! TO.P,D4,1*
G04 #@! TO.N,Net-(H1-Pad1)*
X132080000Y-95075000D03*
G04 #@! TO.P,D4,3*
X137160000Y-95075000D03*
D13*
G04 #@! TO.P,D4,4*
G04 #@! TO.N,Net-(D5-Pad2)*
X134620000Y-79065000D03*
G04 #@! TD*
G04 #@! TO.P,D5,4*
G04 #@! TO.N,Net-(D5-Pad2)*
X147320000Y-79065000D03*
D11*
G04 #@! TO.P,D5,3*
G04 #@! TO.N,Net-(H1-Pad1)*
X149860000Y-95075000D03*
G04 #@! TO.P,D5,1*
X144780000Y-95075000D03*
G04 #@! TD*
G04 #@! TO.P,D6,1*
G04 #@! TO.N,Net-(H1-Pad1)*
X137160000Y-107815000D03*
G04 #@! TO.P,D6,3*
X132080000Y-107815000D03*
D13*
G04 #@! TO.P,D6,4*
G04 #@! TO.N,Net-(D5-Pad2)*
X134620000Y-123825000D03*
G04 #@! TD*
G04 #@! TO.P,D7,4*
G04 #@! TO.N,Net-(D5-Pad2)*
X121920000Y-123825000D03*
D11*
G04 #@! TO.P,D7,3*
G04 #@! TO.N,Net-(H1-Pad1)*
X119380000Y-107815000D03*
G04 #@! TO.P,D7,1*
X124460000Y-107815000D03*
G04 #@! TD*
G04 #@! TO.P,D8,1*
G04 #@! TO.N,Net-(H1-Pad1)*
X157480000Y-95075000D03*
G04 #@! TO.P,D8,3*
X162560000Y-95075000D03*
D13*
G04 #@! TO.P,D8,4*
G04 #@! TO.N,Net-(D5-Pad2)*
X160020000Y-79065000D03*
G04 #@! TD*
D12*
G04 #@! TO.P,F1,1*
G04 #@! TO.N,Net-(H1-Pad1)*
X177800000Y-67310000D03*
G04 #@! TO.P,F1,2*
X167640000Y-67310000D03*
G04 #@! TD*
D14*
G04 #@! TO.P,H1,1*
G04 #@! TO.N,Net-(H1-Pad1)*
X78740000Y-46355000D03*
G04 #@! TD*
G04 #@! TO.P,H2,1*
G04 #@! TO.N,Net-(H1-Pad1)*
X78740000Y-58420000D03*
G04 #@! TD*
G04 #@! TO.P,H3,1*
G04 #@! TO.N,Net-(H1-Pad1)*
X93980000Y-46355000D03*
G04 #@! TD*
G04 #@! TO.P,H4,1*
G04 #@! TO.N,Net-(H1-Pad1)*
X93980000Y-58420000D03*
G04 #@! TD*
G04 #@! TO.P,H5,1*
G04 #@! TO.N,Net-(H1-Pad1)*
X109220000Y-46355000D03*
G04 #@! TD*
G04 #@! TO.P,H6,1*
G04 #@! TO.N,Net-(H1-Pad1)*
X109220000Y-58420000D03*
G04 #@! TD*
G04 #@! TO.P,H7,1*
G04 #@! TO.N,Net-(H1-Pad1)*
X124460000Y-46355000D03*
G04 #@! TD*
G04 #@! TO.P,H8,1*
G04 #@! TO.N,Net-(H1-Pad1)*
X124460000Y-58420000D03*
G04 #@! TD*
G04 #@! TO.P,H9,1*
G04 #@! TO.N,Net-(H1-Pad1)*
X139700000Y-46355000D03*
G04 #@! TD*
G04 #@! TO.P,H10,1*
G04 #@! TO.N,Net-(H1-Pad1)*
X139700000Y-58420000D03*
G04 #@! TD*
G04 #@! TO.P,H11,1*
G04 #@! TO.N,Net-(H1-Pad1)*
X154940000Y-46355000D03*
G04 #@! TD*
G04 #@! TO.P,H12,1*
G04 #@! TO.N,Net-(H1-Pad1)*
X154940000Y-58420000D03*
G04 #@! TD*
D12*
G04 #@! TO.P,J1,1*
G04 #@! TO.N,Net-(H1-Pad1)*
X81280000Y-88265000D03*
G04 #@! TO.P,J1,2*
X96520000Y-88265000D03*
G04 #@! TD*
G04 #@! TO.P,SW1,1*
G04 #@! TO.N,Net-(H1-Pad1)*
X171450000Y-43180000D03*
G04 #@! TO.P,SW1,2*
X171450000Y-53340000D03*
G04 #@! TD*
D15*
G04 #@! TO.N,Net-(H1-Pad1)*
X78740000Y-46355000D02*
X78740000Y-38735000D01*
X78740000Y-38735000D02*
X85090000Y-32385000D01*
X93980000Y-46355000D02*
X93980000Y-40005000D01*
X85090000Y-32385000D02*
X101600000Y-32385000D01*
X93980000Y-40005000D02*
X101600000Y-32385000D01*
X101600000Y-32385000D02*
X115570000Y-32385000D01*
X115570000Y-32385000D02*
X118110000Y-32385000D01*
X109220000Y-46355000D02*
X109220000Y-40005000D01*
X116840000Y-32385000D02*
X118110000Y-32385000D01*
X109220000Y-40005000D02*
X116840000Y-32385000D01*
X124460000Y-46355000D02*
X124460000Y-40005000D01*
X124460000Y-40005000D02*
X132080000Y-32385000D01*
X118110000Y-32385000D02*
X132080000Y-32385000D01*
X139700000Y-40005000D02*
X147320000Y-32385000D01*
X139700000Y-46355000D02*
X139700000Y-40005000D01*
X132080000Y-32385000D02*
X147320000Y-32385000D01*
X154940000Y-46355000D02*
X154940000Y-38735000D01*
X154940000Y-38735000D02*
X161290000Y-32385000D01*
X147320000Y-32385000D02*
X161290000Y-32385000D01*
X78740000Y-66040000D02*
X78740000Y-58420000D01*
X82550000Y-69850000D02*
X78740000Y-66040000D01*
X154940000Y-58420000D02*
X154940000Y-64770000D01*
X154940000Y-64770000D02*
X149860000Y-69850000D01*
X124460000Y-63500000D02*
X118110000Y-69850000D01*
X124460000Y-58420000D02*
X124460000Y-63500000D01*
X118110000Y-69850000D02*
X104140000Y-69850000D01*
X139700000Y-58420000D02*
X139700000Y-63500000D01*
X139700000Y-63500000D02*
X133350000Y-69850000D01*
X149860000Y-69850000D02*
X133350000Y-69850000D01*
X133350000Y-69850000D02*
X118110000Y-69850000D01*
X109220000Y-58420000D02*
X109220000Y-62309087D01*
X109140913Y-62309087D02*
X101600000Y-69850000D01*
X109220000Y-62309087D02*
X109140913Y-62309087D01*
X104140000Y-69850000D02*
X101600000Y-69850000D01*
X93980000Y-58420000D02*
X93980000Y-62230000D01*
X93980000Y-62230000D02*
X86360000Y-69850000D01*
X88900000Y-69850000D02*
X86360000Y-69850000D01*
X86360000Y-69850000D02*
X82550000Y-69850000D01*
X101600000Y-69850000D02*
X93980000Y-69850000D01*
X93980000Y-69850000D02*
X88900000Y-69850000D01*
X177800000Y-92075000D02*
X168910000Y-100965000D01*
X168910000Y-100965000D02*
X167005000Y-100965000D01*
D16*
X153670000Y-100299213D02*
X153670000Y-100965000D01*
X141605000Y-100934213D02*
X141605000Y-100965000D01*
D15*
X128905000Y-100965000D02*
X124460000Y-100965000D01*
X141605000Y-100965000D02*
X137160000Y-100965000D01*
X137160000Y-100965000D02*
X128905000Y-100965000D01*
X153670000Y-100965000D02*
X149860000Y-100965000D01*
X149860000Y-100965000D02*
X141605000Y-100965000D01*
X167005000Y-100965000D02*
X161925000Y-100965000D01*
X161925000Y-100965000D02*
X153670000Y-100965000D01*
X107315000Y-114300000D02*
X93980000Y-114300000D01*
X108585000Y-88265000D02*
X96520000Y-88265000D01*
X88900000Y-104140000D02*
X88900000Y-102235000D01*
X78740000Y-114300000D02*
X88900000Y-104140000D01*
D16*
X114935000Y-89215787D02*
X114935000Y-88265000D01*
D15*
X114935000Y-88265000D02*
X108585000Y-88265000D01*
D16*
X127635000Y-89215787D02*
X127635000Y-88265000D01*
X110490000Y-114300000D02*
X110490000Y-104775000D01*
D15*
X110490000Y-114300000D02*
X107315000Y-114300000D01*
D16*
X110490000Y-104775000D02*
X107315000Y-101600000D01*
X107315000Y-101600000D02*
X99695000Y-101600000D01*
X99705000Y-95855000D02*
X95220000Y-95855000D01*
X95220000Y-95855000D02*
X88900000Y-89535000D01*
D15*
X88900000Y-89535000D02*
X88900000Y-102235000D01*
X171450000Y-53340000D02*
X167640000Y-57150000D01*
X167640000Y-57150000D02*
X167640000Y-67310000D01*
X161290000Y-32385000D02*
X168275000Y-32385000D01*
X168275000Y-32385000D02*
X171450000Y-35560000D01*
X171450000Y-35560000D02*
X171450000Y-43180000D01*
X177800000Y-67310000D02*
X177800000Y-92075000D01*
X81280000Y-88265000D02*
X88900000Y-80645000D01*
X88900000Y-80645000D02*
X88900000Y-77470000D01*
X88900000Y-89535000D02*
X88900000Y-77470000D01*
X88900000Y-77470000D02*
X88900000Y-69850000D01*
D16*
X124460000Y-92953680D02*
X119990000Y-88483680D01*
X124460000Y-95075000D02*
X124460000Y-92953680D01*
X119990000Y-88483680D02*
X119990000Y-88265000D01*
D15*
X127635000Y-88265000D02*
X119990000Y-88265000D01*
X119990000Y-88265000D02*
X114935000Y-88265000D01*
D16*
X115016320Y-114300000D02*
X114160000Y-114300000D01*
X119380000Y-109936320D02*
X115016320Y-114300000D01*
X119380000Y-107815000D02*
X119380000Y-109936320D01*
D15*
X120015000Y-114300000D02*
X114160000Y-114300000D01*
X114160000Y-114300000D02*
X110490000Y-114300000D01*
D16*
X124460000Y-105410000D02*
X128905000Y-100965000D01*
X124460000Y-107815000D02*
X124460000Y-105410000D01*
X135848680Y-100965000D02*
X137160000Y-100965000D01*
X132080000Y-97196320D02*
X135848680Y-100965000D01*
X132080000Y-95075000D02*
X132080000Y-97196320D01*
X137160000Y-92505000D02*
X132920000Y-88265000D01*
X137160000Y-95075000D02*
X137160000Y-92505000D01*
D15*
X139700000Y-88265000D02*
X132920000Y-88265000D01*
X132920000Y-88265000D02*
X127635000Y-88265000D01*
D16*
X127716320Y-114300000D02*
X126870000Y-114300000D01*
D15*
X132715000Y-114300000D02*
X126870000Y-114300000D01*
D16*
X132080000Y-109936320D02*
X127716320Y-114300000D01*
X132080000Y-107815000D02*
X132080000Y-109936320D01*
D15*
X126870000Y-114300000D02*
X120015000Y-114300000D01*
D16*
X141605000Y-101248680D02*
X141605000Y-100965000D01*
X137160000Y-105693680D02*
X141605000Y-101248680D01*
X137160000Y-107815000D02*
X137160000Y-105693680D01*
X140416320Y-114300000D02*
X139950000Y-114300000D01*
X144780000Y-107815000D02*
X144780000Y-109936320D01*
X144780000Y-109936320D02*
X140416320Y-114300000D01*
D15*
X145415000Y-114300000D02*
X139950000Y-114300000D01*
X139950000Y-114300000D02*
X132715000Y-114300000D01*
D16*
X148548680Y-100965000D02*
X149860000Y-100965000D01*
X144780000Y-97196320D02*
X148548680Y-100965000D01*
X144780000Y-95075000D02*
X144780000Y-97196320D01*
X145250000Y-88343680D02*
X145250000Y-88265000D01*
X149860000Y-92953680D02*
X145250000Y-88343680D01*
X149860000Y-95075000D02*
X149860000Y-92953680D01*
D15*
X152400000Y-88265000D02*
X145250000Y-88265000D01*
X145250000Y-88265000D02*
X139700000Y-88265000D01*
D16*
X149860000Y-104775000D02*
X153670000Y-100965000D01*
X149860000Y-107815000D02*
X149860000Y-104775000D01*
X161248680Y-100965000D02*
X161925000Y-100965000D01*
X157480000Y-97196320D02*
X161248680Y-100965000D01*
X157480000Y-95075000D02*
X157480000Y-97196320D01*
D15*
X157871320Y-88265000D02*
X152400000Y-88265000D01*
D16*
X162560000Y-92953680D02*
X157871320Y-88265000D01*
X162560000Y-95075000D02*
X162560000Y-92953680D01*
X153116320Y-114300000D02*
X150160000Y-114300000D01*
X157480000Y-107815000D02*
X157480000Y-109936320D01*
D15*
X158115000Y-114300000D02*
X150160000Y-114300000D01*
D16*
X157480000Y-109936320D02*
X153116320Y-114300000D01*
D15*
X150160000Y-114300000D02*
X145415000Y-114300000D01*
D16*
X162560000Y-105410000D02*
X167005000Y-100965000D01*
X162560000Y-107815000D02*
X162560000Y-105410000D01*
X123148680Y-100965000D02*
X124460000Y-100965000D01*
X119380000Y-97196320D02*
X123148680Y-100965000D01*
X119380000Y-95075000D02*
X119380000Y-97196320D01*
G04 #@! TD*
D17*
G04 #@! TO.N,Net-(D5-Pad2)*
G36*
X178790310Y-27380997D02*
X177980997Y-28190310D01*
X177543000Y-29247729D01*
X177543000Y-30392271D01*
X177980997Y-31449690D01*
X178790310Y-32259003D01*
X179847729Y-32697000D01*
X180992271Y-32697000D01*
X182049690Y-32259003D01*
X182859003Y-31449690D01*
X182968000Y-31186548D01*
X182968001Y-126252866D01*
X182619003Y-125410310D01*
X181809690Y-124600997D01*
X180752271Y-124163000D01*
X179607729Y-124163000D01*
X178550310Y-124600997D01*
X177740997Y-125410310D01*
X177303000Y-126467729D01*
X177303000Y-127612271D01*
X177740997Y-128669690D01*
X178550310Y-129479003D01*
X178861737Y-129608000D01*
X77043827Y-129608000D01*
X77089690Y-129589003D01*
X77899003Y-128779690D01*
X78337000Y-127722271D01*
X78337000Y-126577729D01*
X78038361Y-125856750D01*
X115293000Y-125856750D01*
X115293000Y-127549174D01*
X115464576Y-127963394D01*
X115781606Y-128280425D01*
X116195826Y-128452000D01*
X119765250Y-128452000D01*
X120047000Y-128170250D01*
X120047000Y-125575000D01*
X123793000Y-125575000D01*
X123793000Y-128170250D01*
X124074750Y-128452000D01*
X127644174Y-128452000D01*
X128058394Y-128280425D01*
X128270000Y-128068818D01*
X128481606Y-128280425D01*
X128895826Y-128452000D01*
X132465250Y-128452000D01*
X132747000Y-128170250D01*
X132747000Y-125575000D01*
X136493000Y-125575000D01*
X136493000Y-128170250D01*
X136774750Y-128452000D01*
X140344174Y-128452000D01*
X140758394Y-128280425D01*
X140970000Y-128068818D01*
X141181606Y-128280425D01*
X141595826Y-128452000D01*
X145165250Y-128452000D01*
X145447000Y-128170250D01*
X145447000Y-125575000D01*
X149193000Y-125575000D01*
X149193000Y-128170250D01*
X149474750Y-128452000D01*
X153044174Y-128452000D01*
X153458394Y-128280425D01*
X153670000Y-128068818D01*
X153881606Y-128280425D01*
X154295826Y-128452000D01*
X157865250Y-128452000D01*
X158147000Y-128170250D01*
X158147000Y-125575000D01*
X161893000Y-125575000D01*
X161893000Y-128170250D01*
X162174750Y-128452000D01*
X165744174Y-128452000D01*
X166158394Y-128280425D01*
X166475424Y-127963394D01*
X166647000Y-127549174D01*
X166647000Y-125856750D01*
X166365250Y-125575000D01*
X161893000Y-125575000D01*
X158147000Y-125575000D01*
X153674750Y-125575000D01*
X153670000Y-125579750D01*
X153665250Y-125575000D01*
X149193000Y-125575000D01*
X145447000Y-125575000D01*
X140974750Y-125575000D01*
X140970000Y-125579750D01*
X140965250Y-125575000D01*
X136493000Y-125575000D01*
X132747000Y-125575000D01*
X128274750Y-125575000D01*
X128270000Y-125579750D01*
X128265250Y-125575000D01*
X123793000Y-125575000D01*
X120047000Y-125575000D01*
X115574750Y-125575000D01*
X115293000Y-125856750D01*
X78038361Y-125856750D01*
X77899003Y-125520310D01*
X77089690Y-124710997D01*
X76032271Y-124273000D01*
X74887729Y-124273000D01*
X73830310Y-124710997D01*
X73020997Y-125520310D01*
X72882000Y-125855879D01*
X72882000Y-120100826D01*
X115293000Y-120100826D01*
X115293000Y-121793250D01*
X115574750Y-122075000D01*
X120047000Y-122075000D01*
X120047000Y-119479750D01*
X123793000Y-119479750D01*
X123793000Y-122075000D01*
X128265250Y-122075000D01*
X128270000Y-122070250D01*
X128274750Y-122075000D01*
X132747000Y-122075000D01*
X132747000Y-119479750D01*
X136493000Y-119479750D01*
X136493000Y-122075000D01*
X140965250Y-122075000D01*
X140970000Y-122070250D01*
X140974750Y-122075000D01*
X145447000Y-122075000D01*
X145447000Y-119479750D01*
X149193000Y-119479750D01*
X149193000Y-122075000D01*
X153665250Y-122075000D01*
X153670000Y-122070250D01*
X153674750Y-122075000D01*
X158147000Y-122075000D01*
X158147000Y-119479750D01*
X161893000Y-119479750D01*
X161893000Y-122075000D01*
X166365250Y-122075000D01*
X166647000Y-121793250D01*
X166647000Y-120100826D01*
X166475424Y-119686606D01*
X166158394Y-119369575D01*
X165744174Y-119198000D01*
X162174750Y-119198000D01*
X161893000Y-119479750D01*
X158147000Y-119479750D01*
X157865250Y-119198000D01*
X154295826Y-119198000D01*
X153881606Y-119369575D01*
X153670000Y-119581182D01*
X153458394Y-119369575D01*
X153044174Y-119198000D01*
X149474750Y-119198000D01*
X149193000Y-119479750D01*
X145447000Y-119479750D01*
X145165250Y-119198000D01*
X141595826Y-119198000D01*
X141181606Y-119369575D01*
X140970000Y-119581182D01*
X140758394Y-119369575D01*
X140344174Y-119198000D01*
X136774750Y-119198000D01*
X136493000Y-119479750D01*
X132747000Y-119479750D01*
X132465250Y-119198000D01*
X128895826Y-119198000D01*
X128481606Y-119369575D01*
X128270000Y-119581182D01*
X128058394Y-119369575D01*
X127644174Y-119198000D01*
X124074750Y-119198000D01*
X123793000Y-119479750D01*
X120047000Y-119479750D01*
X119765250Y-119198000D01*
X116195826Y-119198000D01*
X115781606Y-119369575D01*
X115464576Y-119686606D01*
X115293000Y-120100826D01*
X72882000Y-120100826D01*
X72882000Y-113479089D01*
X74613000Y-113479089D01*
X74613000Y-115120911D01*
X75241298Y-116637758D01*
X76402242Y-117798702D01*
X77919089Y-118427000D01*
X79560911Y-118427000D01*
X81077758Y-117798702D01*
X82238702Y-116637758D01*
X82488703Y-116034202D01*
X91371446Y-107151460D01*
X91695161Y-106935161D01*
X92552053Y-105652730D01*
X92713317Y-104842000D01*
X92852954Y-104140000D01*
X92777000Y-103758154D01*
X92777000Y-96950363D01*
X93276573Y-97449936D01*
X93416159Y-97658841D01*
X93625064Y-97798427D01*
X93625067Y-97798430D01*
X94049555Y-98082063D01*
X94243768Y-98211832D01*
X94973575Y-98357000D01*
X94973579Y-98357000D01*
X95220000Y-98406016D01*
X95466421Y-98357000D01*
X98880680Y-98357000D01*
X99182457Y-98482000D01*
X100227543Y-98482000D01*
X101193076Y-98082063D01*
X101932063Y-97343076D01*
X102332000Y-96377543D01*
X102332000Y-95332457D01*
X101932063Y-94366924D01*
X101193076Y-93627937D01*
X100227543Y-93228000D01*
X99182457Y-93228000D01*
X98880680Y-93353000D01*
X96256363Y-93353000D01*
X95009885Y-92106523D01*
X95699089Y-92392000D01*
X97340911Y-92392000D01*
X97944465Y-92142000D01*
X120109958Y-92142000D01*
X120778997Y-92811039D01*
X119902543Y-92448000D01*
X118857457Y-92448000D01*
X117891924Y-92847937D01*
X117152937Y-93586924D01*
X116753000Y-94552457D01*
X116753000Y-95597543D01*
X116878000Y-95899320D01*
X116878000Y-96949899D01*
X116828984Y-97196320D01*
X116878000Y-97442741D01*
X116878000Y-97442745D01*
X117023168Y-98172552D01*
X117576160Y-99000161D01*
X117785068Y-99139749D01*
X120729706Y-102084388D01*
X120807947Y-102477730D01*
X121664839Y-103760161D01*
X122279041Y-104170557D01*
X122103168Y-104433768D01*
X121958000Y-105163575D01*
X121958000Y-105163579D01*
X121908984Y-105410000D01*
X121958000Y-105656421D01*
X121958000Y-106990680D01*
X121920000Y-107082420D01*
X121607063Y-106326924D01*
X120868076Y-105587937D01*
X119902543Y-105188000D01*
X118857457Y-105188000D01*
X117891924Y-105587937D01*
X117152937Y-106326924D01*
X116753000Y-107292457D01*
X116753000Y-108337543D01*
X116878000Y-108639320D01*
X116878000Y-108899958D01*
X115354959Y-110423000D01*
X112992000Y-110423000D01*
X112992000Y-105021420D01*
X113041016Y-104774999D01*
X112992000Y-104528578D01*
X112992000Y-104528575D01*
X112846832Y-103798768D01*
X112293841Y-102971159D01*
X112084933Y-102831571D01*
X109258431Y-100005070D01*
X109118841Y-99796159D01*
X108291232Y-99243168D01*
X107561425Y-99098000D01*
X107561421Y-99098000D01*
X107315000Y-99048984D01*
X107068579Y-99098000D01*
X100519320Y-99098000D01*
X100217543Y-98973000D01*
X99172457Y-98973000D01*
X98206924Y-99372937D01*
X97467937Y-100111924D01*
X97068000Y-101077457D01*
X97068000Y-102122543D01*
X97467937Y-103088076D01*
X98206924Y-103827063D01*
X99172457Y-104227000D01*
X100217543Y-104227000D01*
X100519320Y-104102000D01*
X106278639Y-104102000D01*
X107988001Y-105811363D01*
X107988000Y-110423000D01*
X95404465Y-110423000D01*
X94800911Y-110173000D01*
X93159089Y-110173000D01*
X91642242Y-110801298D01*
X90481298Y-111962242D01*
X89853000Y-113479089D01*
X89853000Y-115120911D01*
X90481298Y-116637758D01*
X91642242Y-117798702D01*
X93159089Y-118427000D01*
X94800911Y-118427000D01*
X95404465Y-118177000D01*
X158496846Y-118177000D01*
X159627730Y-117952053D01*
X160910161Y-117095161D01*
X161767053Y-115812730D01*
X162067954Y-114300000D01*
X161767053Y-112787270D01*
X160910161Y-111504839D01*
X159858759Y-110802316D01*
X159982000Y-110182745D01*
X159982000Y-110182740D01*
X160031016Y-109936321D01*
X159982000Y-109689901D01*
X159982000Y-108639320D01*
X160020000Y-108547580D01*
X160332937Y-109303076D01*
X161071924Y-110042063D01*
X162037457Y-110442000D01*
X163082543Y-110442000D01*
X164048076Y-110042063D01*
X164787063Y-109303076D01*
X165187000Y-108337543D01*
X165187000Y-107292457D01*
X165062000Y-106990680D01*
X165062000Y-106446361D01*
X166666362Y-104842000D01*
X168528154Y-104842000D01*
X168910000Y-104917954D01*
X169291846Y-104842000D01*
X170422730Y-104617053D01*
X171705161Y-103760161D01*
X171921462Y-103436443D01*
X180271445Y-95086461D01*
X180595161Y-94870161D01*
X181452053Y-93587730D01*
X181531753Y-93187053D01*
X181752954Y-92075000D01*
X181677000Y-91693154D01*
X181677000Y-68734465D01*
X181927000Y-68130911D01*
X181927000Y-66489089D01*
X181298702Y-64972242D01*
X180137758Y-63811298D01*
X178620911Y-63183000D01*
X176979089Y-63183000D01*
X175462242Y-63811298D01*
X174301298Y-64972242D01*
X173673000Y-66489089D01*
X173673000Y-68130911D01*
X173923000Y-68734465D01*
X173923001Y-90469093D01*
X167304095Y-97088000D01*
X164262139Y-97088000D01*
X164787063Y-96563076D01*
X165187000Y-95597543D01*
X165187000Y-94552457D01*
X165062000Y-94250680D01*
X165062000Y-93200101D01*
X165111016Y-92953680D01*
X165062000Y-92707259D01*
X165062000Y-92707255D01*
X164916832Y-91977448D01*
X164776084Y-91766804D01*
X164503430Y-91358747D01*
X164503427Y-91358744D01*
X164363841Y-91149839D01*
X164154936Y-91010253D01*
X161755489Y-88610807D01*
X161824274Y-88265000D01*
X161523373Y-86752270D01*
X160666481Y-85469839D01*
X159384050Y-84612947D01*
X158253166Y-84388000D01*
X97944465Y-84388000D01*
X97340911Y-84138000D01*
X95699089Y-84138000D01*
X94182242Y-84766298D01*
X93021298Y-85927242D01*
X92777000Y-86517030D01*
X92777000Y-81096750D01*
X115293000Y-81096750D01*
X115293000Y-82789174D01*
X115464576Y-83203394D01*
X115781606Y-83520425D01*
X116195826Y-83692000D01*
X119765250Y-83692000D01*
X120047000Y-83410250D01*
X120047000Y-80815000D01*
X123793000Y-80815000D01*
X123793000Y-83410250D01*
X124074750Y-83692000D01*
X127644174Y-83692000D01*
X128058394Y-83520425D01*
X128270000Y-83308818D01*
X128481606Y-83520425D01*
X128895826Y-83692000D01*
X132465250Y-83692000D01*
X132747000Y-83410250D01*
X132747000Y-80815000D01*
X136493000Y-80815000D01*
X136493000Y-83410250D01*
X136774750Y-83692000D01*
X140344174Y-83692000D01*
X140758394Y-83520425D01*
X140970000Y-83308818D01*
X141181606Y-83520425D01*
X141595826Y-83692000D01*
X145165250Y-83692000D01*
X145447000Y-83410250D01*
X145447000Y-80815000D01*
X149193000Y-80815000D01*
X149193000Y-83410250D01*
X149474750Y-83692000D01*
X153044174Y-83692000D01*
X153458394Y-83520425D01*
X153670000Y-83308818D01*
X153881606Y-83520425D01*
X154295826Y-83692000D01*
X157865250Y-83692000D01*
X158147000Y-83410250D01*
X158147000Y-80815000D01*
X161893000Y-80815000D01*
X161893000Y-83410250D01*
X162174750Y-83692000D01*
X165744174Y-83692000D01*
X166158394Y-83520425D01*
X166475424Y-83203394D01*
X166647000Y-82789174D01*
X166647000Y-81096750D01*
X166365250Y-80815000D01*
X161893000Y-80815000D01*
X158147000Y-80815000D01*
X153674750Y-80815000D01*
X153670000Y-80819750D01*
X153665250Y-80815000D01*
X149193000Y-80815000D01*
X145447000Y-80815000D01*
X140974750Y-80815000D01*
X140970000Y-80819750D01*
X140965250Y-80815000D01*
X136493000Y-80815000D01*
X132747000Y-80815000D01*
X128274750Y-80815000D01*
X128270000Y-80819750D01*
X128265250Y-80815000D01*
X123793000Y-80815000D01*
X120047000Y-80815000D01*
X115574750Y-80815000D01*
X115293000Y-81096750D01*
X92777000Y-81096750D01*
X92777000Y-81026845D01*
X92852954Y-80645001D01*
X92777000Y-80263156D01*
X92777000Y-75340826D01*
X115293000Y-75340826D01*
X115293000Y-77033250D01*
X115574750Y-77315000D01*
X120047000Y-77315000D01*
X120047000Y-74719750D01*
X123793000Y-74719750D01*
X123793000Y-77315000D01*
X128265250Y-77315000D01*
X128270000Y-77310250D01*
X128274750Y-77315000D01*
X132747000Y-77315000D01*
X132747000Y-74719750D01*
X136493000Y-74719750D01*
X136493000Y-77315000D01*
X140965250Y-77315000D01*
X140970000Y-77310250D01*
X140974750Y-77315000D01*
X145447000Y-77315000D01*
X145447000Y-74719750D01*
X149193000Y-74719750D01*
X149193000Y-77315000D01*
X153665250Y-77315000D01*
X153670000Y-77310250D01*
X153674750Y-77315000D01*
X158147000Y-77315000D01*
X158147000Y-74719750D01*
X161893000Y-74719750D01*
X161893000Y-77315000D01*
X166365250Y-77315000D01*
X166647000Y-77033250D01*
X166647000Y-75340826D01*
X166475424Y-74926606D01*
X166158394Y-74609575D01*
X165744174Y-74438000D01*
X162174750Y-74438000D01*
X161893000Y-74719750D01*
X158147000Y-74719750D01*
X157865250Y-74438000D01*
X154295826Y-74438000D01*
X153881606Y-74609575D01*
X153670000Y-74821182D01*
X153458394Y-74609575D01*
X153044174Y-74438000D01*
X149474750Y-74438000D01*
X149193000Y-74719750D01*
X145447000Y-74719750D01*
X145165250Y-74438000D01*
X141595826Y-74438000D01*
X141181606Y-74609575D01*
X140970000Y-74821182D01*
X140758394Y-74609575D01*
X140344174Y-74438000D01*
X136774750Y-74438000D01*
X136493000Y-74719750D01*
X132747000Y-74719750D01*
X132465250Y-74438000D01*
X128895826Y-74438000D01*
X128481606Y-74609575D01*
X128270000Y-74821182D01*
X128058394Y-74609575D01*
X127644174Y-74438000D01*
X124074750Y-74438000D01*
X123793000Y-74719750D01*
X120047000Y-74719750D01*
X119765250Y-74438000D01*
X116195826Y-74438000D01*
X115781606Y-74609575D01*
X115464576Y-74926606D01*
X115293000Y-75340826D01*
X92777000Y-75340826D01*
X92777000Y-73727000D01*
X101218154Y-73727000D01*
X101600000Y-73802954D01*
X101981846Y-73727000D01*
X117728154Y-73727000D01*
X118110000Y-73802954D01*
X118491846Y-73727000D01*
X132968154Y-73727000D01*
X133350000Y-73802954D01*
X133731846Y-73727000D01*
X149478154Y-73727000D01*
X149860000Y-73802954D01*
X150241846Y-73727000D01*
X151372730Y-73502053D01*
X152655161Y-72645161D01*
X152871462Y-72321443D01*
X157411445Y-67781461D01*
X157735161Y-67565161D01*
X158454168Y-66489089D01*
X163513000Y-66489089D01*
X163513000Y-68130911D01*
X164141298Y-69647758D01*
X165302242Y-70808702D01*
X166819089Y-71437000D01*
X168460911Y-71437000D01*
X169977758Y-70808702D01*
X171138702Y-69647758D01*
X171767000Y-68130911D01*
X171767000Y-66489089D01*
X171517000Y-65885535D01*
X171517000Y-58755905D01*
X173184203Y-57088702D01*
X173787758Y-56838702D01*
X174948702Y-55677758D01*
X175577000Y-54160911D01*
X175577000Y-52519089D01*
X174948702Y-51002242D01*
X173787758Y-49841298D01*
X172270911Y-49213000D01*
X170629089Y-49213000D01*
X169112242Y-49841298D01*
X167951298Y-51002242D01*
X167701298Y-51605797D01*
X165168557Y-54138538D01*
X164844839Y-54354839D01*
X163996254Y-55624839D01*
X163987947Y-55637271D01*
X163687046Y-57150000D01*
X163763000Y-57531846D01*
X163763001Y-65885533D01*
X163513000Y-66489089D01*
X158454168Y-66489089D01*
X158592053Y-66282730D01*
X158817000Y-65151846D01*
X158892954Y-64770000D01*
X158817000Y-64388154D01*
X158817000Y-57648817D01*
X158668007Y-57289116D01*
X158592053Y-56907270D01*
X158375755Y-56583556D01*
X158226762Y-56223856D01*
X157951461Y-55948555D01*
X157735161Y-55624839D01*
X157411446Y-55408540D01*
X157136144Y-55133238D01*
X156776442Y-54984244D01*
X156452729Y-54767947D01*
X156070885Y-54691993D01*
X155711183Y-54543000D01*
X155321846Y-54543000D01*
X154940000Y-54467046D01*
X154558154Y-54543000D01*
X154168817Y-54543000D01*
X153809116Y-54691993D01*
X153427270Y-54767947D01*
X153103556Y-54984245D01*
X152743856Y-55133238D01*
X152468555Y-55408539D01*
X152144839Y-55624839D01*
X151928540Y-55948554D01*
X151653238Y-56223856D01*
X151504244Y-56583558D01*
X151287947Y-56907271D01*
X151211993Y-57289115D01*
X151063000Y-57648817D01*
X151063000Y-58038155D01*
X151063001Y-63164094D01*
X148254095Y-65973000D01*
X142710422Y-65973000D01*
X143352053Y-65012730D01*
X143577000Y-63881846D01*
X143652954Y-63500001D01*
X143577000Y-63118156D01*
X143577000Y-57648817D01*
X143428007Y-57289116D01*
X143352053Y-56907270D01*
X143135755Y-56583556D01*
X142986762Y-56223856D01*
X142711461Y-55948555D01*
X142495161Y-55624839D01*
X142171446Y-55408540D01*
X141896144Y-55133238D01*
X141536442Y-54984244D01*
X141212729Y-54767947D01*
X140830885Y-54691993D01*
X140471183Y-54543000D01*
X140081846Y-54543000D01*
X139700000Y-54467046D01*
X139318154Y-54543000D01*
X138928817Y-54543000D01*
X138569116Y-54691993D01*
X138187270Y-54767947D01*
X137863556Y-54984245D01*
X137503856Y-55133238D01*
X137228555Y-55408539D01*
X136904839Y-55624839D01*
X136688540Y-55948554D01*
X136413238Y-56223856D01*
X136264244Y-56583558D01*
X136047947Y-56907271D01*
X135971993Y-57289115D01*
X135823000Y-57648817D01*
X135823000Y-58038155D01*
X135823001Y-61894094D01*
X131744095Y-65973000D01*
X127470422Y-65973000D01*
X128112053Y-65012730D01*
X128337000Y-63881846D01*
X128412954Y-63500001D01*
X128337000Y-63118156D01*
X128337000Y-57648817D01*
X128188007Y-57289116D01*
X128112053Y-56907270D01*
X127895755Y-56583556D01*
X127746762Y-56223856D01*
X127471461Y-55948555D01*
X127255161Y-55624839D01*
X126931446Y-55408540D01*
X126656144Y-55133238D01*
X126296442Y-54984244D01*
X125972729Y-54767947D01*
X125590885Y-54691993D01*
X125231183Y-54543000D01*
X124841846Y-54543000D01*
X124460000Y-54467046D01*
X124078154Y-54543000D01*
X123688817Y-54543000D01*
X123329116Y-54691993D01*
X122947270Y-54767947D01*
X122623556Y-54984245D01*
X122263856Y-55133238D01*
X121988555Y-55408539D01*
X121664839Y-55624839D01*
X121448540Y-55948554D01*
X121173238Y-56223856D01*
X121024244Y-56583558D01*
X120807947Y-56907271D01*
X120731993Y-57289115D01*
X120583000Y-57648817D01*
X120583000Y-58038155D01*
X120583001Y-61894094D01*
X116504095Y-65973000D01*
X110959906Y-65973000D01*
X111453104Y-65479802D01*
X112015161Y-65104248D01*
X112872053Y-63821817D01*
X113172954Y-62309087D01*
X113097000Y-61927241D01*
X113097000Y-57648817D01*
X112948007Y-57289116D01*
X112872053Y-56907270D01*
X112655755Y-56583556D01*
X112506762Y-56223856D01*
X112231461Y-55948555D01*
X112015161Y-55624839D01*
X111691446Y-55408540D01*
X111416144Y-55133238D01*
X111056442Y-54984244D01*
X110732729Y-54767947D01*
X110350885Y-54691993D01*
X109991183Y-54543000D01*
X109601846Y-54543000D01*
X109220000Y-54467046D01*
X108838154Y-54543000D01*
X108448817Y-54543000D01*
X108089116Y-54691993D01*
X107707270Y-54767947D01*
X107383556Y-54984245D01*
X107023856Y-55133238D01*
X106748555Y-55408539D01*
X106424839Y-55624839D01*
X106208540Y-55948554D01*
X105933238Y-56223856D01*
X105784244Y-56583558D01*
X105567947Y-56907271D01*
X105491993Y-57289115D01*
X105343000Y-57648817D01*
X105343000Y-58038155D01*
X105343001Y-60624094D01*
X99994095Y-65973000D01*
X95719906Y-65973000D01*
X96451445Y-65241461D01*
X96775161Y-65025161D01*
X97632053Y-63742730D01*
X97815873Y-62818607D01*
X97932954Y-62230001D01*
X97857000Y-61848156D01*
X97857000Y-57648817D01*
X97708007Y-57289116D01*
X97632053Y-56907270D01*
X97415755Y-56583556D01*
X97266762Y-56223856D01*
X96991461Y-55948555D01*
X96775161Y-55624839D01*
X96451446Y-55408540D01*
X96176144Y-55133238D01*
X95816442Y-54984244D01*
X95492729Y-54767947D01*
X95110885Y-54691993D01*
X94751183Y-54543000D01*
X94361846Y-54543000D01*
X93980000Y-54467046D01*
X93598154Y-54543000D01*
X93208817Y-54543000D01*
X92849116Y-54691993D01*
X92467270Y-54767947D01*
X92143556Y-54984245D01*
X91783856Y-55133238D01*
X91508555Y-55408539D01*
X91184839Y-55624839D01*
X90968540Y-55948554D01*
X90693238Y-56223856D01*
X90544244Y-56583558D01*
X90327947Y-56907271D01*
X90251993Y-57289115D01*
X90103000Y-57648817D01*
X90103000Y-58038155D01*
X90103001Y-60624094D01*
X84754095Y-65973000D01*
X84155906Y-65973000D01*
X82617000Y-64434095D01*
X82617000Y-57648817D01*
X82468007Y-57289116D01*
X82392053Y-56907270D01*
X82175755Y-56583556D01*
X82026762Y-56223856D01*
X81751461Y-55948555D01*
X81535161Y-55624839D01*
X81211445Y-55408539D01*
X80936144Y-55133238D01*
X80576444Y-54984245D01*
X80252730Y-54767947D01*
X79870884Y-54691993D01*
X79511183Y-54543000D01*
X79121846Y-54543000D01*
X78740000Y-54467046D01*
X78358154Y-54543000D01*
X77968817Y-54543000D01*
X77609115Y-54691993D01*
X77227271Y-54767947D01*
X76903559Y-54984244D01*
X76543856Y-55133238D01*
X76268553Y-55408541D01*
X75944840Y-55624839D01*
X75728542Y-55948552D01*
X75453238Y-56223856D01*
X75304244Y-56583560D01*
X75087948Y-56907270D01*
X75011995Y-57289111D01*
X74863000Y-57648817D01*
X74863000Y-59191183D01*
X74863001Y-59191185D01*
X74863000Y-65658154D01*
X74787046Y-66040000D01*
X75087947Y-67552729D01*
X75944839Y-68835161D01*
X76268557Y-69051462D01*
X79538539Y-72321445D01*
X79754839Y-72645161D01*
X81037270Y-73502053D01*
X82550000Y-73802954D01*
X82931846Y-73727000D01*
X85023000Y-73727000D01*
X85023000Y-79039094D01*
X79545797Y-84516297D01*
X78942242Y-84766298D01*
X77781298Y-85927242D01*
X77153000Y-87444089D01*
X77153000Y-89085911D01*
X77781298Y-90602758D01*
X78942242Y-91763702D01*
X80459089Y-92392000D01*
X82100911Y-92392000D01*
X83617758Y-91763702D01*
X84778702Y-90602758D01*
X85023000Y-90012970D01*
X85023001Y-101853149D01*
X85023000Y-101853154D01*
X85023000Y-102534094D01*
X77005798Y-110551297D01*
X76402242Y-110801298D01*
X75241298Y-111962242D01*
X74613000Y-113479089D01*
X72882000Y-113479089D01*
X72882000Y-38735000D01*
X74787046Y-38735000D01*
X74863001Y-39116850D01*
X74863000Y-45583817D01*
X74863000Y-47126183D01*
X75011993Y-47485885D01*
X75087947Y-47867729D01*
X75304244Y-48191442D01*
X75453238Y-48551144D01*
X75728540Y-48826446D01*
X75944839Y-49150161D01*
X76268555Y-49366461D01*
X76543856Y-49641762D01*
X76903556Y-49790755D01*
X77227270Y-50007053D01*
X77609116Y-50083007D01*
X77968817Y-50232000D01*
X78358154Y-50232000D01*
X78740000Y-50307954D01*
X79121846Y-50232000D01*
X79511183Y-50232000D01*
X79870885Y-50083007D01*
X80252729Y-50007053D01*
X80576442Y-49790756D01*
X80936144Y-49641762D01*
X81211446Y-49366460D01*
X81535161Y-49150161D01*
X81751461Y-48826445D01*
X82026762Y-48551144D01*
X82175755Y-48191444D01*
X82392053Y-47867730D01*
X82468007Y-47485884D01*
X82617000Y-47126183D01*
X82617000Y-40340905D01*
X86695906Y-36262000D01*
X92240095Y-36262000D01*
X91508555Y-36993540D01*
X91184840Y-37209839D01*
X90575316Y-38122057D01*
X90327947Y-38492271D01*
X90027046Y-40005000D01*
X90103001Y-40386850D01*
X90103000Y-45583817D01*
X90103000Y-47126183D01*
X90251993Y-47485885D01*
X90327947Y-47867729D01*
X90544244Y-48191442D01*
X90693238Y-48551144D01*
X90968540Y-48826446D01*
X91184839Y-49150161D01*
X91508555Y-49366461D01*
X91783856Y-49641762D01*
X92143556Y-49790755D01*
X92467270Y-50007053D01*
X92849116Y-50083007D01*
X93208817Y-50232000D01*
X93598154Y-50232000D01*
X93980000Y-50307954D01*
X94361846Y-50232000D01*
X94751183Y-50232000D01*
X95110885Y-50083007D01*
X95492729Y-50007053D01*
X95816442Y-49790756D01*
X96176144Y-49641762D01*
X96451446Y-49366460D01*
X96775161Y-49150161D01*
X96991461Y-48826445D01*
X97266762Y-48551144D01*
X97415755Y-48191444D01*
X97632053Y-47867730D01*
X97708007Y-47485884D01*
X97857000Y-47126183D01*
X97857000Y-41610905D01*
X103205906Y-36262000D01*
X107480095Y-36262000D01*
X106748555Y-36993540D01*
X106424840Y-37209839D01*
X105815316Y-38122057D01*
X105567947Y-38492271D01*
X105267046Y-40005000D01*
X105343001Y-40386850D01*
X105343000Y-45583817D01*
X105343000Y-47126183D01*
X105491993Y-47485885D01*
X105567947Y-47867729D01*
X105784244Y-48191442D01*
X105933238Y-48551144D01*
X106208540Y-48826446D01*
X106424839Y-49150161D01*
X106748555Y-49366461D01*
X107023856Y-49641762D01*
X107383556Y-49790755D01*
X107707270Y-50007053D01*
X108089116Y-50083007D01*
X108448817Y-50232000D01*
X108838154Y-50232000D01*
X109220000Y-50307954D01*
X109601846Y-50232000D01*
X109991183Y-50232000D01*
X110350885Y-50083007D01*
X110732729Y-50007053D01*
X111056442Y-49790756D01*
X111416144Y-49641762D01*
X111691446Y-49366460D01*
X112015161Y-49150161D01*
X112231461Y-48826445D01*
X112506762Y-48551144D01*
X112655755Y-48191444D01*
X112872053Y-47867730D01*
X112948007Y-47485884D01*
X113097000Y-47126183D01*
X113097000Y-41610905D01*
X118445906Y-36262000D01*
X122720095Y-36262000D01*
X121988555Y-36993540D01*
X121664840Y-37209839D01*
X121055316Y-38122057D01*
X120807947Y-38492271D01*
X120507046Y-40005000D01*
X120583001Y-40386850D01*
X120583000Y-45583817D01*
X120583000Y-47126183D01*
X120731993Y-47485885D01*
X120807947Y-47867729D01*
X121024244Y-48191442D01*
X121173238Y-48551144D01*
X121448540Y-48826446D01*
X121664839Y-49150161D01*
X121988555Y-49366461D01*
X122263856Y-49641762D01*
X122623556Y-49790755D01*
X122947270Y-50007053D01*
X123329116Y-50083007D01*
X123688817Y-50232000D01*
X124078154Y-50232000D01*
X124460000Y-50307954D01*
X124841846Y-50232000D01*
X125231183Y-50232000D01*
X125590885Y-50083007D01*
X125972729Y-50007053D01*
X126296442Y-49790756D01*
X126656144Y-49641762D01*
X126931446Y-49366460D01*
X127255161Y-49150161D01*
X127471461Y-48826445D01*
X127746762Y-48551144D01*
X127895755Y-48191444D01*
X128112053Y-47867730D01*
X128188007Y-47485884D01*
X128337000Y-47126183D01*
X128337000Y-41610905D01*
X133685906Y-36262000D01*
X137960095Y-36262000D01*
X137228555Y-36993540D01*
X136904840Y-37209839D01*
X136295316Y-38122057D01*
X136047947Y-38492271D01*
X135747046Y-40005000D01*
X135823001Y-40386850D01*
X135823000Y-45583817D01*
X135823000Y-47126183D01*
X135971993Y-47485885D01*
X136047947Y-47867729D01*
X136264244Y-48191442D01*
X136413238Y-48551144D01*
X136688540Y-48826446D01*
X136904839Y-49150161D01*
X137228555Y-49366461D01*
X137503856Y-49641762D01*
X137863556Y-49790755D01*
X138187270Y-50007053D01*
X138569116Y-50083007D01*
X138928817Y-50232000D01*
X139318154Y-50232000D01*
X139700000Y-50307954D01*
X140081846Y-50232000D01*
X140471183Y-50232000D01*
X140830885Y-50083007D01*
X141212729Y-50007053D01*
X141536442Y-49790756D01*
X141896144Y-49641762D01*
X142171446Y-49366460D01*
X142495161Y-49150161D01*
X142711461Y-48826445D01*
X142986762Y-48551144D01*
X143135755Y-48191444D01*
X143352053Y-47867730D01*
X143428007Y-47485884D01*
X143577000Y-47126183D01*
X143577000Y-41610905D01*
X148925906Y-36262000D01*
X151929579Y-36262000D01*
X151535316Y-36852057D01*
X151287947Y-37222271D01*
X150987046Y-38735000D01*
X151063001Y-39116850D01*
X151063000Y-45583817D01*
X151063000Y-47126183D01*
X151211993Y-47485885D01*
X151287947Y-47867729D01*
X151504244Y-48191442D01*
X151653238Y-48551144D01*
X151928540Y-48826446D01*
X152144839Y-49150161D01*
X152468555Y-49366461D01*
X152743856Y-49641762D01*
X153103556Y-49790755D01*
X153427270Y-50007053D01*
X153809116Y-50083007D01*
X154168817Y-50232000D01*
X154558154Y-50232000D01*
X154940000Y-50307954D01*
X155321846Y-50232000D01*
X155711183Y-50232000D01*
X156070885Y-50083007D01*
X156452729Y-50007053D01*
X156776442Y-49790756D01*
X157136144Y-49641762D01*
X157411446Y-49366460D01*
X157735161Y-49150161D01*
X157951461Y-48826445D01*
X158226762Y-48551144D01*
X158375755Y-48191444D01*
X158592053Y-47867730D01*
X158668007Y-47485884D01*
X158817000Y-47126183D01*
X158817000Y-40340905D01*
X162895906Y-36262000D01*
X166669095Y-36262000D01*
X167573000Y-37165906D01*
X167573001Y-41755533D01*
X167323000Y-42359089D01*
X167323000Y-44000911D01*
X167951298Y-45517758D01*
X169112242Y-46678702D01*
X170629089Y-47307000D01*
X172270911Y-47307000D01*
X173787758Y-46678702D01*
X174948702Y-45517758D01*
X175577000Y-44000911D01*
X175577000Y-42359089D01*
X175327000Y-41755535D01*
X175327000Y-35941845D01*
X175402954Y-35559999D01*
X175102053Y-34047270D01*
X175002133Y-33897729D01*
X174245161Y-32764839D01*
X173921445Y-32548540D01*
X171286462Y-29913557D01*
X171070161Y-29589839D01*
X169787730Y-28732947D01*
X168656846Y-28508000D01*
X168275000Y-28432046D01*
X167893154Y-28508000D01*
X161671844Y-28508000D01*
X161289999Y-28432046D01*
X160908154Y-28508000D01*
X147701844Y-28508000D01*
X147319999Y-28432046D01*
X146938154Y-28508000D01*
X132461844Y-28508000D01*
X132079999Y-28432046D01*
X131698154Y-28508000D01*
X117221844Y-28508000D01*
X116839999Y-28432046D01*
X116458154Y-28508000D01*
X101981844Y-28508000D01*
X101599999Y-28432046D01*
X101218154Y-28508000D01*
X85471844Y-28508000D01*
X85089999Y-28432046D01*
X84708154Y-28508000D01*
X83577270Y-28732947D01*
X82294839Y-29589839D01*
X82078539Y-29913555D01*
X76268555Y-35723540D01*
X75944840Y-35939839D01*
X75335316Y-36852057D01*
X75087947Y-37222271D01*
X74787046Y-38735000D01*
X72882000Y-38735000D01*
X72882000Y-31084832D01*
X72970997Y-31299690D01*
X73780310Y-32109003D01*
X74837729Y-32547000D01*
X75982271Y-32547000D01*
X77039690Y-32109003D01*
X77849003Y-31299690D01*
X78287000Y-30242271D01*
X78287000Y-29097729D01*
X77849003Y-28040310D01*
X77039690Y-27230997D01*
X76969685Y-27202000D01*
X179222447Y-27202000D01*
X178790310Y-27380997D01*
X178790310Y-27380997D01*
G37*
X178790310Y-27380997D02*
X177980997Y-28190310D01*
X177543000Y-29247729D01*
X177543000Y-30392271D01*
X177980997Y-31449690D01*
X178790310Y-32259003D01*
X179847729Y-32697000D01*
X180992271Y-32697000D01*
X182049690Y-32259003D01*
X182859003Y-31449690D01*
X182968000Y-31186548D01*
X182968001Y-126252866D01*
X182619003Y-125410310D01*
X181809690Y-124600997D01*
X180752271Y-124163000D01*
X179607729Y-124163000D01*
X178550310Y-124600997D01*
X177740997Y-125410310D01*
X177303000Y-126467729D01*
X177303000Y-127612271D01*
X177740997Y-128669690D01*
X178550310Y-129479003D01*
X178861737Y-129608000D01*
X77043827Y-129608000D01*
X77089690Y-129589003D01*
X77899003Y-128779690D01*
X78337000Y-127722271D01*
X78337000Y-126577729D01*
X78038361Y-125856750D01*
X115293000Y-125856750D01*
X115293000Y-127549174D01*
X115464576Y-127963394D01*
X115781606Y-128280425D01*
X116195826Y-128452000D01*
X119765250Y-128452000D01*
X120047000Y-128170250D01*
X120047000Y-125575000D01*
X123793000Y-125575000D01*
X123793000Y-128170250D01*
X124074750Y-128452000D01*
X127644174Y-128452000D01*
X128058394Y-128280425D01*
X128270000Y-128068818D01*
X128481606Y-128280425D01*
X128895826Y-128452000D01*
X132465250Y-128452000D01*
X132747000Y-128170250D01*
X132747000Y-125575000D01*
X136493000Y-125575000D01*
X136493000Y-128170250D01*
X136774750Y-128452000D01*
X140344174Y-128452000D01*
X140758394Y-128280425D01*
X140970000Y-128068818D01*
X141181606Y-128280425D01*
X141595826Y-128452000D01*
X145165250Y-128452000D01*
X145447000Y-128170250D01*
X145447000Y-125575000D01*
X149193000Y-125575000D01*
X149193000Y-128170250D01*
X149474750Y-128452000D01*
X153044174Y-128452000D01*
X153458394Y-128280425D01*
X153670000Y-128068818D01*
X153881606Y-128280425D01*
X154295826Y-128452000D01*
X157865250Y-128452000D01*
X158147000Y-128170250D01*
X158147000Y-125575000D01*
X161893000Y-125575000D01*
X161893000Y-128170250D01*
X162174750Y-128452000D01*
X165744174Y-128452000D01*
X166158394Y-128280425D01*
X166475424Y-127963394D01*
X166647000Y-127549174D01*
X166647000Y-125856750D01*
X166365250Y-125575000D01*
X161893000Y-125575000D01*
X158147000Y-125575000D01*
X153674750Y-125575000D01*
X153670000Y-125579750D01*
X153665250Y-125575000D01*
X149193000Y-125575000D01*
X145447000Y-125575000D01*
X140974750Y-125575000D01*
X140970000Y-125579750D01*
X140965250Y-125575000D01*
X136493000Y-125575000D01*
X132747000Y-125575000D01*
X128274750Y-125575000D01*
X128270000Y-125579750D01*
X128265250Y-125575000D01*
X123793000Y-125575000D01*
X120047000Y-125575000D01*
X115574750Y-125575000D01*
X115293000Y-125856750D01*
X78038361Y-125856750D01*
X77899003Y-125520310D01*
X77089690Y-124710997D01*
X76032271Y-124273000D01*
X74887729Y-124273000D01*
X73830310Y-124710997D01*
X73020997Y-125520310D01*
X72882000Y-125855879D01*
X72882000Y-120100826D01*
X115293000Y-120100826D01*
X115293000Y-121793250D01*
X115574750Y-122075000D01*
X120047000Y-122075000D01*
X120047000Y-119479750D01*
X123793000Y-119479750D01*
X123793000Y-122075000D01*
X128265250Y-122075000D01*
X128270000Y-122070250D01*
X128274750Y-122075000D01*
X132747000Y-122075000D01*
X132747000Y-119479750D01*
X136493000Y-119479750D01*
X136493000Y-122075000D01*
X140965250Y-122075000D01*
X140970000Y-122070250D01*
X140974750Y-122075000D01*
X145447000Y-122075000D01*
X145447000Y-119479750D01*
X149193000Y-119479750D01*
X149193000Y-122075000D01*
X153665250Y-122075000D01*
X153670000Y-122070250D01*
X153674750Y-122075000D01*
X158147000Y-122075000D01*
X158147000Y-119479750D01*
X161893000Y-119479750D01*
X161893000Y-122075000D01*
X166365250Y-122075000D01*
X166647000Y-121793250D01*
X166647000Y-120100826D01*
X166475424Y-119686606D01*
X166158394Y-119369575D01*
X165744174Y-119198000D01*
X162174750Y-119198000D01*
X161893000Y-119479750D01*
X158147000Y-119479750D01*
X157865250Y-119198000D01*
X154295826Y-119198000D01*
X153881606Y-119369575D01*
X153670000Y-119581182D01*
X153458394Y-119369575D01*
X153044174Y-119198000D01*
X149474750Y-119198000D01*
X149193000Y-119479750D01*
X145447000Y-119479750D01*
X145165250Y-119198000D01*
X141595826Y-119198000D01*
X141181606Y-119369575D01*
X140970000Y-119581182D01*
X140758394Y-119369575D01*
X140344174Y-119198000D01*
X136774750Y-119198000D01*
X136493000Y-119479750D01*
X132747000Y-119479750D01*
X132465250Y-119198000D01*
X128895826Y-119198000D01*
X128481606Y-119369575D01*
X128270000Y-119581182D01*
X128058394Y-119369575D01*
X127644174Y-119198000D01*
X124074750Y-119198000D01*
X123793000Y-119479750D01*
X120047000Y-119479750D01*
X119765250Y-119198000D01*
X116195826Y-119198000D01*
X115781606Y-119369575D01*
X115464576Y-119686606D01*
X115293000Y-120100826D01*
X72882000Y-120100826D01*
X72882000Y-113479089D01*
X74613000Y-113479089D01*
X74613000Y-115120911D01*
X75241298Y-116637758D01*
X76402242Y-117798702D01*
X77919089Y-118427000D01*
X79560911Y-118427000D01*
X81077758Y-117798702D01*
X82238702Y-116637758D01*
X82488703Y-116034202D01*
X91371446Y-107151460D01*
X91695161Y-106935161D01*
X92552053Y-105652730D01*
X92713317Y-104842000D01*
X92852954Y-104140000D01*
X92777000Y-103758154D01*
X92777000Y-96950363D01*
X93276573Y-97449936D01*
X93416159Y-97658841D01*
X93625064Y-97798427D01*
X93625067Y-97798430D01*
X94049555Y-98082063D01*
X94243768Y-98211832D01*
X94973575Y-98357000D01*
X94973579Y-98357000D01*
X95220000Y-98406016D01*
X95466421Y-98357000D01*
X98880680Y-98357000D01*
X99182457Y-98482000D01*
X100227543Y-98482000D01*
X101193076Y-98082063D01*
X101932063Y-97343076D01*
X102332000Y-96377543D01*
X102332000Y-95332457D01*
X101932063Y-94366924D01*
X101193076Y-93627937D01*
X100227543Y-93228000D01*
X99182457Y-93228000D01*
X98880680Y-93353000D01*
X96256363Y-93353000D01*
X95009885Y-92106523D01*
X95699089Y-92392000D01*
X97340911Y-92392000D01*
X97944465Y-92142000D01*
X120109958Y-92142000D01*
X120778997Y-92811039D01*
X119902543Y-92448000D01*
X118857457Y-92448000D01*
X117891924Y-92847937D01*
X117152937Y-93586924D01*
X116753000Y-94552457D01*
X116753000Y-95597543D01*
X116878000Y-95899320D01*
X116878000Y-96949899D01*
X116828984Y-97196320D01*
X116878000Y-97442741D01*
X116878000Y-97442745D01*
X117023168Y-98172552D01*
X117576160Y-99000161D01*
X117785068Y-99139749D01*
X120729706Y-102084388D01*
X120807947Y-102477730D01*
X121664839Y-103760161D01*
X122279041Y-104170557D01*
X122103168Y-104433768D01*
X121958000Y-105163575D01*
X121958000Y-105163579D01*
X121908984Y-105410000D01*
X121958000Y-105656421D01*
X121958000Y-106990680D01*
X121920000Y-107082420D01*
X121607063Y-106326924D01*
X120868076Y-105587937D01*
X119902543Y-105188000D01*
X118857457Y-105188000D01*
X117891924Y-105587937D01*
X117152937Y-106326924D01*
X116753000Y-107292457D01*
X116753000Y-108337543D01*
X116878000Y-108639320D01*
X116878000Y-108899958D01*
X115354959Y-110423000D01*
X112992000Y-110423000D01*
X112992000Y-105021420D01*
X113041016Y-104774999D01*
X112992000Y-104528578D01*
X112992000Y-104528575D01*
X112846832Y-103798768D01*
X112293841Y-102971159D01*
X112084933Y-102831571D01*
X109258431Y-100005070D01*
X109118841Y-99796159D01*
X108291232Y-99243168D01*
X107561425Y-99098000D01*
X107561421Y-99098000D01*
X107315000Y-99048984D01*
X107068579Y-99098000D01*
X100519320Y-99098000D01*
X100217543Y-98973000D01*
X99172457Y-98973000D01*
X98206924Y-99372937D01*
X97467937Y-100111924D01*
X97068000Y-101077457D01*
X97068000Y-102122543D01*
X97467937Y-103088076D01*
X98206924Y-103827063D01*
X99172457Y-104227000D01*
X100217543Y-104227000D01*
X100519320Y-104102000D01*
X106278639Y-104102000D01*
X107988001Y-105811363D01*
X107988000Y-110423000D01*
X95404465Y-110423000D01*
X94800911Y-110173000D01*
X93159089Y-110173000D01*
X91642242Y-110801298D01*
X90481298Y-111962242D01*
X89853000Y-113479089D01*
X89853000Y-115120911D01*
X90481298Y-116637758D01*
X91642242Y-117798702D01*
X93159089Y-118427000D01*
X94800911Y-118427000D01*
X95404465Y-118177000D01*
X158496846Y-118177000D01*
X159627730Y-117952053D01*
X160910161Y-117095161D01*
X161767053Y-115812730D01*
X162067954Y-114300000D01*
X161767053Y-112787270D01*
X160910161Y-111504839D01*
X159858759Y-110802316D01*
X159982000Y-110182745D01*
X159982000Y-110182740D01*
X160031016Y-109936321D01*
X159982000Y-109689901D01*
X159982000Y-108639320D01*
X160020000Y-108547580D01*
X160332937Y-109303076D01*
X161071924Y-110042063D01*
X162037457Y-110442000D01*
X163082543Y-110442000D01*
X164048076Y-110042063D01*
X164787063Y-109303076D01*
X165187000Y-108337543D01*
X165187000Y-107292457D01*
X165062000Y-106990680D01*
X165062000Y-106446361D01*
X166666362Y-104842000D01*
X168528154Y-104842000D01*
X168910000Y-104917954D01*
X169291846Y-104842000D01*
X170422730Y-104617053D01*
X171705161Y-103760161D01*
X171921462Y-103436443D01*
X180271445Y-95086461D01*
X180595161Y-94870161D01*
X181452053Y-93587730D01*
X181531753Y-93187053D01*
X181752954Y-92075000D01*
X181677000Y-91693154D01*
X181677000Y-68734465D01*
X181927000Y-68130911D01*
X181927000Y-66489089D01*
X181298702Y-64972242D01*
X180137758Y-63811298D01*
X178620911Y-63183000D01*
X176979089Y-63183000D01*
X175462242Y-63811298D01*
X174301298Y-64972242D01*
X173673000Y-66489089D01*
X173673000Y-68130911D01*
X173923000Y-68734465D01*
X173923001Y-90469093D01*
X167304095Y-97088000D01*
X164262139Y-97088000D01*
X164787063Y-96563076D01*
X165187000Y-95597543D01*
X165187000Y-94552457D01*
X165062000Y-94250680D01*
X165062000Y-93200101D01*
X165111016Y-92953680D01*
X165062000Y-92707259D01*
X165062000Y-92707255D01*
X164916832Y-91977448D01*
X164776084Y-91766804D01*
X164503430Y-91358747D01*
X164503427Y-91358744D01*
X164363841Y-91149839D01*
X164154936Y-91010253D01*
X161755489Y-88610807D01*
X161824274Y-88265000D01*
X161523373Y-86752270D01*
X160666481Y-85469839D01*
X159384050Y-84612947D01*
X158253166Y-84388000D01*
X97944465Y-84388000D01*
X97340911Y-84138000D01*
X95699089Y-84138000D01*
X94182242Y-84766298D01*
X93021298Y-85927242D01*
X92777000Y-86517030D01*
X92777000Y-81096750D01*
X115293000Y-81096750D01*
X115293000Y-82789174D01*
X115464576Y-83203394D01*
X115781606Y-83520425D01*
X116195826Y-83692000D01*
X119765250Y-83692000D01*
X120047000Y-83410250D01*
X120047000Y-80815000D01*
X123793000Y-80815000D01*
X123793000Y-83410250D01*
X124074750Y-83692000D01*
X127644174Y-83692000D01*
X128058394Y-83520425D01*
X128270000Y-83308818D01*
X128481606Y-83520425D01*
X128895826Y-83692000D01*
X132465250Y-83692000D01*
X132747000Y-83410250D01*
X132747000Y-80815000D01*
X136493000Y-80815000D01*
X136493000Y-83410250D01*
X136774750Y-83692000D01*
X140344174Y-83692000D01*
X140758394Y-83520425D01*
X140970000Y-83308818D01*
X141181606Y-83520425D01*
X141595826Y-83692000D01*
X145165250Y-83692000D01*
X145447000Y-83410250D01*
X145447000Y-80815000D01*
X149193000Y-80815000D01*
X149193000Y-83410250D01*
X149474750Y-83692000D01*
X153044174Y-83692000D01*
X153458394Y-83520425D01*
X153670000Y-83308818D01*
X153881606Y-83520425D01*
X154295826Y-83692000D01*
X157865250Y-83692000D01*
X158147000Y-83410250D01*
X158147000Y-80815000D01*
X161893000Y-80815000D01*
X161893000Y-83410250D01*
X162174750Y-83692000D01*
X165744174Y-83692000D01*
X166158394Y-83520425D01*
X166475424Y-83203394D01*
X166647000Y-82789174D01*
X166647000Y-81096750D01*
X166365250Y-80815000D01*
X161893000Y-80815000D01*
X158147000Y-80815000D01*
X153674750Y-80815000D01*
X153670000Y-80819750D01*
X153665250Y-80815000D01*
X149193000Y-80815000D01*
X145447000Y-80815000D01*
X140974750Y-80815000D01*
X140970000Y-80819750D01*
X140965250Y-80815000D01*
X136493000Y-80815000D01*
X132747000Y-80815000D01*
X128274750Y-80815000D01*
X128270000Y-80819750D01*
X128265250Y-80815000D01*
X123793000Y-80815000D01*
X120047000Y-80815000D01*
X115574750Y-80815000D01*
X115293000Y-81096750D01*
X92777000Y-81096750D01*
X92777000Y-81026845D01*
X92852954Y-80645001D01*
X92777000Y-80263156D01*
X92777000Y-75340826D01*
X115293000Y-75340826D01*
X115293000Y-77033250D01*
X115574750Y-77315000D01*
X120047000Y-77315000D01*
X120047000Y-74719750D01*
X123793000Y-74719750D01*
X123793000Y-77315000D01*
X128265250Y-77315000D01*
X128270000Y-77310250D01*
X128274750Y-77315000D01*
X132747000Y-77315000D01*
X132747000Y-74719750D01*
X136493000Y-74719750D01*
X136493000Y-77315000D01*
X140965250Y-77315000D01*
X140970000Y-77310250D01*
X140974750Y-77315000D01*
X145447000Y-77315000D01*
X145447000Y-74719750D01*
X149193000Y-74719750D01*
X149193000Y-77315000D01*
X153665250Y-77315000D01*
X153670000Y-77310250D01*
X153674750Y-77315000D01*
X158147000Y-77315000D01*
X158147000Y-74719750D01*
X161893000Y-74719750D01*
X161893000Y-77315000D01*
X166365250Y-77315000D01*
X166647000Y-77033250D01*
X166647000Y-75340826D01*
X166475424Y-74926606D01*
X166158394Y-74609575D01*
X165744174Y-74438000D01*
X162174750Y-74438000D01*
X161893000Y-74719750D01*
X158147000Y-74719750D01*
X157865250Y-74438000D01*
X154295826Y-74438000D01*
X153881606Y-74609575D01*
X153670000Y-74821182D01*
X153458394Y-74609575D01*
X153044174Y-74438000D01*
X149474750Y-74438000D01*
X149193000Y-74719750D01*
X145447000Y-74719750D01*
X145165250Y-74438000D01*
X141595826Y-74438000D01*
X141181606Y-74609575D01*
X140970000Y-74821182D01*
X140758394Y-74609575D01*
X140344174Y-74438000D01*
X136774750Y-74438000D01*
X136493000Y-74719750D01*
X132747000Y-74719750D01*
X132465250Y-74438000D01*
X128895826Y-74438000D01*
X128481606Y-74609575D01*
X128270000Y-74821182D01*
X128058394Y-74609575D01*
X127644174Y-74438000D01*
X124074750Y-74438000D01*
X123793000Y-74719750D01*
X120047000Y-74719750D01*
X119765250Y-74438000D01*
X116195826Y-74438000D01*
X115781606Y-74609575D01*
X115464576Y-74926606D01*
X115293000Y-75340826D01*
X92777000Y-75340826D01*
X92777000Y-73727000D01*
X101218154Y-73727000D01*
X101600000Y-73802954D01*
X101981846Y-73727000D01*
X117728154Y-73727000D01*
X118110000Y-73802954D01*
X118491846Y-73727000D01*
X132968154Y-73727000D01*
X133350000Y-73802954D01*
X133731846Y-73727000D01*
X149478154Y-73727000D01*
X149860000Y-73802954D01*
X150241846Y-73727000D01*
X151372730Y-73502053D01*
X152655161Y-72645161D01*
X152871462Y-72321443D01*
X157411445Y-67781461D01*
X157735161Y-67565161D01*
X158454168Y-66489089D01*
X163513000Y-66489089D01*
X163513000Y-68130911D01*
X164141298Y-69647758D01*
X165302242Y-70808702D01*
X166819089Y-71437000D01*
X168460911Y-71437000D01*
X169977758Y-70808702D01*
X171138702Y-69647758D01*
X171767000Y-68130911D01*
X171767000Y-66489089D01*
X171517000Y-65885535D01*
X171517000Y-58755905D01*
X173184203Y-57088702D01*
X173787758Y-56838702D01*
X174948702Y-55677758D01*
X175577000Y-54160911D01*
X175577000Y-52519089D01*
X174948702Y-51002242D01*
X173787758Y-49841298D01*
X172270911Y-49213000D01*
X170629089Y-49213000D01*
X169112242Y-49841298D01*
X167951298Y-51002242D01*
X167701298Y-51605797D01*
X165168557Y-54138538D01*
X164844839Y-54354839D01*
X163996254Y-55624839D01*
X163987947Y-55637271D01*
X163687046Y-57150000D01*
X163763000Y-57531846D01*
X163763001Y-65885533D01*
X163513000Y-66489089D01*
X158454168Y-66489089D01*
X158592053Y-66282730D01*
X158817000Y-65151846D01*
X158892954Y-64770000D01*
X158817000Y-64388154D01*
X158817000Y-57648817D01*
X158668007Y-57289116D01*
X158592053Y-56907270D01*
X158375755Y-56583556D01*
X158226762Y-56223856D01*
X157951461Y-55948555D01*
X157735161Y-55624839D01*
X157411446Y-55408540D01*
X157136144Y-55133238D01*
X156776442Y-54984244D01*
X156452729Y-54767947D01*
X156070885Y-54691993D01*
X155711183Y-54543000D01*
X155321846Y-54543000D01*
X154940000Y-54467046D01*
X154558154Y-54543000D01*
X154168817Y-54543000D01*
X153809116Y-54691993D01*
X153427270Y-54767947D01*
X153103556Y-54984245D01*
X152743856Y-55133238D01*
X152468555Y-55408539D01*
X152144839Y-55624839D01*
X151928540Y-55948554D01*
X151653238Y-56223856D01*
X151504244Y-56583558D01*
X151287947Y-56907271D01*
X151211993Y-57289115D01*
X151063000Y-57648817D01*
X151063000Y-58038155D01*
X151063001Y-63164094D01*
X148254095Y-65973000D01*
X142710422Y-65973000D01*
X143352053Y-65012730D01*
X143577000Y-63881846D01*
X143652954Y-63500001D01*
X143577000Y-63118156D01*
X143577000Y-57648817D01*
X143428007Y-57289116D01*
X143352053Y-56907270D01*
X143135755Y-56583556D01*
X142986762Y-56223856D01*
X142711461Y-55948555D01*
X142495161Y-55624839D01*
X142171446Y-55408540D01*
X141896144Y-55133238D01*
X141536442Y-54984244D01*
X141212729Y-54767947D01*
X140830885Y-54691993D01*
X140471183Y-54543000D01*
X140081846Y-54543000D01*
X139700000Y-54467046D01*
X139318154Y-54543000D01*
X138928817Y-54543000D01*
X138569116Y-54691993D01*
X138187270Y-54767947D01*
X137863556Y-54984245D01*
X137503856Y-55133238D01*
X137228555Y-55408539D01*
X136904839Y-55624839D01*
X136688540Y-55948554D01*
X136413238Y-56223856D01*
X136264244Y-56583558D01*
X136047947Y-56907271D01*
X135971993Y-57289115D01*
X135823000Y-57648817D01*
X135823000Y-58038155D01*
X135823001Y-61894094D01*
X131744095Y-65973000D01*
X127470422Y-65973000D01*
X128112053Y-65012730D01*
X128337000Y-63881846D01*
X128412954Y-63500001D01*
X128337000Y-63118156D01*
X128337000Y-57648817D01*
X128188007Y-57289116D01*
X128112053Y-56907270D01*
X127895755Y-56583556D01*
X127746762Y-56223856D01*
X127471461Y-55948555D01*
X127255161Y-55624839D01*
X126931446Y-55408540D01*
X126656144Y-55133238D01*
X126296442Y-54984244D01*
X125972729Y-54767947D01*
X125590885Y-54691993D01*
X125231183Y-54543000D01*
X124841846Y-54543000D01*
X124460000Y-54467046D01*
X124078154Y-54543000D01*
X123688817Y-54543000D01*
X123329116Y-54691993D01*
X122947270Y-54767947D01*
X122623556Y-54984245D01*
X122263856Y-55133238D01*
X121988555Y-55408539D01*
X121664839Y-55624839D01*
X121448540Y-55948554D01*
X121173238Y-56223856D01*
X121024244Y-56583558D01*
X120807947Y-56907271D01*
X120731993Y-57289115D01*
X120583000Y-57648817D01*
X120583000Y-58038155D01*
X120583001Y-61894094D01*
X116504095Y-65973000D01*
X110959906Y-65973000D01*
X111453104Y-65479802D01*
X112015161Y-65104248D01*
X112872053Y-63821817D01*
X113172954Y-62309087D01*
X113097000Y-61927241D01*
X113097000Y-57648817D01*
X112948007Y-57289116D01*
X112872053Y-56907270D01*
X112655755Y-56583556D01*
X112506762Y-56223856D01*
X112231461Y-55948555D01*
X112015161Y-55624839D01*
X111691446Y-55408540D01*
X111416144Y-55133238D01*
X111056442Y-54984244D01*
X110732729Y-54767947D01*
X110350885Y-54691993D01*
X109991183Y-54543000D01*
X109601846Y-54543000D01*
X109220000Y-54467046D01*
X108838154Y-54543000D01*
X108448817Y-54543000D01*
X108089116Y-54691993D01*
X107707270Y-54767947D01*
X107383556Y-54984245D01*
X107023856Y-55133238D01*
X106748555Y-55408539D01*
X106424839Y-55624839D01*
X106208540Y-55948554D01*
X105933238Y-56223856D01*
X105784244Y-56583558D01*
X105567947Y-56907271D01*
X105491993Y-57289115D01*
X105343000Y-57648817D01*
X105343000Y-58038155D01*
X105343001Y-60624094D01*
X99994095Y-65973000D01*
X95719906Y-65973000D01*
X96451445Y-65241461D01*
X96775161Y-65025161D01*
X97632053Y-63742730D01*
X97815873Y-62818607D01*
X97932954Y-62230001D01*
X97857000Y-61848156D01*
X97857000Y-57648817D01*
X97708007Y-57289116D01*
X97632053Y-56907270D01*
X97415755Y-56583556D01*
X97266762Y-56223856D01*
X96991461Y-55948555D01*
X96775161Y-55624839D01*
X96451446Y-55408540D01*
X96176144Y-55133238D01*
X95816442Y-54984244D01*
X95492729Y-54767947D01*
X95110885Y-54691993D01*
X94751183Y-54543000D01*
X94361846Y-54543000D01*
X93980000Y-54467046D01*
X93598154Y-54543000D01*
X93208817Y-54543000D01*
X92849116Y-54691993D01*
X92467270Y-54767947D01*
X92143556Y-54984245D01*
X91783856Y-55133238D01*
X91508555Y-55408539D01*
X91184839Y-55624839D01*
X90968540Y-55948554D01*
X90693238Y-56223856D01*
X90544244Y-56583558D01*
X90327947Y-56907271D01*
X90251993Y-57289115D01*
X90103000Y-57648817D01*
X90103000Y-58038155D01*
X90103001Y-60624094D01*
X84754095Y-65973000D01*
X84155906Y-65973000D01*
X82617000Y-64434095D01*
X82617000Y-57648817D01*
X82468007Y-57289116D01*
X82392053Y-56907270D01*
X82175755Y-56583556D01*
X82026762Y-56223856D01*
X81751461Y-55948555D01*
X81535161Y-55624839D01*
X81211445Y-55408539D01*
X80936144Y-55133238D01*
X80576444Y-54984245D01*
X80252730Y-54767947D01*
X79870884Y-54691993D01*
X79511183Y-54543000D01*
X79121846Y-54543000D01*
X78740000Y-54467046D01*
X78358154Y-54543000D01*
X77968817Y-54543000D01*
X77609115Y-54691993D01*
X77227271Y-54767947D01*
X76903559Y-54984244D01*
X76543856Y-55133238D01*
X76268553Y-55408541D01*
X75944840Y-55624839D01*
X75728542Y-55948552D01*
X75453238Y-56223856D01*
X75304244Y-56583560D01*
X75087948Y-56907270D01*
X75011995Y-57289111D01*
X74863000Y-57648817D01*
X74863000Y-59191183D01*
X74863001Y-59191185D01*
X74863000Y-65658154D01*
X74787046Y-66040000D01*
X75087947Y-67552729D01*
X75944839Y-68835161D01*
X76268557Y-69051462D01*
X79538539Y-72321445D01*
X79754839Y-72645161D01*
X81037270Y-73502053D01*
X82550000Y-73802954D01*
X82931846Y-73727000D01*
X85023000Y-73727000D01*
X85023000Y-79039094D01*
X79545797Y-84516297D01*
X78942242Y-84766298D01*
X77781298Y-85927242D01*
X77153000Y-87444089D01*
X77153000Y-89085911D01*
X77781298Y-90602758D01*
X78942242Y-91763702D01*
X80459089Y-92392000D01*
X82100911Y-92392000D01*
X83617758Y-91763702D01*
X84778702Y-90602758D01*
X85023000Y-90012970D01*
X85023001Y-101853149D01*
X85023000Y-101853154D01*
X85023000Y-102534094D01*
X77005798Y-110551297D01*
X76402242Y-110801298D01*
X75241298Y-111962242D01*
X74613000Y-113479089D01*
X72882000Y-113479089D01*
X72882000Y-38735000D01*
X74787046Y-38735000D01*
X74863001Y-39116850D01*
X74863000Y-45583817D01*
X74863000Y-47126183D01*
X75011993Y-47485885D01*
X75087947Y-47867729D01*
X75304244Y-48191442D01*
X75453238Y-48551144D01*
X75728540Y-48826446D01*
X75944839Y-49150161D01*
X76268555Y-49366461D01*
X76543856Y-49641762D01*
X76903556Y-49790755D01*
X77227270Y-50007053D01*
X77609116Y-50083007D01*
X77968817Y-50232000D01*
X78358154Y-50232000D01*
X78740000Y-50307954D01*
X79121846Y-50232000D01*
X79511183Y-50232000D01*
X79870885Y-50083007D01*
X80252729Y-50007053D01*
X80576442Y-49790756D01*
X80936144Y-49641762D01*
X81211446Y-49366460D01*
X81535161Y-49150161D01*
X81751461Y-48826445D01*
X82026762Y-48551144D01*
X82175755Y-48191444D01*
X82392053Y-47867730D01*
X82468007Y-47485884D01*
X82617000Y-47126183D01*
X82617000Y-40340905D01*
X86695906Y-36262000D01*
X92240095Y-36262000D01*
X91508555Y-36993540D01*
X91184840Y-37209839D01*
X90575316Y-38122057D01*
X90327947Y-38492271D01*
X90027046Y-40005000D01*
X90103001Y-40386850D01*
X90103000Y-45583817D01*
X90103000Y-47126183D01*
X90251993Y-47485885D01*
X90327947Y-47867729D01*
X90544244Y-48191442D01*
X90693238Y-48551144D01*
X90968540Y-48826446D01*
X91184839Y-49150161D01*
X91508555Y-49366461D01*
X91783856Y-49641762D01*
X92143556Y-49790755D01*
X92467270Y-50007053D01*
X92849116Y-50083007D01*
X93208817Y-50232000D01*
X93598154Y-50232000D01*
X93980000Y-50307954D01*
X94361846Y-50232000D01*
X94751183Y-50232000D01*
X95110885Y-50083007D01*
X95492729Y-50007053D01*
X95816442Y-49790756D01*
X96176144Y-49641762D01*
X96451446Y-49366460D01*
X96775161Y-49150161D01*
X96991461Y-48826445D01*
X97266762Y-48551144D01*
X97415755Y-48191444D01*
X97632053Y-47867730D01*
X97708007Y-47485884D01*
X97857000Y-47126183D01*
X97857000Y-41610905D01*
X103205906Y-36262000D01*
X107480095Y-36262000D01*
X106748555Y-36993540D01*
X106424840Y-37209839D01*
X105815316Y-38122057D01*
X105567947Y-38492271D01*
X105267046Y-40005000D01*
X105343001Y-40386850D01*
X105343000Y-45583817D01*
X105343000Y-47126183D01*
X105491993Y-47485885D01*
X105567947Y-47867729D01*
X105784244Y-48191442D01*
X105933238Y-48551144D01*
X106208540Y-48826446D01*
X106424839Y-49150161D01*
X106748555Y-49366461D01*
X107023856Y-49641762D01*
X107383556Y-49790755D01*
X107707270Y-50007053D01*
X108089116Y-50083007D01*
X108448817Y-50232000D01*
X108838154Y-50232000D01*
X109220000Y-50307954D01*
X109601846Y-50232000D01*
X109991183Y-50232000D01*
X110350885Y-50083007D01*
X110732729Y-50007053D01*
X111056442Y-49790756D01*
X111416144Y-49641762D01*
X111691446Y-49366460D01*
X112015161Y-49150161D01*
X112231461Y-48826445D01*
X112506762Y-48551144D01*
X112655755Y-48191444D01*
X112872053Y-47867730D01*
X112948007Y-47485884D01*
X113097000Y-47126183D01*
X113097000Y-41610905D01*
X118445906Y-36262000D01*
X122720095Y-36262000D01*
X121988555Y-36993540D01*
X121664840Y-37209839D01*
X121055316Y-38122057D01*
X120807947Y-38492271D01*
X120507046Y-40005000D01*
X120583001Y-40386850D01*
X120583000Y-45583817D01*
X120583000Y-47126183D01*
X120731993Y-47485885D01*
X120807947Y-47867729D01*
X121024244Y-48191442D01*
X121173238Y-48551144D01*
X121448540Y-48826446D01*
X121664839Y-49150161D01*
X121988555Y-49366461D01*
X122263856Y-49641762D01*
X122623556Y-49790755D01*
X122947270Y-50007053D01*
X123329116Y-50083007D01*
X123688817Y-50232000D01*
X124078154Y-50232000D01*
X124460000Y-50307954D01*
X124841846Y-50232000D01*
X125231183Y-50232000D01*
X125590885Y-50083007D01*
X125972729Y-50007053D01*
X126296442Y-49790756D01*
X126656144Y-49641762D01*
X126931446Y-49366460D01*
X127255161Y-49150161D01*
X127471461Y-48826445D01*
X127746762Y-48551144D01*
X127895755Y-48191444D01*
X128112053Y-47867730D01*
X128188007Y-47485884D01*
X128337000Y-47126183D01*
X128337000Y-41610905D01*
X133685906Y-36262000D01*
X137960095Y-36262000D01*
X137228555Y-36993540D01*
X136904840Y-37209839D01*
X136295316Y-38122057D01*
X136047947Y-38492271D01*
X135747046Y-40005000D01*
X135823001Y-40386850D01*
X135823000Y-45583817D01*
X135823000Y-47126183D01*
X135971993Y-47485885D01*
X136047947Y-47867729D01*
X136264244Y-48191442D01*
X136413238Y-48551144D01*
X136688540Y-48826446D01*
X136904839Y-49150161D01*
X137228555Y-49366461D01*
X137503856Y-49641762D01*
X137863556Y-49790755D01*
X138187270Y-50007053D01*
X138569116Y-50083007D01*
X138928817Y-50232000D01*
X139318154Y-50232000D01*
X139700000Y-50307954D01*
X140081846Y-50232000D01*
X140471183Y-50232000D01*
X140830885Y-50083007D01*
X141212729Y-50007053D01*
X141536442Y-49790756D01*
X141896144Y-49641762D01*
X142171446Y-49366460D01*
X142495161Y-49150161D01*
X142711461Y-48826445D01*
X142986762Y-48551144D01*
X143135755Y-48191444D01*
X143352053Y-47867730D01*
X143428007Y-47485884D01*
X143577000Y-47126183D01*
X143577000Y-41610905D01*
X148925906Y-36262000D01*
X151929579Y-36262000D01*
X151535316Y-36852057D01*
X151287947Y-37222271D01*
X150987046Y-38735000D01*
X151063001Y-39116850D01*
X151063000Y-45583817D01*
X151063000Y-47126183D01*
X151211993Y-47485885D01*
X151287947Y-47867729D01*
X151504244Y-48191442D01*
X151653238Y-48551144D01*
X151928540Y-48826446D01*
X152144839Y-49150161D01*
X152468555Y-49366461D01*
X152743856Y-49641762D01*
X153103556Y-49790755D01*
X153427270Y-50007053D01*
X153809116Y-50083007D01*
X154168817Y-50232000D01*
X154558154Y-50232000D01*
X154940000Y-50307954D01*
X155321846Y-50232000D01*
X155711183Y-50232000D01*
X156070885Y-50083007D01*
X156452729Y-50007053D01*
X156776442Y-49790756D01*
X157136144Y-49641762D01*
X157411446Y-49366460D01*
X157735161Y-49150161D01*
X157951461Y-48826445D01*
X158226762Y-48551144D01*
X158375755Y-48191444D01*
X158592053Y-47867730D01*
X158668007Y-47485884D01*
X158817000Y-47126183D01*
X158817000Y-40340905D01*
X162895906Y-36262000D01*
X166669095Y-36262000D01*
X167573000Y-37165906D01*
X167573001Y-41755533D01*
X167323000Y-42359089D01*
X167323000Y-44000911D01*
X167951298Y-45517758D01*
X169112242Y-46678702D01*
X170629089Y-47307000D01*
X172270911Y-47307000D01*
X173787758Y-46678702D01*
X174948702Y-45517758D01*
X175577000Y-44000911D01*
X175577000Y-42359089D01*
X175327000Y-41755535D01*
X175327000Y-35941845D01*
X175402954Y-35559999D01*
X175102053Y-34047270D01*
X175002133Y-33897729D01*
X174245161Y-32764839D01*
X173921445Y-32548540D01*
X171286462Y-29913557D01*
X171070161Y-29589839D01*
X169787730Y-28732947D01*
X168656846Y-28508000D01*
X168275000Y-28432046D01*
X167893154Y-28508000D01*
X161671844Y-28508000D01*
X161289999Y-28432046D01*
X160908154Y-28508000D01*
X147701844Y-28508000D01*
X147319999Y-28432046D01*
X146938154Y-28508000D01*
X132461844Y-28508000D01*
X132079999Y-28432046D01*
X131698154Y-28508000D01*
X117221844Y-28508000D01*
X116839999Y-28432046D01*
X116458154Y-28508000D01*
X101981844Y-28508000D01*
X101599999Y-28432046D01*
X101218154Y-28508000D01*
X85471844Y-28508000D01*
X85089999Y-28432046D01*
X84708154Y-28508000D01*
X83577270Y-28732947D01*
X82294839Y-29589839D01*
X82078539Y-29913555D01*
X76268555Y-35723540D01*
X75944840Y-35939839D01*
X75335316Y-36852057D01*
X75087947Y-37222271D01*
X74787046Y-38735000D01*
X72882000Y-38735000D01*
X72882000Y-31084832D01*
X72970997Y-31299690D01*
X73780310Y-32109003D01*
X74837729Y-32547000D01*
X75982271Y-32547000D01*
X77039690Y-32109003D01*
X77849003Y-31299690D01*
X78287000Y-30242271D01*
X78287000Y-29097729D01*
X77849003Y-28040310D01*
X77039690Y-27230997D01*
X76969685Y-27202000D01*
X179222447Y-27202000D01*
X178790310Y-27380997D01*
G04 #@! TD*
M02*
