solid OpenSCAD_Model
  facet normal -0.923879 0 -0.382684
    outer loop
      vertex -18.1 -5.15 20
      vertex -18.6565 3.8147e-07 21.3435
      vertex -18.1 3.8147e-07 20
    endloop
  endfacet
  facet normal -0.923879 -0 -0.382684
    outer loop
      vertex -18.6565 3.8147e-07 21.3435
      vertex -18.1 -5.15 20
      vertex -18.6565 -5.15 21.3435
    endloop
  endfacet
  facet normal 0.923879 0 -0.382684
    outer loop
      vertex -21.3435 -5.15 21.3435
      vertex -21.9 3.8147e-07 20
      vertex -21.3435 3.8147e-07 21.3435
    endloop
  endfacet
  facet normal 0.923879 0 -0.382684
    outer loop
      vertex -21.9 3.8147e-07 20
      vertex -21.3435 -5.15 21.3435
      vertex -21.9 -5.15 20
    endloop
  endfacet
  facet normal -0.382684 0 -0.923879
    outer loop
      vertex -20 -5.15 21.9
      vertex -18.6565 3.8147e-07 21.3435
      vertex -18.6565 -5.15 21.3435
    endloop
  endfacet
  facet normal -0.382684 0 -0.923879
    outer loop
      vertex -18.6565 3.8147e-07 21.3435
      vertex -20 -5.15 21.9
      vertex -20 3.8147e-07 21.9
    endloop
  endfacet
  facet normal 0.382684 0 -0.923879
    outer loop
      vertex -21.3435 -5.15 21.3435
      vertex -20 3.8147e-07 21.9
      vertex -20 -5.15 21.9
    endloop
  endfacet
  facet normal 0.382684 0 -0.923879
    outer loop
      vertex -20 3.8147e-07 21.9
      vertex -21.3435 -5.15 21.3435
      vertex -21.3435 3.8147e-07 21.3435
    endloop
  endfacet
  facet normal -0.382684 0 0.923879
    outer loop
      vertex -20 3.8147e-07 18.1
      vertex -18.6565 -5.15 18.6565
      vertex -18.6565 3.8147e-07 18.6565
    endloop
  endfacet
  facet normal -0.382684 0 0.923879
    outer loop
      vertex -18.6565 -5.15 18.6565
      vertex -20 3.8147e-07 18.1
      vertex -20 -5.15 18.1
    endloop
  endfacet
  facet normal 0.923879 -0 0.382684
    outer loop
      vertex -21.9 -5.15 20
      vertex -21.3435 3.8147e-07 18.6565
      vertex -21.9 3.8147e-07 20
    endloop
  endfacet
  facet normal 0.923879 0 0.382684
    outer loop
      vertex -21.3435 3.8147e-07 18.6565
      vertex -21.9 -5.15 20
      vertex -21.3435 -5.15 18.6565
    endloop
  endfacet
  facet normal -0.923879 0 0.382684
    outer loop
      vertex -18.6565 -5.15 18.6565
      vertex -18.1 3.8147e-07 20
      vertex -18.6565 3.8147e-07 18.6565
    endloop
  endfacet
  facet normal -0.923879 0 0.382684
    outer loop
      vertex -18.1 3.8147e-07 20
      vertex -18.6565 -5.15 18.6565
      vertex -18.1 -5.15 20
    endloop
  endfacet
  facet normal 0.382684 0 0.923879
    outer loop
      vertex -21.3435 3.8147e-07 18.6565
      vertex -20 -5.15 18.1
      vertex -20 3.8147e-07 18.1
    endloop
  endfacet
  facet normal 0.382684 0 0.923879
    outer loop
      vertex -20 -5.15 18.1
      vertex -21.3435 3.8147e-07 18.6565
      vertex -21.3435 -5.15 18.6565
    endloop
  endfacet
  facet normal -0.92388 0 -0.382682
    outer loop
      vertex -16.9 3.8147e-07 20
      vertex -17.808 5.15 22.192
      vertex -16.9 5.15 20
    endloop
  endfacet
  facet normal -0.92388 -0 -0.382682
    outer loop
      vertex -17.808 5.15 22.192
      vertex -16.9 3.8147e-07 20
      vertex -17.808 3.8147e-07 22.192
    endloop
  endfacet
  facet normal 0.92388 0 -0.382682
    outer loop
      vertex -22.192 3.8147e-07 22.192
      vertex -23.1 5.15 20
      vertex -22.192 5.15 22.192
    endloop
  endfacet
  facet normal 0.92388 0 -0.382682
    outer loop
      vertex -23.1 5.15 20
      vertex -22.192 3.8147e-07 22.192
      vertex -23.1 3.8147e-07 20
    endloop
  endfacet
  facet normal 0.382682 0 -0.92388
    outer loop
      vertex -22.192 3.8147e-07 22.192
      vertex -20 5.15 23.1
      vertex -20 3.8147e-07 23.1
    endloop
  endfacet
  facet normal 0.382682 0 -0.92388
    outer loop
      vertex -20 5.15 23.1
      vertex -22.192 3.8147e-07 22.192
      vertex -22.192 5.15 22.192
    endloop
  endfacet
  facet normal -0.382682 0 -0.92388
    outer loop
      vertex -20 3.8147e-07 23.1
      vertex -17.808 5.15 22.192
      vertex -17.808 3.8147e-07 22.192
    endloop
  endfacet
  facet normal -0.382682 0 -0.92388
    outer loop
      vertex -17.808 5.15 22.192
      vertex -20 3.8147e-07 23.1
      vertex -20 5.15 23.1
    endloop
  endfacet
  facet normal 0 1 0
    outer loop
      vertex -20 3.8147e-07 21.9
      vertex -20 3.8147e-07 23.1
      vertex -17.808 3.8147e-07 22.192
    endloop
  endfacet
  facet normal 0 1 0
    outer loop
      vertex -20 3.8147e-07 23.1
      vertex -20 3.8147e-07 21.9
      vertex -22.192 3.8147e-07 22.192
    endloop
  endfacet
  facet normal 0 1 0
    outer loop
      vertex -17.808 3.8147e-07 22.192
      vertex -18.6565 3.8147e-07 21.3435
      vertex -20 3.8147e-07 21.9
    endloop
  endfacet
  facet normal 0 1 0
    outer loop
      vertex -16.9 3.8147e-07 20
      vertex -18.6565 3.8147e-07 21.3435
      vertex -17.808 3.8147e-07 22.192
    endloop
  endfacet
  facet normal 0 1 0
    outer loop
      vertex -16.9 3.8147e-07 20
      vertex -18.1 3.8147e-07 20
      vertex -18.6565 3.8147e-07 21.3435
    endloop
  endfacet
  facet normal 0 1 0
    outer loop
      vertex -16.9 3.8147e-07 20
      vertex -18.6565 3.8147e-07 18.6565
      vertex -18.1 3.8147e-07 20
    endloop
  endfacet
  facet normal 0 1 0
    outer loop
      vertex -18.6565 3.8147e-07 18.6565
      vertex -17.808 3.8147e-07 17.808
      vertex -20 3.8147e-07 18.1
    endloop
  endfacet
  facet normal 0 1 -0
    outer loop
      vertex -17.808 3.8147e-07 17.808
      vertex -18.6565 3.8147e-07 18.6565
      vertex -16.9 3.8147e-07 20
    endloop
  endfacet
  facet normal 0 1 -0
    outer loop
      vertex -21.3435 3.8147e-07 21.3435
      vertex -22.192 3.8147e-07 22.192
      vertex -20 3.8147e-07 21.9
    endloop
  endfacet
  facet normal 0 1 -0
    outer loop
      vertex -21.9 3.8147e-07 20
      vertex -22.192 3.8147e-07 22.192
      vertex -21.3435 3.8147e-07 21.3435
    endloop
  endfacet
  facet normal 0 1 0
    outer loop
      vertex -21.9 3.8147e-07 20
      vertex -23.1 3.8147e-07 20
      vertex -22.192 3.8147e-07 22.192
    endloop
  endfacet
  facet normal 0 1 0
    outer loop
      vertex -21.3435 3.8147e-07 18.6565
      vertex -23.1 3.8147e-07 20
      vertex -21.9 3.8147e-07 20
    endloop
  endfacet
  facet normal 0 1 0
    outer loop
      vertex -21.3435 3.8147e-07 18.6565
      vertex -22.192 3.8147e-07 17.808
      vertex -23.1 3.8147e-07 20
    endloop
  endfacet
  facet normal 0 1 0
    outer loop
      vertex -20 3.8147e-07 18.1
      vertex -22.192 3.8147e-07 17.808
      vertex -21.3435 3.8147e-07 18.6565
    endloop
  endfacet
  facet normal 0 1 0
    outer loop
      vertex -20 3.8147e-07 16.9
      vertex -20 3.8147e-07 18.1
      vertex -17.808 3.8147e-07 17.808
    endloop
  endfacet
  facet normal 0 1 0
    outer loop
      vertex -20 3.8147e-07 18.1
      vertex -20 3.8147e-07 16.9
      vertex -22.192 3.8147e-07 17.808
    endloop
  endfacet
  facet normal -0.92388 0 0.382682
    outer loop
      vertex -17.808 3.8147e-07 17.808
      vertex -16.9 5.15 20
      vertex -17.808 5.15 17.808
    endloop
  endfacet
  facet normal -0.92388 0 0.382682
    outer loop
      vertex -16.9 5.15 20
      vertex -17.808 3.8147e-07 17.808
      vertex -16.9 3.8147e-07 20
    endloop
  endfacet
  facet normal 0.382682 0 0.92388
    outer loop
      vertex -22.192 5.15 17.808
      vertex -20 3.8147e-07 16.9
      vertex -20 5.15 16.9
    endloop
  endfacet
  facet normal 0.382682 0 0.92388
    outer loop
      vertex -20 3.8147e-07 16.9
      vertex -22.192 5.15 17.808
      vertex -22.192 3.8147e-07 17.808
    endloop
  endfacet
  facet normal 0.92388 -0 0.382682
    outer loop
      vertex -23.1 3.8147e-07 20
      vertex -22.192 5.15 17.808
      vertex -23.1 5.15 20
    endloop
  endfacet
  facet normal 0.92388 0 0.382682
    outer loop
      vertex -22.192 5.15 17.808
      vertex -23.1 3.8147e-07 20
      vertex -22.192 3.8147e-07 17.808
    endloop
  endfacet
  facet normal -0.382682 0 0.92388
    outer loop
      vertex -20 5.15 16.9
      vertex -17.808 3.8147e-07 17.808
      vertex -17.808 5.15 17.808
    endloop
  endfacet
  facet normal -0.382682 0 0.92388
    outer loop
      vertex -17.808 3.8147e-07 17.808
      vertex -20 5.15 16.9
      vertex -20 3.8147e-07 16.9
    endloop
  endfacet
  facet normal -0.923879 0 -0.382684
    outer loop
      vertex 21.9 -5.15 20
      vertex 21.3435 3.8147e-07 21.3435
      vertex 21.9 3.8147e-07 20
    endloop
  endfacet
  facet normal -0.923879 -0 -0.382684
    outer loop
      vertex 21.3435 3.8147e-07 21.3435
      vertex 21.9 -5.15 20
      vertex 21.3435 -5.15 21.3435
    endloop
  endfacet
  facet normal 0.923879 0 -0.382684
    outer loop
      vertex 18.6565 -5.15 21.3435
      vertex 18.1 3.8147e-07 20
      vertex 18.6565 3.8147e-07 21.3435
    endloop
  endfacet
  facet normal 0.923879 0 -0.382684
    outer loop
      vertex 18.1 3.8147e-07 20
      vertex 18.6565 -5.15 21.3435
      vertex 18.1 -5.15 20
    endloop
  endfacet
  facet normal -0.382684 0 -0.923879
    outer loop
      vertex 20 -5.15 21.9
      vertex 21.3435 3.8147e-07 21.3435
      vertex 21.3435 -5.15 21.3435
    endloop
  endfacet
  facet normal -0.382684 0 -0.923879
    outer loop
      vertex 21.3435 3.8147e-07 21.3435
      vertex 20 -5.15 21.9
      vertex 20 3.8147e-07 21.9
    endloop
  endfacet
  facet normal 0.382684 0 -0.923879
    outer loop
      vertex 18.6565 -5.15 21.3435
      vertex 20 3.8147e-07 21.9
      vertex 20 -5.15 21.9
    endloop
  endfacet
  facet normal 0.382684 0 -0.923879
    outer loop
      vertex 20 3.8147e-07 21.9
      vertex 18.6565 -5.15 21.3435
      vertex 18.6565 3.8147e-07 21.3435
    endloop
  endfacet
  facet normal -0.382684 0 0.923879
    outer loop
      vertex 20 3.8147e-07 18.1
      vertex 21.3435 -5.15 18.6565
      vertex 21.3435 3.8147e-07 18.6565
    endloop
  endfacet
  facet normal -0.382684 0 0.923879
    outer loop
      vertex 21.3435 -5.15 18.6565
      vertex 20 3.8147e-07 18.1
      vertex 20 -5.15 18.1
    endloop
  endfacet
  facet normal 0.923879 -0 0.382684
    outer loop
      vertex 18.1 -5.15 20
      vertex 18.6565 3.8147e-07 18.6565
      vertex 18.1 3.8147e-07 20
    endloop
  endfacet
  facet normal 0.923879 0 0.382684
    outer loop
      vertex 18.6565 3.8147e-07 18.6565
      vertex 18.1 -5.15 20
      vertex 18.6565 -5.15 18.6565
    endloop
  endfacet
  facet normal -0.923879 0 0.382684
    outer loop
      vertex 21.3435 -5.15 18.6565
      vertex 21.9 3.8147e-07 20
      vertex 21.3435 3.8147e-07 18.6565
    endloop
  endfacet
  facet normal -0.923879 0 0.382684
    outer loop
      vertex 21.9 3.8147e-07 20
      vertex 21.3435 -5.15 18.6565
      vertex 21.9 -5.15 20
    endloop
  endfacet
  facet normal 0.382684 0 0.923879
    outer loop
      vertex 18.6565 3.8147e-07 18.6565
      vertex 20 -5.15 18.1
      vertex 20 3.8147e-07 18.1
    endloop
  endfacet
  facet normal 0.382684 0 0.923879
    outer loop
      vertex 20 -5.15 18.1
      vertex 18.6565 3.8147e-07 18.6565
      vertex 18.6565 -5.15 18.6565
    endloop
  endfacet
  facet normal -0.92388 0 -0.382682
    outer loop
      vertex 23.1 3.8147e-07 20
      vertex 22.192 5.15 22.192
      vertex 23.1 5.15 20
    endloop
  endfacet
  facet normal -0.92388 -0 -0.382682
    outer loop
      vertex 22.192 5.15 22.192
      vertex 23.1 3.8147e-07 20
      vertex 22.192 3.8147e-07 22.192
    endloop
  endfacet
  facet normal 0.92388 0 -0.382682
    outer loop
      vertex 17.808 3.8147e-07 22.192
      vertex 16.9 5.15 20
      vertex 17.808 5.15 22.192
    endloop
  endfacet
  facet normal 0.92388 0 -0.382682
    outer loop
      vertex 16.9 5.15 20
      vertex 17.808 3.8147e-07 22.192
      vertex 16.9 3.8147e-07 20
    endloop
  endfacet
  facet normal 0.382682 0 -0.92388
    outer loop
      vertex 17.808 3.8147e-07 22.192
      vertex 20 5.15 23.1
      vertex 20 3.8147e-07 23.1
    endloop
  endfacet
  facet normal 0.382682 0 -0.92388
    outer loop
      vertex 20 5.15 23.1
      vertex 17.808 3.8147e-07 22.192
      vertex 17.808 5.15 22.192
    endloop
  endfacet
  facet normal -0.382682 0 -0.92388
    outer loop
      vertex 20 3.8147e-07 23.1
      vertex 22.192 5.15 22.192
      vertex 22.192 3.8147e-07 22.192
    endloop
  endfacet
  facet normal -0.382682 0 -0.92388
    outer loop
      vertex 22.192 5.15 22.192
      vertex 20 3.8147e-07 23.1
      vertex 20 5.15 23.1
    endloop
  endfacet
  facet normal 0 1 0
    outer loop
      vertex 20 3.8147e-07 21.9
      vertex 20 3.8147e-07 23.1
      vertex 22.192 3.8147e-07 22.192
    endloop
  endfacet
  facet normal 0 1 0
    outer loop
      vertex 20 3.8147e-07 23.1
      vertex 20 3.8147e-07 21.9
      vertex 17.808 3.8147e-07 22.192
    endloop
  endfacet
  facet normal 0 1 0
    outer loop
      vertex 22.192 3.8147e-07 22.192
      vertex 21.3435 3.8147e-07 21.3435
      vertex 20 3.8147e-07 21.9
    endloop
  endfacet
  facet normal 0 1 0
    outer loop
      vertex 23.1 3.8147e-07 20
      vertex 21.3435 3.8147e-07 21.3435
      vertex 22.192 3.8147e-07 22.192
    endloop
  endfacet
  facet normal 0 1 0
    outer loop
      vertex 23.1 3.8147e-07 20
      vertex 21.9 3.8147e-07 20
      vertex 21.3435 3.8147e-07 21.3435
    endloop
  endfacet
  facet normal 0 1 0
    outer loop
      vertex 23.1 3.8147e-07 20
      vertex 21.3435 3.8147e-07 18.6565
      vertex 21.9 3.8147e-07 20
    endloop
  endfacet
  facet normal 0 1 0
    outer loop
      vertex 21.3435 3.8147e-07 18.6565
      vertex 22.192 3.8147e-07 17.808
      vertex 20 3.8147e-07 18.1
    endloop
  endfacet
  facet normal 0 1 -0
    outer loop
      vertex 22.192 3.8147e-07 17.808
      vertex 21.3435 3.8147e-07 18.6565
      vertex 23.1 3.8147e-07 20
    endloop
  endfacet
  facet normal 0 1 -0
    outer loop
      vertex 18.6565 3.8147e-07 21.3435
      vertex 17.808 3.8147e-07 22.192
      vertex 20 3.8147e-07 21.9
    endloop
  endfacet
  facet normal 0 1 -0
    outer loop
      vertex 18.1 3.8147e-07 20
      vertex 17.808 3.8147e-07 22.192
      vertex 18.6565 3.8147e-07 21.3435
    endloop
  endfacet
  facet normal 0 1 0
    outer loop
      vertex 18.1 3.8147e-07 20
      vertex 16.9 3.8147e-07 20
      vertex 17.808 3.8147e-07 22.192
    endloop
  endfacet
  facet normal 0 1 0
    outer loop
      vertex 18.6565 3.8147e-07 18.6565
      vertex 16.9 3.8147e-07 20
      vertex 18.1 3.8147e-07 20
    endloop
  endfacet
  facet normal 0 1 0
    outer loop
      vertex 18.6565 3.8147e-07 18.6565
      vertex 17.808 3.8147e-07 17.808
      vertex 16.9 3.8147e-07 20
    endloop
  endfacet
  facet normal 0 1 0
    outer loop
      vertex 20 3.8147e-07 18.1
      vertex 17.808 3.8147e-07 17.808
      vertex 18.6565 3.8147e-07 18.6565
    endloop
  endfacet
  facet normal 0 1 0
    outer loop
      vertex 20 3.8147e-07 16.9
      vertex 20 3.8147e-07 18.1
      vertex 22.192 3.8147e-07 17.808
    endloop
  endfacet
  facet normal 0 1 0
    outer loop
      vertex 20 3.8147e-07 18.1
      vertex 20 3.8147e-07 16.9
      vertex 17.808 3.8147e-07 17.808
    endloop
  endfacet
  facet normal -0.92388 0 0.382682
    outer loop
      vertex 22.192 3.8147e-07 17.808
      vertex 23.1 5.15 20
      vertex 22.192 5.15 17.808
    endloop
  endfacet
  facet normal -0.92388 0 0.382682
    outer loop
      vertex 23.1 5.15 20
      vertex 22.192 3.8147e-07 17.808
      vertex 23.1 3.8147e-07 20
    endloop
  endfacet
  facet normal 0.382682 0 0.92388
    outer loop
      vertex 17.808 5.15 17.808
      vertex 20 3.8147e-07 16.9
      vertex 20 5.15 16.9
    endloop
  endfacet
  facet normal 0.382682 0 0.92388
    outer loop
      vertex 20 3.8147e-07 16.9
      vertex 17.808 5.15 17.808
      vertex 17.808 3.8147e-07 17.808
    endloop
  endfacet
  facet normal 0.92388 -0 0.382682
    outer loop
      vertex 16.9 3.8147e-07 20
      vertex 17.808 5.15 17.808
      vertex 16.9 5.15 20
    endloop
  endfacet
  facet normal 0.92388 0 0.382682
    outer loop
      vertex 17.808 5.15 17.808
      vertex 16.9 3.8147e-07 20
      vertex 17.808 3.8147e-07 17.808
    endloop
  endfacet
  facet normal -0.382682 0 0.92388
    outer loop
      vertex 20 5.15 16.9
      vertex 22.192 3.8147e-07 17.808
      vertex 22.192 5.15 17.808
    endloop
  endfacet
  facet normal -0.382682 0 0.92388
    outer loop
      vertex 22.192 3.8147e-07 17.808
      vertex 20 5.15 16.9
      vertex 20 3.8147e-07 16.9
    endloop
  endfacet
  facet normal -0.923879 0 -0.382684
    outer loop
      vertex -18.1 -5.15 -20
      vertex -18.6565 3.8147e-07 -18.6565
      vertex -18.1 3.8147e-07 -20
    endloop
  endfacet
  facet normal -0.923879 -0 -0.382684
    outer loop
      vertex -18.6565 3.8147e-07 -18.6565
      vertex -18.1 -5.15 -20
      vertex -18.6565 -5.15 -18.6565
    endloop
  endfacet
  facet normal 0.923879 0 -0.382684
    outer loop
      vertex -21.3435 -5.15 -18.6565
      vertex -21.9 3.8147e-07 -20
      vertex -21.3435 3.8147e-07 -18.6565
    endloop
  endfacet
  facet normal 0.923879 0 -0.382684
    outer loop
      vertex -21.9 3.8147e-07 -20
      vertex -21.3435 -5.15 -18.6565
      vertex -21.9 -5.15 -20
    endloop
  endfacet
  facet normal -0.382684 0 -0.923879
    outer loop
      vertex -20 -5.15 -18.1
      vertex -18.6565 3.8147e-07 -18.6565
      vertex -18.6565 -5.15 -18.6565
    endloop
  endfacet
  facet normal -0.382684 0 -0.923879
    outer loop
      vertex -18.6565 3.8147e-07 -18.6565
      vertex -20 -5.15 -18.1
      vertex -20 3.8147e-07 -18.1
    endloop
  endfacet
  facet normal 0.382684 0 -0.923879
    outer loop
      vertex -21.3435 -5.15 -18.6565
      vertex -20 3.8147e-07 -18.1
      vertex -20 -5.15 -18.1
    endloop
  endfacet
  facet normal 0.382684 0 -0.923879
    outer loop
      vertex -20 3.8147e-07 -18.1
      vertex -21.3435 -5.15 -18.6565
      vertex -21.3435 3.8147e-07 -18.6565
    endloop
  endfacet
  facet normal -0.382684 0 0.923879
    outer loop
      vertex -20 3.8147e-07 -21.9
      vertex -18.6565 -5.15 -21.3435
      vertex -18.6565 3.8147e-07 -21.3435
    endloop
  endfacet
  facet normal -0.382684 0 0.923879
    outer loop
      vertex -18.6565 -5.15 -21.3435
      vertex -20 3.8147e-07 -21.9
      vertex -20 -5.15 -21.9
    endloop
  endfacet
  facet normal 0.923879 -0 0.382684
    outer loop
      vertex -21.9 -5.15 -20
      vertex -21.3435 3.8147e-07 -21.3435
      vertex -21.9 3.8147e-07 -20
    endloop
  endfacet
  facet normal 0.923879 0 0.382684
    outer loop
      vertex -21.3435 3.8147e-07 -21.3435
      vertex -21.9 -5.15 -20
      vertex -21.3435 -5.15 -21.3435
    endloop
  endfacet
  facet normal -0.923879 0 0.382684
    outer loop
      vertex -18.6565 -5.15 -21.3435
      vertex -18.1 3.8147e-07 -20
      vertex -18.6565 3.8147e-07 -21.3435
    endloop
  endfacet
  facet normal -0.923879 0 0.382684
    outer loop
      vertex -18.1 3.8147e-07 -20
      vertex -18.6565 -5.15 -21.3435
      vertex -18.1 -5.15 -20
    endloop
  endfacet
  facet normal 0.382684 0 0.923879
    outer loop
      vertex -21.3435 3.8147e-07 -21.3435
      vertex -20 -5.15 -21.9
      vertex -20 3.8147e-07 -21.9
    endloop
  endfacet
  facet normal 0.382684 0 0.923879
    outer loop
      vertex -20 -5.15 -21.9
      vertex -21.3435 3.8147e-07 -21.3435
      vertex -21.3435 -5.15 -21.3435
    endloop
  endfacet
  facet normal -0.92388 0 -0.382682
    outer loop
      vertex -16.9 3.8147e-07 -20
      vertex -17.808 5.15 -17.808
      vertex -16.9 5.15 -20
    endloop
  endfacet
  facet normal -0.92388 -0 -0.382682
    outer loop
      vertex -17.808 5.15 -17.808
      vertex -16.9 3.8147e-07 -20
      vertex -17.808 3.8147e-07 -17.808
    endloop
  endfacet
  facet normal 0.92388 0 -0.382682
    outer loop
      vertex -22.192 3.8147e-07 -17.808
      vertex -23.1 5.15 -20
      vertex -22.192 5.15 -17.808
    endloop
  endfacet
  facet normal 0.92388 0 -0.382682
    outer loop
      vertex -23.1 5.15 -20
      vertex -22.192 3.8147e-07 -17.808
      vertex -23.1 3.8147e-07 -20
    endloop
  endfacet
  facet normal 0.382683 0 -0.92388
    outer loop
      vertex -22.192 3.8147e-07 -17.808
      vertex -20 5.15 -16.9
      vertex -20 3.8147e-07 -16.9
    endloop
  endfacet
  facet normal 0.382683 0 -0.92388
    outer loop
      vertex -20 5.15 -16.9
      vertex -22.192 3.8147e-07 -17.808
      vertex -22.192 5.15 -17.808
    endloop
  endfacet
  facet normal -0.382683 0 -0.92388
    outer loop
      vertex -20 3.8147e-07 -16.9
      vertex -17.808 5.15 -17.808
      vertex -17.808 3.8147e-07 -17.808
    endloop
  endfacet
  facet normal -0.382683 0 -0.92388
    outer loop
      vertex -17.808 5.15 -17.808
      vertex -20 3.8147e-07 -16.9
      vertex -20 5.15 -16.9
    endloop
  endfacet
  facet normal 0 1 0
    outer loop
      vertex -20 3.8147e-07 -18.1
      vertex -20 3.8147e-07 -16.9
      vertex -17.808 3.8147e-07 -17.808
    endloop
  endfacet
  facet normal 0 1 0
    outer loop
      vertex -20 3.8147e-07 -16.9
      vertex -20 3.8147e-07 -18.1
      vertex -22.192 3.8147e-07 -17.808
    endloop
  endfacet
  facet normal 0 1 0
    outer loop
      vertex -17.808 3.8147e-07 -17.808
      vertex -18.6565 3.8147e-07 -18.6565
      vertex -20 3.8147e-07 -18.1
    endloop
  endfacet
  facet normal 0 1 0
    outer loop
      vertex -16.9 3.8147e-07 -20
      vertex -18.6565 3.8147e-07 -18.6565
      vertex -17.808 3.8147e-07 -17.808
    endloop
  endfacet
  facet normal 0 1 0
    outer loop
      vertex -16.9 3.8147e-07 -20
      vertex -18.1 3.8147e-07 -20
      vertex -18.6565 3.8147e-07 -18.6565
    endloop
  endfacet
  facet normal 0 1 0
    outer loop
      vertex -16.9 3.8147e-07 -20
      vertex -18.6565 3.8147e-07 -21.3435
      vertex -18.1 3.8147e-07 -20
    endloop
  endfacet
  facet normal 0 1 0
    outer loop
      vertex -18.6565 3.8147e-07 -21.3435
      vertex -17.808 3.8147e-07 -22.192
      vertex -20 3.8147e-07 -21.9
    endloop
  endfacet
  facet normal 0 1 -0
    outer loop
      vertex -17.808 3.8147e-07 -22.192
      vertex -18.6565 3.8147e-07 -21.3435
      vertex -16.9 3.8147e-07 -20
    endloop
  endfacet
  facet normal 0 1 -0
    outer loop
      vertex -21.3435 3.8147e-07 -18.6565
      vertex -22.192 3.8147e-07 -17.808
      vertex -20 3.8147e-07 -18.1
    endloop
  endfacet
  facet normal 0 1 -0
    outer loop
      vertex -21.9 3.8147e-07 -20
      vertex -22.192 3.8147e-07 -17.808
      vertex -21.3435 3.8147e-07 -18.6565
    endloop
  endfacet
  facet normal 0 1 0
    outer loop
      vertex -21.9 3.8147e-07 -20
      vertex -23.1 3.8147e-07 -20
      vertex -22.192 3.8147e-07 -17.808
    endloop
  endfacet
  facet normal 0 1 0
    outer loop
      vertex -21.3435 3.8147e-07 -21.3435
      vertex -23.1 3.8147e-07 -20
      vertex -21.9 3.8147e-07 -20
    endloop
  endfacet
  facet normal 0 1 0
    outer loop
      vertex -21.3435 3.8147e-07 -21.3435
      vertex -22.192 3.8147e-07 -22.192
      vertex -23.1 3.8147e-07 -20
    endloop
  endfacet
  facet normal 0 1 0
    outer loop
      vertex -20 3.8147e-07 -21.9
      vertex -22.192 3.8147e-07 -22.192
      vertex -21.3435 3.8147e-07 -21.3435
    endloop
  endfacet
  facet normal 0 1 0
    outer loop
      vertex -20 3.8147e-07 -23.1
      vertex -20 3.8147e-07 -21.9
      vertex -17.808 3.8147e-07 -22.192
    endloop
  endfacet
  facet normal 0 1 0
    outer loop
      vertex -20 3.8147e-07 -21.9
      vertex -20 3.8147e-07 -23.1
      vertex -22.192 3.8147e-07 -22.192
    endloop
  endfacet
  facet normal -0.92388 0 0.382683
    outer loop
      vertex -17.808 3.8147e-07 -22.192
      vertex -16.9 5.15 -20
      vertex -17.808 5.15 -22.192
    endloop
  endfacet
  facet normal -0.92388 0 0.382683
    outer loop
      vertex -16.9 5.15 -20
      vertex -17.808 3.8147e-07 -22.192
      vertex -16.9 3.8147e-07 -20
    endloop
  endfacet
  facet normal 0.382683 0 0.92388
    outer loop
      vertex -22.192 5.15 -22.192
      vertex -20 3.8147e-07 -23.1
      vertex -20 5.15 -23.1
    endloop
  endfacet
  facet normal 0.382683 0 0.92388
    outer loop
      vertex -20 3.8147e-07 -23.1
      vertex -22.192 5.15 -22.192
      vertex -22.192 3.8147e-07 -22.192
    endloop
  endfacet
  facet normal 0.92388 -0 0.382683
    outer loop
      vertex -23.1 3.8147e-07 -20
      vertex -22.192 5.15 -22.192
      vertex -23.1 5.15 -20
    endloop
  endfacet
  facet normal 0.92388 0 0.382683
    outer loop
      vertex -22.192 5.15 -22.192
      vertex -23.1 3.8147e-07 -20
      vertex -22.192 3.8147e-07 -22.192
    endloop
  endfacet
  facet normal -0.382683 0 0.92388
    outer loop
      vertex -20 5.15 -23.1
      vertex -17.808 3.8147e-07 -22.192
      vertex -17.808 5.15 -22.192
    endloop
  endfacet
  facet normal -0.382683 0 0.92388
    outer loop
      vertex -17.808 3.8147e-07 -22.192
      vertex -20 5.15 -23.1
      vertex -20 3.8147e-07 -23.1
    endloop
  endfacet
  facet normal -0.923879 0 -0.382684
    outer loop
      vertex 21.9 -5.15 -20
      vertex 21.3435 3.8147e-07 -18.6565
      vertex 21.9 3.8147e-07 -20
    endloop
  endfacet
  facet normal -0.923879 -0 -0.382684
    outer loop
      vertex 21.3435 3.8147e-07 -18.6565
      vertex 21.9 -5.15 -20
      vertex 21.3435 -5.15 -18.6565
    endloop
  endfacet
  facet normal 0.923879 0 -0.382684
    outer loop
      vertex 18.6565 -5.15 -18.6565
      vertex 18.1 3.8147e-07 -20
      vertex 18.6565 3.8147e-07 -18.6565
    endloop
  endfacet
  facet normal 0.923879 0 -0.382684
    outer loop
      vertex 18.1 3.8147e-07 -20
      vertex 18.6565 -5.15 -18.6565
      vertex 18.1 -5.15 -20
    endloop
  endfacet
  facet normal -0.382684 0 -0.923879
    outer loop
      vertex 20 -5.15 -18.1
      vertex 21.3435 3.8147e-07 -18.6565
      vertex 21.3435 -5.15 -18.6565
    endloop
  endfacet
  facet normal -0.382684 0 -0.923879
    outer loop
      vertex 21.3435 3.8147e-07 -18.6565
      vertex 20 -5.15 -18.1
      vertex 20 3.8147e-07 -18.1
    endloop
  endfacet
  facet normal 0.382684 0 -0.923879
    outer loop
      vertex 18.6565 -5.15 -18.6565
      vertex 20 3.8147e-07 -18.1
      vertex 20 -5.15 -18.1
    endloop
  endfacet
  facet normal 0.382684 0 -0.923879
    outer loop
      vertex 20 3.8147e-07 -18.1
      vertex 18.6565 -5.15 -18.6565
      vertex 18.6565 3.8147e-07 -18.6565
    endloop
  endfacet
  facet normal -0.382684 0 0.923879
    outer loop
      vertex 20 3.8147e-07 -21.9
      vertex 21.3435 -5.15 -21.3435
      vertex 21.3435 3.8147e-07 -21.3435
    endloop
  endfacet
  facet normal -0.382684 0 0.923879
    outer loop
      vertex 21.3435 -5.15 -21.3435
      vertex 20 3.8147e-07 -21.9
      vertex 20 -5.15 -21.9
    endloop
  endfacet
  facet normal 0.923879 -0 0.382684
    outer loop
      vertex 18.1 -5.15 -20
      vertex 18.6565 3.8147e-07 -21.3435
      vertex 18.1 3.8147e-07 -20
    endloop
  endfacet
  facet normal 0.923879 0 0.382684
    outer loop
      vertex 18.6565 3.8147e-07 -21.3435
      vertex 18.1 -5.15 -20
      vertex 18.6565 -5.15 -21.3435
    endloop
  endfacet
  facet normal -0.923879 0 0.382684
    outer loop
      vertex 21.3435 -5.15 -21.3435
      vertex 21.9 3.8147e-07 -20
      vertex 21.3435 3.8147e-07 -21.3435
    endloop
  endfacet
  facet normal -0.923879 0 0.382684
    outer loop
      vertex 21.9 3.8147e-07 -20
      vertex 21.3435 -5.15 -21.3435
      vertex 21.9 -5.15 -20
    endloop
  endfacet
  facet normal 0.382684 0 0.923879
    outer loop
      vertex 18.6565 3.8147e-07 -21.3435
      vertex 20 -5.15 -21.9
      vertex 20 3.8147e-07 -21.9
    endloop
  endfacet
  facet normal 0.382684 0 0.923879
    outer loop
      vertex 20 -5.15 -21.9
      vertex 18.6565 3.8147e-07 -21.3435
      vertex 18.6565 -5.15 -21.3435
    endloop
  endfacet
  facet normal -0.92388 0 -0.382682
    outer loop
      vertex 23.1 3.8147e-07 -20
      vertex 22.192 5.15 -17.808
      vertex 23.1 5.15 -20
    endloop
  endfacet
  facet normal -0.92388 -0 -0.382682
    outer loop
      vertex 22.192 5.15 -17.808
      vertex 23.1 3.8147e-07 -20
      vertex 22.192 3.8147e-07 -17.808
    endloop
  endfacet
  facet normal 0.92388 0 -0.382682
    outer loop
      vertex 17.808 3.8147e-07 -17.808
      vertex 16.9 5.15 -20
      vertex 17.808 5.15 -17.808
    endloop
  endfacet
  facet normal 0.92388 0 -0.382682
    outer loop
      vertex 16.9 5.15 -20
      vertex 17.808 3.8147e-07 -17.808
      vertex 16.9 3.8147e-07 -20
    endloop
  endfacet
  facet normal 0.382683 0 -0.92388
    outer loop
      vertex 17.808 3.8147e-07 -17.808
      vertex 20 5.15 -16.9
      vertex 20 3.8147e-07 -16.9
    endloop
  endfacet
  facet normal 0.382683 0 -0.92388
    outer loop
      vertex 20 5.15 -16.9
      vertex 17.808 3.8147e-07 -17.808
      vertex 17.808 5.15 -17.808
    endloop
  endfacet
  facet normal -0.382683 0 -0.92388
    outer loop
      vertex 20 3.8147e-07 -16.9
      vertex 22.192 5.15 -17.808
      vertex 22.192 3.8147e-07 -17.808
    endloop
  endfacet
  facet normal -0.382683 0 -0.92388
    outer loop
      vertex 22.192 5.15 -17.808
      vertex 20 3.8147e-07 -16.9
      vertex 20 5.15 -16.9
    endloop
  endfacet
  facet normal 0 1 0
    outer loop
      vertex 20 3.8147e-07 -18.1
      vertex 20 3.8147e-07 -16.9
      vertex 22.192 3.8147e-07 -17.808
    endloop
  endfacet
  facet normal 0 1 0
    outer loop
      vertex 20 3.8147e-07 -16.9
      vertex 20 3.8147e-07 -18.1
      vertex 17.808 3.8147e-07 -17.808
    endloop
  endfacet
  facet normal 0 1 0
    outer loop
      vertex 22.192 3.8147e-07 -17.808
      vertex 21.3435 3.8147e-07 -18.6565
      vertex 20 3.8147e-07 -18.1
    endloop
  endfacet
  facet normal 0 1 0
    outer loop
      vertex 23.1 3.8147e-07 -20
      vertex 21.3435 3.8147e-07 -18.6565
      vertex 22.192 3.8147e-07 -17.808
    endloop
  endfacet
  facet normal 0 1 0
    outer loop
      vertex 23.1 3.8147e-07 -20
      vertex 21.9 3.8147e-07 -20
      vertex 21.3435 3.8147e-07 -18.6565
    endloop
  endfacet
  facet normal 0 1 0
    outer loop
      vertex 23.1 3.8147e-07 -20
      vertex 21.3435 3.8147e-07 -21.3435
      vertex 21.9 3.8147e-07 -20
    endloop
  endfacet
  facet normal 0 1 0
    outer loop
      vertex 21.3435 3.8147e-07 -21.3435
      vertex 22.192 3.8147e-07 -22.192
      vertex 20 3.8147e-07 -21.9
    endloop
  endfacet
  facet normal 0 1 -0
    outer loop
      vertex 22.192 3.8147e-07 -22.192
      vertex 21.3435 3.8147e-07 -21.3435
      vertex 23.1 3.8147e-07 -20
    endloop
  endfacet
  facet normal 0 1 -0
    outer loop
      vertex 18.6565 3.8147e-07 -18.6565
      vertex 17.808 3.8147e-07 -17.808
      vertex 20 3.8147e-07 -18.1
    endloop
  endfacet
  facet normal 0 1 -0
    outer loop
      vertex 18.1 3.8147e-07 -20
      vertex 17.808 3.8147e-07 -17.808
      vertex 18.6565 3.8147e-07 -18.6565
    endloop
  endfacet
  facet normal 0 1 0
    outer loop
      vertex 18.1 3.8147e-07 -20
      vertex 16.9 3.8147e-07 -20
      vertex 17.808 3.8147e-07 -17.808
    endloop
  endfacet
  facet normal 0 1 0
    outer loop
      vertex 18.6565 3.8147e-07 -21.3435
      vertex 16.9 3.8147e-07 -20
      vertex 18.1 3.8147e-07 -20
    endloop
  endfacet
  facet normal 0 1 0
    outer loop
      vertex 18.6565 3.8147e-07 -21.3435
      vertex 17.808 3.8147e-07 -22.192
      vertex 16.9 3.8147e-07 -20
    endloop
  endfacet
  facet normal 0 1 0
    outer loop
      vertex 20 3.8147e-07 -21.9
      vertex 17.808 3.8147e-07 -22.192
      vertex 18.6565 3.8147e-07 -21.3435
    endloop
  endfacet
  facet normal 0 1 0
    outer loop
      vertex 20 3.8147e-07 -23.1
      vertex 20 3.8147e-07 -21.9
      vertex 22.192 3.8147e-07 -22.192
    endloop
  endfacet
  facet normal 0 1 0
    outer loop
      vertex 20 3.8147e-07 -21.9
      vertex 20 3.8147e-07 -23.1
      vertex 17.808 3.8147e-07 -22.192
    endloop
  endfacet
  facet normal -0.92388 0 0.382683
    outer loop
      vertex 22.192 3.8147e-07 -22.192
      vertex 23.1 5.15 -20
      vertex 22.192 5.15 -22.192
    endloop
  endfacet
  facet normal -0.92388 0 0.382683
    outer loop
      vertex 23.1 5.15 -20
      vertex 22.192 3.8147e-07 -22.192
      vertex 23.1 3.8147e-07 -20
    endloop
  endfacet
  facet normal 0.382683 0 0.92388
    outer loop
      vertex 17.808 5.15 -22.192
      vertex 20 3.8147e-07 -23.1
      vertex 20 5.15 -23.1
    endloop
  endfacet
  facet normal 0.382683 0 0.92388
    outer loop
      vertex 20 3.8147e-07 -23.1
      vertex 17.808 5.15 -22.192
      vertex 17.808 3.8147e-07 -22.192
    endloop
  endfacet
  facet normal 0.92388 -0 0.382683
    outer loop
      vertex 16.9 3.8147e-07 -20
      vertex 17.808 5.15 -22.192
      vertex 16.9 5.15 -20
    endloop
  endfacet
  facet normal 0.92388 0 0.382683
    outer loop
      vertex 17.808 5.15 -22.192
      vertex 16.9 3.8147e-07 -20
      vertex 17.808 3.8147e-07 -22.192
    endloop
  endfacet
  facet normal -0.382683 0 0.92388
    outer loop
      vertex 20 5.15 -23.1
      vertex 22.192 3.8147e-07 -22.192
      vertex 22.192 5.15 -22.192
    endloop
  endfacet
  facet normal -0.382683 0 0.92388
    outer loop
      vertex 22.192 3.8147e-07 -22.192
      vertex 20 5.15 -23.1
      vertex 20 3.8147e-07 -23.1
    endloop
  endfacet
  facet normal -1 0 0
    outer loop
      vertex -24.95 -5.15 -24.95
      vertex -24.95 5.15 24.95
      vertex -24.95 5.15 -24.95
    endloop
  endfacet
  facet normal -1 -0 0
    outer loop
      vertex -24.95 5.15 24.95
      vertex -24.95 -5.15 -24.95
      vertex -24.95 -5.15 24.95
    endloop
  endfacet
  facet normal -0 0 1
    outer loop
      vertex -24.95 5.15 24.95
      vertex 24.95 -5.15 24.95
      vertex 24.95 5.15 24.95
    endloop
  endfacet
  facet normal 0 0 1
    outer loop
      vertex 24.95 -5.15 24.95
      vertex -24.95 5.15 24.95
      vertex -24.95 -5.15 24.95
    endloop
  endfacet
  facet normal 1 -0 0
    outer loop
      vertex 24.95 -5.15 24.95
      vertex 24.95 5.15 -24.95
      vertex 24.95 5.15 24.95
    endloop
  endfacet
  facet normal 1 0 0
    outer loop
      vertex 24.95 5.15 -24.95
      vertex 24.95 -5.15 24.95
      vertex 24.95 -5.15 -24.95
    endloop
  endfacet
  facet normal 0 1 0
    outer loop
      vertex -17.808 5.15 -17.808
      vertex -17.808 5.15 17.808
      vertex 17.808 5.15 -17.808
    endloop
  endfacet
  facet normal 0 1 0
    outer loop
      vertex -17.808 5.15 17.808
      vertex -17.808 5.15 -17.808
      vertex -20 5.15 -16.9
    endloop
  endfacet
  facet normal 0 1 -0
    outer loop
      vertex 16.9 5.15 -20
      vertex -17.808 5.15 -17.808
      vertex 17.808 5.15 -17.808
    endloop
  endfacet
  facet normal 0 1 0
    outer loop
      vertex 16.9 5.15 -20
      vertex -16.9 5.15 -20
      vertex -17.808 5.15 -17.808
    endloop
  endfacet
  facet normal 0 1 0
    outer loop
      vertex 17.808 5.15 -22.192
      vertex -16.9 5.15 -20
      vertex 16.9 5.15 -20
    endloop
  endfacet
  facet normal 0 1 0
    outer loop
      vertex 17.808 5.15 -22.192
      vertex -17.808 5.15 -22.192
      vertex -16.9 5.15 -20
    endloop
  endfacet
  facet normal 0 1 0
    outer loop
      vertex 20 5.15 -23.1
      vertex -17.808 5.15 -22.192
      vertex 17.808 5.15 -22.192
    endloop
  endfacet
  facet normal 0 1 0
    outer loop
      vertex -17.808 5.15 -22.192
      vertex 20 5.15 -23.1
      vertex -20 5.15 -23.1
    endloop
  endfacet
  facet normal 0 1 -0
    outer loop
      vertex 17.808 5.15 22.192
      vertex -20 5.15 23.1
      vertex 20 5.15 23.1
    endloop
  endfacet
  facet normal 0 1 0
    outer loop
      vertex 17.808 5.15 22.192
      vertex -17.808 5.15 22.192
      vertex -20 5.15 23.1
    endloop
  endfacet
  facet normal 0 1 -0
    outer loop
      vertex 16.9 5.15 20
      vertex -17.808 5.15 22.192
      vertex 17.808 5.15 22.192
    endloop
  endfacet
  facet normal 0 1 0
    outer loop
      vertex 16.9 5.15 20
      vertex -16.9 5.15 20
      vertex -17.808 5.15 22.192
    endloop
  endfacet
  facet normal 0 1 0
    outer loop
      vertex 17.808 5.15 17.808
      vertex -16.9 5.15 20
      vertex 16.9 5.15 20
    endloop
  endfacet
  facet normal 0 1 0
    outer loop
      vertex 17.808 5.15 17.808
      vertex -17.808 5.15 17.808
      vertex -16.9 5.15 20
    endloop
  endfacet
  facet normal 0 1 -0
    outer loop
      vertex 20 5.15 -16.9
      vertex 17.808 5.15 17.808
      vertex 20 5.15 16.9
    endloop
  endfacet
  facet normal 0 1 0
    outer loop
      vertex 17.808 5.15 -17.808
      vertex 17.808 5.15 17.808
      vertex 20 5.15 -16.9
    endloop
  endfacet
  facet normal 0 1 0
    outer loop
      vertex 24.95 5.15 24.95
      vertex 20 5.15 23.1
      vertex -24.95 5.15 24.95
    endloop
  endfacet
  facet normal 0 1 0
    outer loop
      vertex 24.95 5.15 24.95
      vertex 22.192 5.15 22.192
      vertex 20 5.15 23.1
    endloop
  endfacet
  facet normal 0 1 0
    outer loop
      vertex 24.95 5.15 24.95
      vertex 23.1 5.15 20
      vertex 22.192 5.15 22.192
    endloop
  endfacet
  facet normal 0 1 0
    outer loop
      vertex 17.808 5.15 17.808
      vertex 17.808 5.15 -17.808
      vertex -17.808 5.15 17.808
    endloop
  endfacet
  facet normal 0 1 0
    outer loop
      vertex 22.192 5.15 17.808
      vertex 20 5.15 -16.9
      vertex 20 5.15 16.9
    endloop
  endfacet
  facet normal 0 1 0
    outer loop
      vertex 22.192 5.15 -17.808
      vertex 22.192 5.15 17.808
      vertex 23.1 5.15 20
    endloop
  endfacet
  facet normal 0 1 0
    outer loop
      vertex 23.1 5.15 -20
      vertex 23.1 5.15 20
      vertex 24.95 5.15 24.95
    endloop
  endfacet
  facet normal 0 1 0
    outer loop
      vertex 22.192 5.15 17.808
      vertex 22.192 5.15 -17.808
      vertex 20 5.15 -16.9
    endloop
  endfacet
  facet normal 0 1 0
    outer loop
      vertex 23.1 5.15 20
      vertex 23.1 5.15 -20
      vertex 22.192 5.15 -17.808
    endloop
  endfacet
  facet normal 0 1 0
    outer loop
      vertex 20 5.15 -23.1
      vertex 24.95 5.15 -24.95
      vertex -20 5.15 -23.1
    endloop
  endfacet
  facet normal 0 1 0
    outer loop
      vertex 22.192 5.15 -22.192
      vertex 24.95 5.15 -24.95
      vertex 20 5.15 -23.1
    endloop
  endfacet
  facet normal 0 1 0
    outer loop
      vertex 23.1 5.15 -20
      vertex 24.95 5.15 -24.95
      vertex 22.192 5.15 -22.192
    endloop
  endfacet
  facet normal 0 1 -0
    outer loop
      vertex 24.95 5.15 -24.95
      vertex 23.1 5.15 -20
      vertex 24.95 5.15 24.95
    endloop
  endfacet
  facet normal 0 1 -0
    outer loop
      vertex -20 5.15 23.1
      vertex -24.95 5.15 24.95
      vertex 20 5.15 23.1
    endloop
  endfacet
  facet normal 0 1 -0
    outer loop
      vertex -22.192 5.15 22.192
      vertex -24.95 5.15 24.95
      vertex -20 5.15 23.1
    endloop
  endfacet
  facet normal 0 1 -0
    outer loop
      vertex -23.1 5.15 20
      vertex -24.95 5.15 24.95
      vertex -22.192 5.15 22.192
    endloop
  endfacet
  facet normal 0 1 0
    outer loop
      vertex -17.808 5.15 17.808
      vertex -20 5.15 -16.9
      vertex -20 5.15 16.9
    endloop
  endfacet
  facet normal 0 1 0
    outer loop
      vertex -20 5.15 16.9
      vertex -20 5.15 -16.9
      vertex -22.192 5.15 17.808
    endloop
  endfacet
  facet normal 0 1 0
    outer loop
      vertex -22.192 5.15 -17.808
      vertex -22.192 5.15 17.808
      vertex -20 5.15 -16.9
    endloop
  endfacet
  facet normal 0 1 0
    outer loop
      vertex -22.192 5.15 17.808
      vertex -22.192 5.15 -17.808
      vertex -23.1 5.15 20
    endloop
  endfacet
  facet normal 0 1 0
    outer loop
      vertex -23.1 5.15 -20
      vertex -23.1 5.15 20
      vertex -22.192 5.15 -17.808
    endloop
  endfacet
  facet normal 0 1 0
    outer loop
      vertex -23.1 5.15 20
      vertex -23.1 5.15 -20
      vertex -24.95 5.15 24.95
    endloop
  endfacet
  facet normal 0 1 0
    outer loop
      vertex -23.1 5.15 -20
      vertex -24.95 5.15 -24.95
      vertex -24.95 5.15 24.95
    endloop
  endfacet
  facet normal 0 1 0
    outer loop
      vertex -22.192 5.15 -22.192
      vertex -24.95 5.15 -24.95
      vertex -23.1 5.15 -20
    endloop
  endfacet
  facet normal 0 1 0
    outer loop
      vertex -20 5.15 -23.1
      vertex -24.95 5.15 -24.95
      vertex -22.192 5.15 -22.192
    endloop
  endfacet
  facet normal 0 1 0
    outer loop
      vertex -24.95 5.15 -24.95
      vertex -20 5.15 -23.1
      vertex 24.95 5.15 -24.95
    endloop
  endfacet
  facet normal 0 0 -1
    outer loop
      vertex -24.95 -5.15 -24.95
      vertex 24.95 5.15 -24.95
      vertex 24.95 -5.15 -24.95
    endloop
  endfacet
  facet normal -0 0 -1
    outer loop
      vertex 24.95 5.15 -24.95
      vertex -24.95 -5.15 -24.95
      vertex -24.95 5.15 -24.95
    endloop
  endfacet
  facet normal 0 -1 0
    outer loop
      vertex 18.6565 -5.15 -18.6565
      vertex 18.6565 -5.15 18.6565
      vertex -18.6565 -5.15 -18.6565
    endloop
  endfacet
  facet normal 0 -1 0
    outer loop
      vertex 18.6565 -5.15 18.6565
      vertex 18.6565 -5.15 -18.6565
      vertex 20 -5.15 -18.1
    endloop
  endfacet
  facet normal 0 -1 0
    outer loop
      vertex -18.1 -5.15 -20
      vertex 18.6565 -5.15 -18.6565
      vertex -18.6565 -5.15 -18.6565
    endloop
  endfacet
  facet normal 0 -1 0
    outer loop
      vertex -18.1 -5.15 -20
      vertex 18.1 -5.15 -20
      vertex 18.6565 -5.15 -18.6565
    endloop
  endfacet
  facet normal 0 -1 0
    outer loop
      vertex -18.6565 -5.15 -21.3435
      vertex 18.1 -5.15 -20
      vertex -18.1 -5.15 -20
    endloop
  endfacet
  facet normal 0 -1 0
    outer loop
      vertex -18.6565 -5.15 -21.3435
      vertex 18.6565 -5.15 -21.3435
      vertex 18.1 -5.15 -20
    endloop
  endfacet
  facet normal 0 -1 0
    outer loop
      vertex -24.95 -5.15 -24.95
      vertex -18.6565 -5.15 -21.3435
      vertex -20 -5.15 -21.9
    endloop
  endfacet
  facet normal 0 -1 -0
    outer loop
      vertex -18.6565 -5.15 -21.3435
      vertex -24.95 -5.15 -24.95
      vertex 18.6565 -5.15 -21.3435
    endloop
  endfacet
  facet normal 0 -1 0
    outer loop
      vertex 18.6565 -5.15 21.3435
      vertex 24.95 -5.15 24.95
      vertex -18.6565 -5.15 21.3435
    endloop
  endfacet
  facet normal 0 -1 0
    outer loop
      vertex 24.95 -5.15 24.95
      vertex 18.6565 -5.15 21.3435
      vertex 20 -5.15 21.9
    endloop
  endfacet
  facet normal 0 -1 0
    outer loop
      vertex -18.1 -5.15 20
      vertex 18.6565 -5.15 21.3435
      vertex -18.6565 -5.15 21.3435
    endloop
  endfacet
  facet normal 0 -1 0
    outer loop
      vertex -18.1 -5.15 20
      vertex 18.1 -5.15 20
      vertex 18.6565 -5.15 21.3435
    endloop
  endfacet
  facet normal 0 -1 0
    outer loop
      vertex -18.6565 -5.15 18.6565
      vertex 18.1 -5.15 20
      vertex -18.1 -5.15 20
    endloop
  endfacet
  facet normal 0 -1 0
    outer loop
      vertex -18.6565 -5.15 18.6565
      vertex 18.6565 -5.15 18.6565
      vertex 18.1 -5.15 20
    endloop
  endfacet
  facet normal 0 -1 0
    outer loop
      vertex -20 -5.15 -18.1
      vertex -18.6565 -5.15 18.6565
      vertex -20 -5.15 18.1
    endloop
  endfacet
  facet normal 0 -1 0
    outer loop
      vertex -18.6565 -5.15 -18.6565
      vertex -18.6565 -5.15 18.6565
      vertex -20 -5.15 -18.1
    endloop
  endfacet
  facet normal 0 -1 0
    outer loop
      vertex -18.6565 -5.15 21.3435
      vertex -24.95 -5.15 24.95
      vertex -20 -5.15 21.9
    endloop
  endfacet
  facet normal 0 -1 0
    outer loop
      vertex -24.95 -5.15 24.95
      vertex -21.3435 -5.15 21.3435
      vertex -20 -5.15 21.9
    endloop
  endfacet
  facet normal 0 -1 0
    outer loop
      vertex -24.95 -5.15 24.95
      vertex -21.9 -5.15 20
      vertex -21.3435 -5.15 21.3435
    endloop
  endfacet
  facet normal 0 -1 0
    outer loop
      vertex -24.95 -5.15 24.95
      vertex -21.3435 -5.15 18.6565
      vertex -21.9 -5.15 20
    endloop
  endfacet
  facet normal 0 -1 0
    outer loop
      vertex -18.6565 -5.15 18.6565
      vertex -18.6565 -5.15 -18.6565
      vertex 18.6565 -5.15 18.6565
    endloop
  endfacet
  facet normal 0 -1 0
    outer loop
      vertex -21.3435 -5.15 18.6565
      vertex -20 -5.15 -18.1
      vertex -20 -5.15 18.1
    endloop
  endfacet
  facet normal 0 -1 0
    outer loop
      vertex -21.3435 -5.15 -18.6565
      vertex -21.3435 -5.15 18.6565
      vertex -24.95 -5.15 24.95
    endloop
  endfacet
  facet normal 0 -1 0
    outer loop
      vertex -21.3435 -5.15 18.6565
      vertex -21.3435 -5.15 -18.6565
      vertex -20 -5.15 -18.1
    endloop
  endfacet
  facet normal 0 -1 0
    outer loop
      vertex -24.95 -5.15 -24.95
      vertex -21.3435 -5.15 -18.6565
      vertex -24.95 -5.15 24.95
    endloop
  endfacet
  facet normal 0 -1 0
    outer loop
      vertex 24.95 -5.15 -24.95
      vertex 18.6565 -5.15 -21.3435
      vertex -24.95 -5.15 -24.95
    endloop
  endfacet
  facet normal 0 -1 -0
    outer loop
      vertex -21.3435 -5.15 -21.3435
      vertex -24.95 -5.15 -24.95
      vertex -20 -5.15 -21.9
    endloop
  endfacet
  facet normal 0 -1 -0
    outer loop
      vertex -21.9 -5.15 -20
      vertex -24.95 -5.15 -24.95
      vertex -21.3435 -5.15 -21.3435
    endloop
  endfacet
  facet normal 0 -1 0
    outer loop
      vertex -21.3435 -5.15 -18.6565
      vertex -24.95 -5.15 -24.95
      vertex -21.9 -5.15 -20
    endloop
  endfacet
  facet normal 0 -1 0
    outer loop
      vertex -24.95 -5.15 24.95
      vertex -18.6565 -5.15 21.3435
      vertex 24.95 -5.15 24.95
    endloop
  endfacet
  facet normal 0 -1 0
    outer loop
      vertex 21.3435 -5.15 21.3435
      vertex 24.95 -5.15 24.95
      vertex 20 -5.15 21.9
    endloop
  endfacet
  facet normal 0 -1 0
    outer loop
      vertex 21.9 -5.15 20
      vertex 24.95 -5.15 24.95
      vertex 21.3435 -5.15 21.3435
    endloop
  endfacet
  facet normal 0 -1 0
    outer loop
      vertex 21.3435 -5.15 18.6565
      vertex 24.95 -5.15 24.95
      vertex 21.9 -5.15 20
    endloop
  endfacet
  facet normal 0 -1 0
    outer loop
      vertex 18.6565 -5.15 18.6565
      vertex 20 -5.15 -18.1
      vertex 20 -5.15 18.1
    endloop
  endfacet
  facet normal 0 -1 0
    outer loop
      vertex 20 -5.15 18.1
      vertex 20 -5.15 -18.1
      vertex 21.3435 -5.15 18.6565
    endloop
  endfacet
  facet normal 0 -1 0
    outer loop
      vertex 21.3435 -5.15 -18.6565
      vertex 21.3435 -5.15 18.6565
      vertex 20 -5.15 -18.1
    endloop
  endfacet
  facet normal 0 -1 0
    outer loop
      vertex 21.3435 -5.15 18.6565
      vertex 21.3435 -5.15 -18.6565
      vertex 24.95 -5.15 24.95
    endloop
  endfacet
  facet normal 0 -1 0
    outer loop
      vertex 24.95 -5.15 -24.95
      vertex 21.3435 -5.15 -18.6565
      vertex 21.9 -5.15 -20
    endloop
  endfacet
  facet normal 0 -1 0
    outer loop
      vertex 21.3435 -5.15 -18.6565
      vertex 24.95 -5.15 -24.95
      vertex 24.95 -5.15 24.95
    endloop
  endfacet
  facet normal 0 -1 0
    outer loop
      vertex 21.3435 -5.15 -21.3435
      vertex 24.95 -5.15 -24.95
      vertex 21.9 -5.15 -20
    endloop
  endfacet
  facet normal 0 -1 0
    outer loop
      vertex 20 -5.15 -21.9
      vertex 24.95 -5.15 -24.95
      vertex 21.3435 -5.15 -21.3435
    endloop
  endfacet
  facet normal 0 -1 0
    outer loop
      vertex 18.6565 -5.15 -21.3435
      vertex 24.95 -5.15 -24.95
      vertex 20 -5.15 -21.9
    endloop
  endfacet
endsolid OpenSCAD_Model
