solid OpenSCAD_Model
  facet normal -1 0 0
    outer loop
      vertex -37.1 -38.9 -15.5
      vertex -37.1 38.9 15.5
      vertex -37.1 38.9 -15.5
    endloop
  endfacet
  facet normal -1 -0 0
    outer loop
      vertex -37.1 38.9 15.5
      vertex -37.1 -38.9 -15.5
      vertex -37.1 -38.9 15.5
    endloop
  endfacet
  facet normal 0 0 1
    outer loop
      vertex 37.1 38.9 15.5
      vertex 34.9 0 15.5
      vertex 37.1 -38.9 15.5
    endloop
  endfacet
  facet normal 0 0 1
    outer loop
      vertex 37.1 38.9 15.5
      vertex 34.1238 1.87383 15.5
      vertex 34.9 0 15.5
    endloop
  endfacet
  facet normal 0 0 1
    outer loop
      vertex 37.1 38.9 15.5
      vertex 32.25 2.65 15.5
      vertex 34.1238 1.87383 15.5
    endloop
  endfacet
  facet normal 0 0 1
    outer loop
      vertex 37.1 38.9 15.5
      vertex 30.3762 1.87383 15.5
      vertex 32.25 2.65 15.5
    endloop
  endfacet
  facet normal 0 0 1
    outer loop
      vertex -30.3762 1.87383 15.5
      vertex 30.3762 1.87383 15.5
      vertex 37.1 38.9 15.5
    endloop
  endfacet
  facet normal 0 0 1
    outer loop
      vertex 30.3762 1.87383 15.5
      vertex -30.3762 1.87383 15.5
      vertex 29.6 0 15.5
    endloop
  endfacet
  facet normal 0 0 1
    outer loop
      vertex 29.6 0 15.5
      vertex -30.3762 1.87383 15.5
      vertex -29.6 0 15.5
    endloop
  endfacet
  facet normal -0 0 1
    outer loop
      vertex -37.1 38.9 15.5
      vertex -30.3762 1.87383 15.5
      vertex 37.1 38.9 15.5
    endloop
  endfacet
  facet normal 0 0 1
    outer loop
      vertex -30.3762 1.87383 15.5
      vertex -37.1 38.9 15.5
      vertex -32.25 2.65 15.5
    endloop
  endfacet
  facet normal 0 0 1
    outer loop
      vertex -34.1238 1.87383 15.5
      vertex -37.1 38.9 15.5
      vertex -34.9 0 15.5
    endloop
  endfacet
  facet normal 0 0 1
    outer loop
      vertex -32.25 2.65 15.5
      vertex -37.1 38.9 15.5
      vertex -34.1238 1.87383 15.5
    endloop
  endfacet
  facet normal -0 0 1
    outer loop
      vertex 34.1238 -1.87383 15.5
      vertex 37.1 -38.9 15.5
      vertex 34.9 0 15.5
    endloop
  endfacet
  facet normal -0 0 1
    outer loop
      vertex 32.25 -2.65 15.5
      vertex 37.1 -38.9 15.5
      vertex 34.1238 -1.87383 15.5
    endloop
  endfacet
  facet normal 0 0 1
    outer loop
      vertex 30.3762 -1.87383 15.5
      vertex 37.1 -38.9 15.5
      vertex 32.25 -2.65 15.5
    endloop
  endfacet
  facet normal 0 0 1
    outer loop
      vertex -30.3762 -1.87383 15.5
      vertex 30.3762 -1.87383 15.5
      vertex 29.6 0 15.5
    endloop
  endfacet
  facet normal 0 0 1
    outer loop
      vertex -30.3762 -1.87383 15.5
      vertex 29.6 0 15.5
      vertex -29.6 0 15.5
    endloop
  endfacet
  facet normal 0 0 1
    outer loop
      vertex 30.3762 -1.87383 15.5
      vertex -30.3762 -1.87383 15.5
      vertex 37.1 -38.9 15.5
    endloop
  endfacet
  facet normal 0 0 1
    outer loop
      vertex -37.1 -38.9 15.5
      vertex -30.3762 -1.87383 15.5
      vertex -32.25 -2.65 15.5
    endloop
  endfacet
  facet normal 0 0 1
    outer loop
      vertex -37.1 -38.9 15.5
      vertex -32.25 -2.65 15.5
      vertex -34.1238 -1.87383 15.5
    endloop
  endfacet
  facet normal 0 0 1
    outer loop
      vertex -30.3762 -1.87383 15.5
      vertex -37.1 -38.9 15.5
      vertex 37.1 -38.9 15.5
    endloop
  endfacet
  facet normal 0 0 1
    outer loop
      vertex -34.9 0 15.5
      vertex -37.1 -38.9 15.5
      vertex -34.1238 -1.87383 15.5
    endloop
  endfacet
  facet normal 0 0 1
    outer loop
      vertex -37.1 -38.9 15.5
      vertex -34.9 0 15.5
      vertex -37.1 38.9 15.5
    endloop
  endfacet
  facet normal 1 -0 0
    outer loop
      vertex 37.1 -38.9 15.5
      vertex 37.1 38.9 -15.5
      vertex 37.1 38.9 15.5
    endloop
  endfacet
  facet normal 1 0 0
    outer loop
      vertex 37.1 38.9 -15.5
      vertex 37.1 -38.9 15.5
      vertex 37.1 -38.9 -15.5
    endloop
  endfacet
  facet normal 0 1 -0
    outer loop
      vertex 37.1 38.9 -15.5
      vertex -37.1 38.9 15.5
      vertex 37.1 38.9 15.5
    endloop
  endfacet
  facet normal 0 1 0
    outer loop
      vertex -37.1 38.9 15.5
      vertex 37.1 38.9 -15.5
      vertex -37.1 38.9 -15.5
    endloop
  endfacet
  facet normal 0 0 -1
    outer loop
      vertex 37.1 -38.9 -15.5
      vertex 34.9 0 -15.5
      vertex 37.1 38.9 -15.5
    endloop
  endfacet
  facet normal 0 0 -1
    outer loop
      vertex 37.1 -38.9 -15.5
      vertex 34.1238 -1.87383 -15.5
      vertex 34.9 0 -15.5
    endloop
  endfacet
  facet normal 0 0 -1
    outer loop
      vertex 37.1 -38.9 -15.5
      vertex 32.25 -2.65 -15.5
      vertex 34.1238 -1.87383 -15.5
    endloop
  endfacet
  facet normal 0 0 -1
    outer loop
      vertex 37.1 -38.9 -15.5
      vertex 30.3762 -1.87383 -15.5
      vertex 32.25 -2.65 -15.5
    endloop
  endfacet
  facet normal 0 0 -1
    outer loop
      vertex -30.3762 -1.87383 -15.5
      vertex 30.3762 -1.87383 -15.5
      vertex 37.1 -38.9 -15.5
    endloop
  endfacet
  facet normal 0 0 -1
    outer loop
      vertex 30.3762 -1.87383 -15.5
      vertex -30.3762 -1.87383 -15.5
      vertex 29.6 0 -15.5
    endloop
  endfacet
  facet normal -0 0 -1
    outer loop
      vertex 29.6 0 -15.5
      vertex -30.3762 -1.87383 -15.5
      vertex -29.6 0 -15.5
    endloop
  endfacet
  facet normal 0 0 -1
    outer loop
      vertex -37.1 -38.9 -15.5
      vertex -30.3762 -1.87383 -15.5
      vertex 37.1 -38.9 -15.5
    endloop
  endfacet
  facet normal 0 0 -1
    outer loop
      vertex -30.3762 -1.87383 -15.5
      vertex -37.1 -38.9 -15.5
      vertex -32.25 -2.65 -15.5
    endloop
  endfacet
  facet normal -0 0 -1
    outer loop
      vertex -34.1238 -1.87383 -15.5
      vertex -37.1 -38.9 -15.5
      vertex -34.9 0 -15.5
    endloop
  endfacet
  facet normal -0 0 -1
    outer loop
      vertex -32.25 -2.65 -15.5
      vertex -37.1 -38.9 -15.5
      vertex -34.1238 -1.87383 -15.5
    endloop
  endfacet
  facet normal 0 0 -1
    outer loop
      vertex 34.1238 1.87383 -15.5
      vertex 37.1 38.9 -15.5
      vertex 34.9 0 -15.5
    endloop
  endfacet
  facet normal 0 0 -1
    outer loop
      vertex 32.25 2.65 -15.5
      vertex 37.1 38.9 -15.5
      vertex 34.1238 1.87383 -15.5
    endloop
  endfacet
  facet normal 0 0 -1
    outer loop
      vertex 30.3762 1.87383 -15.5
      vertex 37.1 38.9 -15.5
      vertex 32.25 2.65 -15.5
    endloop
  endfacet
  facet normal 0 0 -1
    outer loop
      vertex -30.3762 1.87383 -15.5
      vertex 30.3762 1.87383 -15.5
      vertex 29.6 0 -15.5
    endloop
  endfacet
  facet normal 0 0 -1
    outer loop
      vertex -30.3762 1.87383 -15.5
      vertex 29.6 0 -15.5
      vertex -29.6 0 -15.5
    endloop
  endfacet
  facet normal 0 0 -1
    outer loop
      vertex 30.3762 1.87383 -15.5
      vertex -30.3762 1.87383 -15.5
      vertex 37.1 38.9 -15.5
    endloop
  endfacet
  facet normal 0 0 -1
    outer loop
      vertex -37.1 38.9 -15.5
      vertex -30.3762 1.87383 -15.5
      vertex -32.25 2.65 -15.5
    endloop
  endfacet
  facet normal 0 0 -1
    outer loop
      vertex -37.1 38.9 -15.5
      vertex -32.25 2.65 -15.5
      vertex -34.1238 1.87383 -15.5
    endloop
  endfacet
  facet normal 0 0 -1
    outer loop
      vertex -30.3762 1.87383 -15.5
      vertex -37.1 38.9 -15.5
      vertex 37.1 38.9 -15.5
    endloop
  endfacet
  facet normal 0 0 -1
    outer loop
      vertex -34.9 0 -15.5
      vertex -37.1 38.9 -15.5
      vertex -34.1238 1.87383 -15.5
    endloop
  endfacet
  facet normal 0 0 -1
    outer loop
      vertex -37.1 38.9 -15.5
      vertex -34.9 0 -15.5
      vertex -37.1 -38.9 -15.5
    endloop
  endfacet
  facet normal 0 -1 0
    outer loop
      vertex -37.1 -38.9 -15.5
      vertex 37.1 -38.9 15.5
      vertex -37.1 -38.9 15.5
    endloop
  endfacet
  facet normal 0 -1 -0
    outer loop
      vertex 37.1 -38.9 15.5
      vertex -37.1 -38.9 -15.5
      vertex 37.1 -38.9 -15.5
    endloop
  endfacet
  facet normal -0.923879 -0.382684 0
    outer loop
      vertex -29.6 0 -15.5
      vertex -30.3762 1.87383 15.5
      vertex -30.3762 1.87383 -15.5
    endloop
  endfacet
  facet normal -0.923879 -0.382684 0
    outer loop
      vertex -30.3762 1.87383 15.5
      vertex -29.6 0 -15.5
      vertex -29.6 0 15.5
    endloop
  endfacet
  facet normal 0.923879 -0.382684 0
    outer loop
      vertex -34.9 0 15.5
      vertex -34.1238 1.87383 -15.5
      vertex -34.1238 1.87383 15.5
    endloop
  endfacet
  facet normal 0.923879 -0.382684 0
    outer loop
      vertex -34.1238 1.87383 -15.5
      vertex -34.9 0 15.5
      vertex -34.9 0 -15.5
    endloop
  endfacet
  facet normal -0.382683 -0.92388 0
    outer loop
      vertex -32.25 2.65 -15.5
      vertex -30.3762 1.87383 15.5
      vertex -32.25 2.65 15.5
    endloop
  endfacet
  facet normal -0.382683 -0.92388 -0
    outer loop
      vertex -30.3762 1.87383 15.5
      vertex -32.25 2.65 -15.5
      vertex -30.3762 1.87383 -15.5
    endloop
  endfacet
  facet normal -0.382683 0.92388 0
    outer loop
      vertex -30.3762 -1.87383 -15.5
      vertex -32.25 -2.65 15.5
      vertex -30.3762 -1.87383 15.5
    endloop
  endfacet
  facet normal -0.382683 0.92388 0
    outer loop
      vertex -32.25 -2.65 15.5
      vertex -30.3762 -1.87383 -15.5
      vertex -32.25 -2.65 -15.5
    endloop
  endfacet
  facet normal 0.382683 -0.92388 0
    outer loop
      vertex -34.1238 1.87383 -15.5
      vertex -32.25 2.65 15.5
      vertex -34.1238 1.87383 15.5
    endloop
  endfacet
  facet normal 0.382683 -0.92388 0
    outer loop
      vertex -32.25 2.65 15.5
      vertex -34.1238 1.87383 -15.5
      vertex -32.25 2.65 -15.5
    endloop
  endfacet
  facet normal -0.923879 0.382684 0
    outer loop
      vertex -30.3762 -1.87383 -15.5
      vertex -29.6 0 15.5
      vertex -29.6 0 -15.5
    endloop
  endfacet
  facet normal -0.923879 0.382684 0
    outer loop
      vertex -29.6 0 15.5
      vertex -30.3762 -1.87383 -15.5
      vertex -30.3762 -1.87383 15.5
    endloop
  endfacet
  facet normal 0.382683 0.92388 -0
    outer loop
      vertex -32.25 -2.65 -15.5
      vertex -34.1238 -1.87383 15.5
      vertex -32.25 -2.65 15.5
    endloop
  endfacet
  facet normal 0.382683 0.92388 0
    outer loop
      vertex -34.1238 -1.87383 15.5
      vertex -32.25 -2.65 -15.5
      vertex -34.1238 -1.87383 -15.5
    endloop
  endfacet
  facet normal 0.923879 0.382684 0
    outer loop
      vertex -34.1238 -1.87383 15.5
      vertex -34.9 0 -15.5
      vertex -34.9 0 15.5
    endloop
  endfacet
  facet normal 0.923879 0.382684 0
    outer loop
      vertex -34.9 0 -15.5
      vertex -34.1238 -1.87383 15.5
      vertex -34.1238 -1.87383 -15.5
    endloop
  endfacet
  facet normal -0.923879 -0.382684 0
    outer loop
      vertex 34.9 0 -15.5
      vertex 34.1238 1.87383 15.5
      vertex 34.1238 1.87383 -15.5
    endloop
  endfacet
  facet normal -0.923879 -0.382684 0
    outer loop
      vertex 34.1238 1.87383 15.5
      vertex 34.9 0 -15.5
      vertex 34.9 0 15.5
    endloop
  endfacet
  facet normal 0.923879 -0.382684 0
    outer loop
      vertex 29.6 0 15.5
      vertex 30.3762 1.87383 -15.5
      vertex 30.3762 1.87383 15.5
    endloop
  endfacet
  facet normal 0.923879 -0.382684 0
    outer loop
      vertex 30.3762 1.87383 -15.5
      vertex 29.6 0 15.5
      vertex 29.6 0 -15.5
    endloop
  endfacet
  facet normal 0.382683 -0.92388 0
    outer loop
      vertex 30.3762 1.87383 -15.5
      vertex 32.25 2.65 15.5
      vertex 30.3762 1.87383 15.5
    endloop
  endfacet
  facet normal 0.382683 -0.92388 0
    outer loop
      vertex 32.25 2.65 15.5
      vertex 30.3762 1.87383 -15.5
      vertex 32.25 2.65 -15.5
    endloop
  endfacet
  facet normal -0.382683 -0.92388 0
    outer loop
      vertex 32.25 2.65 -15.5
      vertex 34.1238 1.87383 15.5
      vertex 32.25 2.65 15.5
    endloop
  endfacet
  facet normal -0.382683 -0.92388 -0
    outer loop
      vertex 34.1238 1.87383 15.5
      vertex 32.25 2.65 -15.5
      vertex 34.1238 1.87383 -15.5
    endloop
  endfacet
  facet normal -0.382683 0.92388 0
    outer loop
      vertex 34.1238 -1.87383 -15.5
      vertex 32.25 -2.65 15.5
      vertex 34.1238 -1.87383 15.5
    endloop
  endfacet
  facet normal -0.382683 0.92388 0
    outer loop
      vertex 32.25 -2.65 15.5
      vertex 34.1238 -1.87383 -15.5
      vertex 32.25 -2.65 -15.5
    endloop
  endfacet
  facet normal 0.923879 0.382684 0
    outer loop
      vertex 30.3762 -1.87383 15.5
      vertex 29.6 0 -15.5
      vertex 29.6 0 15.5
    endloop
  endfacet
  facet normal 0.923879 0.382684 0
    outer loop
      vertex 29.6 0 -15.5
      vertex 30.3762 -1.87383 15.5
      vertex 30.3762 -1.87383 -15.5
    endloop
  endfacet
  facet normal -0.923879 0.382684 0
    outer loop
      vertex 34.1238 -1.87383 -15.5
      vertex 34.9 0 15.5
      vertex 34.9 0 -15.5
    endloop
  endfacet
  facet normal -0.923879 0.382684 0
    outer loop
      vertex 34.9 0 15.5
      vertex 34.1238 -1.87383 -15.5
      vertex 34.1238 -1.87383 15.5
    endloop
  endfacet
  facet normal 0.382683 0.92388 -0
    outer loop
      vertex 32.25 -2.65 -15.5
      vertex 30.3762 -1.87383 15.5
      vertex 32.25 -2.65 15.5
    endloop
  endfacet
  facet normal 0.382683 0.92388 0
    outer loop
      vertex 30.3762 -1.87383 15.5
      vertex 32.25 -2.65 -15.5
      vertex 30.3762 -1.87383 -15.5
    endloop
  endfacet
endsolid OpenSCAD_Model
