solid OpenSCAD_Model
  facet normal -1 0 0
    outer loop
      vertex -31.15 -12.7 -7.3
      vertex -31.15 12.7 7.3
      vertex -31.15 12.7 -7.3
    endloop
  endfacet
  facet normal -1 -0 0
    outer loop
      vertex -31.15 12.7 7.3
      vertex -31.15 -12.7 -7.3
      vertex -31.15 -12.7 7.3
    endloop
  endfacet
  facet normal -0 0 1
    outer loop
      vertex -26.7247 8.47469 7.3
      vertex -26.3 -9.5 7.3
      vertex -26.3 9.5 7.3
    endloop
  endfacet
  facet normal 0 0 1
    outer loop
      vertex -26.7247 8.47469 7.3
      vertex -26.7247 -8.47469 7.3
      vertex -26.3 -9.5 7.3
    endloop
  endfacet
  facet normal -0 0 1
    outer loop
      vertex -27.75 8.05 7.3
      vertex -26.7247 -8.47469 7.3
      vertex -26.7247 8.47469 7.3
    endloop
  endfacet
  facet normal 0 0 1
    outer loop
      vertex -27.75 8.05 7.3
      vertex -27.75 -8.05 7.3
      vertex -26.7247 -8.47469 7.3
    endloop
  endfacet
  facet normal 0 0 1
    outer loop
      vertex -28.7753 8.47469 7.3
      vertex -27.75 -8.05 7.3
      vertex -27.75 8.05 7.3
    endloop
  endfacet
  facet normal 0 0 1
    outer loop
      vertex -28.7753 8.47469 7.3
      vertex -28.7753 -8.47469 7.3
      vertex -27.75 -8.05 7.3
    endloop
  endfacet
  facet normal 0 0 1
    outer loop
      vertex -31.15 12.7 7.3
      vertex -28.7753 8.47469 7.3
      vertex -29.2 9.5 7.3
    endloop
  endfacet
  facet normal 0 0 1
    outer loop
      vertex -28.7753 8.47469 7.3
      vertex -31.15 12.7 7.3
      vertex -28.7753 -8.47469 7.3
    endloop
  endfacet
  facet normal -0 0 1
    outer loop
      vertex 28.7753 -8.47469 7.3
      vertex 31.15 -12.7 7.3
      vertex 28.7753 8.47469 7.3
    endloop
  endfacet
  facet normal 0 0 1
    outer loop
      vertex 31.15 -12.7 7.3
      vertex 28.7753 -8.47469 7.3
      vertex 29.2 -9.5 7.3
    endloop
  endfacet
  facet normal -0 0 1
    outer loop
      vertex 27.75 8.05 7.3
      vertex 28.7753 -8.47469 7.3
      vertex 28.7753 8.47469 7.3
    endloop
  endfacet
  facet normal 0 0 1
    outer loop
      vertex 27.75 8.05 7.3
      vertex 27.75 -8.05 7.3
      vertex 28.7753 -8.47469 7.3
    endloop
  endfacet
  facet normal 0 0 1
    outer loop
      vertex 26.7247 8.47469 7.3
      vertex 27.75 -8.05 7.3
      vertex 27.75 8.05 7.3
    endloop
  endfacet
  facet normal 0 0 1
    outer loop
      vertex 26.7247 8.47469 7.3
      vertex 26.7247 -8.47469 7.3
      vertex 27.75 -8.05 7.3
    endloop
  endfacet
  facet normal 0 0 1
    outer loop
      vertex 26.3 9.5 7.3
      vertex 26.7247 -8.47469 7.3
      vertex 26.7247 8.47469 7.3
    endloop
  endfacet
  facet normal 0 0 1
    outer loop
      vertex 26.7247 -8.47469 7.3
      vertex 26.3 9.5 7.3
      vertex 26.3 -9.5 7.3
    endloop
  endfacet
  facet normal 0 0 1
    outer loop
      vertex 28.7753 8.47469 7.3
      vertex 31.15 12.7 7.3
      vertex 29.2 9.5 7.3
    endloop
  endfacet
  facet normal 0 0 1
    outer loop
      vertex 31.15 12.7 7.3
      vertex 28.7753 10.5253 7.3
      vertex 29.2 9.5 7.3
    endloop
  endfacet
  facet normal 0 0 1
    outer loop
      vertex 31.15 12.7 7.3
      vertex 27.75 10.95 7.3
      vertex 28.7753 10.5253 7.3
    endloop
  endfacet
  facet normal 0 0 1
    outer loop
      vertex 31.15 12.7 7.3
      vertex 26.7247 10.5253 7.3
      vertex 27.75 10.95 7.3
    endloop
  endfacet
  facet normal 0 0 1
    outer loop
      vertex 26.3 9.5 7.3
      vertex -26.3 9.5 7.3
      vertex 26.3 -9.5 7.3
    endloop
  endfacet
  facet normal 0 0 1
    outer loop
      vertex 26.7247 10.5253 7.3
      vertex -26.3 9.5 7.3
      vertex 26.3 9.5 7.3
    endloop
  endfacet
  facet normal 0 0 1
    outer loop
      vertex -26.7247 10.5253 7.3
      vertex 26.7247 10.5253 7.3
      vertex 31.15 12.7 7.3
    endloop
  endfacet
  facet normal 0 0 1
    outer loop
      vertex 26.7247 10.5253 7.3
      vertex -26.7247 10.5253 7.3
      vertex -26.3 9.5 7.3
    endloop
  endfacet
  facet normal -0 0 1
    outer loop
      vertex -31.15 12.7 7.3
      vertex -26.7247 10.5253 7.3
      vertex 31.15 12.7 7.3
    endloop
  endfacet
  facet normal 0 0 1
    outer loop
      vertex -31.15 -12.7 7.3
      vertex -28.7753 -8.47469 7.3
      vertex -31.15 12.7 7.3
    endloop
  endfacet
  facet normal 0 0 1
    outer loop
      vertex -28.7753 10.5253 7.3
      vertex -31.15 12.7 7.3
      vertex -29.2 9.5 7.3
    endloop
  endfacet
  facet normal 0 0 1
    outer loop
      vertex -27.75 10.95 7.3
      vertex -31.15 12.7 7.3
      vertex -28.7753 10.5253 7.3
    endloop
  endfacet
  facet normal 0 0 1
    outer loop
      vertex -26.7247 10.5253 7.3
      vertex -31.15 12.7 7.3
      vertex -27.75 10.95 7.3
    endloop
  endfacet
  facet normal 0 0 1
    outer loop
      vertex 31.15 12.7 7.3
      vertex 28.7753 8.47469 7.3
      vertex 31.15 -12.7 7.3
    endloop
  endfacet
  facet normal -0 0 1
    outer loop
      vertex 28.7753 -10.5253 7.3
      vertex 31.15 -12.7 7.3
      vertex 29.2 -9.5 7.3
    endloop
  endfacet
  facet normal -0 0 1
    outer loop
      vertex 27.75 -10.95 7.3
      vertex 31.15 -12.7 7.3
      vertex 28.7753 -10.5253 7.3
    endloop
  endfacet
  facet normal 0 0 1
    outer loop
      vertex 26.7247 -10.5253 7.3
      vertex 31.15 -12.7 7.3
      vertex 27.75 -10.95 7.3
    endloop
  endfacet
  facet normal 0 0 1
    outer loop
      vertex -26.3 -9.5 7.3
      vertex 26.3 -9.5 7.3
      vertex -26.3 9.5 7.3
    endloop
  endfacet
  facet normal 0 0 1
    outer loop
      vertex 26.3 -9.5 7.3
      vertex -26.3 -9.5 7.3
      vertex 26.7247 -10.5253 7.3
    endloop
  endfacet
  facet normal 0 0 1
    outer loop
      vertex -26.7247 -10.5253 7.3
      vertex 26.7247 -10.5253 7.3
      vertex -26.3 -9.5 7.3
    endloop
  endfacet
  facet normal 0 0 1
    outer loop
      vertex 26.7247 -10.5253 7.3
      vertex -26.7247 -10.5253 7.3
      vertex 31.15 -12.7 7.3
    endloop
  endfacet
  facet normal 0 0 1
    outer loop
      vertex -31.15 -12.7 7.3
      vertex -26.7247 -10.5253 7.3
      vertex -27.75 -10.95 7.3
    endloop
  endfacet
  facet normal 0 0 1
    outer loop
      vertex -26.7247 -10.5253 7.3
      vertex -31.15 -12.7 7.3
      vertex 31.15 -12.7 7.3
    endloop
  endfacet
  facet normal 0 0 1
    outer loop
      vertex -28.7753 -10.5253 7.3
      vertex -31.15 -12.7 7.3
      vertex -27.75 -10.95 7.3
    endloop
  endfacet
  facet normal 0 0 1
    outer loop
      vertex -29.2 -9.5 7.3
      vertex -31.15 -12.7 7.3
      vertex -28.7753 -10.5253 7.3
    endloop
  endfacet
  facet normal 0 0 1
    outer loop
      vertex -28.7753 -8.47469 7.3
      vertex -31.15 -12.7 7.3
      vertex -29.2 -9.5 7.3
    endloop
  endfacet
  facet normal 1 -0 0
    outer loop
      vertex 31.15 -12.7 7.3
      vertex 31.15 12.7 -7.3
      vertex 31.15 12.7 7.3
    endloop
  endfacet
  facet normal 1 0 0
    outer loop
      vertex 31.15 12.7 -7.3
      vertex 31.15 -12.7 7.3
      vertex 31.15 -12.7 -7.3
    endloop
  endfacet
  facet normal 0 1 -0
    outer loop
      vertex 31.15 12.7 -7.3
      vertex -31.15 12.7 7.3
      vertex 31.15 12.7 7.3
    endloop
  endfacet
  facet normal 0 1 0
    outer loop
      vertex -31.15 12.7 7.3
      vertex 31.15 12.7 -7.3
      vertex -31.15 12.7 -7.3
    endloop
  endfacet
  facet normal 0 0 -1
    outer loop
      vertex -26.7247 -8.47469 -7.3
      vertex -26.3 9.5 -7.3
      vertex -26.3 -9.5 -7.3
    endloop
  endfacet
  facet normal 0 0 -1
    outer loop
      vertex -26.7247 -8.47469 -7.3
      vertex -26.7247 8.47469 -7.3
      vertex -26.3 9.5 -7.3
    endloop
  endfacet
  facet normal 0 0 -1
    outer loop
      vertex -27.75 -8.05 -7.3
      vertex -26.7247 8.47469 -7.3
      vertex -26.7247 -8.47469 -7.3
    endloop
  endfacet
  facet normal 0 0 -1
    outer loop
      vertex -27.75 -8.05 -7.3
      vertex -27.75 8.05 -7.3
      vertex -26.7247 8.47469 -7.3
    endloop
  endfacet
  facet normal 0 0 -1
    outer loop
      vertex -28.7753 -8.47469 -7.3
      vertex -27.75 8.05 -7.3
      vertex -27.75 -8.05 -7.3
    endloop
  endfacet
  facet normal 0 0 -1
    outer loop
      vertex -28.7753 -8.47469 -7.3
      vertex -28.7753 8.47469 -7.3
      vertex -27.75 8.05 -7.3
    endloop
  endfacet
  facet normal 0 0 -1
    outer loop
      vertex -31.15 -12.7 -7.3
      vertex -28.7753 -8.47469 -7.3
      vertex -29.2 -9.5 -7.3
    endloop
  endfacet
  facet normal -0 0 -1
    outer loop
      vertex -28.7753 -8.47469 -7.3
      vertex -31.15 -12.7 -7.3
      vertex -28.7753 8.47469 -7.3
    endloop
  endfacet
  facet normal 0 0 -1
    outer loop
      vertex 28.7753 8.47469 -7.3
      vertex 31.15 12.7 -7.3
      vertex 28.7753 -8.47469 -7.3
    endloop
  endfacet
  facet normal 0 0 -1
    outer loop
      vertex 31.15 12.7 -7.3
      vertex 28.7753 8.47469 -7.3
      vertex 29.2 9.5 -7.3
    endloop
  endfacet
  facet normal 0 0 -1
    outer loop
      vertex 27.75 -8.05 -7.3
      vertex 28.7753 8.47469 -7.3
      vertex 28.7753 -8.47469 -7.3
    endloop
  endfacet
  facet normal 0 0 -1
    outer loop
      vertex 27.75 -8.05 -7.3
      vertex 27.75 8.05 -7.3
      vertex 28.7753 8.47469 -7.3
    endloop
  endfacet
  facet normal 0 0 -1
    outer loop
      vertex 26.7247 -8.47469 -7.3
      vertex 27.75 8.05 -7.3
      vertex 27.75 -8.05 -7.3
    endloop
  endfacet
  facet normal 0 0 -1
    outer loop
      vertex 26.7247 -8.47469 -7.3
      vertex 26.7247 8.47469 -7.3
      vertex 27.75 8.05 -7.3
    endloop
  endfacet
  facet normal 0 0 -1
    outer loop
      vertex 26.3 -9.5 -7.3
      vertex 26.7247 8.47469 -7.3
      vertex 26.7247 -8.47469 -7.3
    endloop
  endfacet
  facet normal -0 0 -1
    outer loop
      vertex 26.7247 8.47469 -7.3
      vertex 26.3 -9.5 -7.3
      vertex 26.3 9.5 -7.3
    endloop
  endfacet
  facet normal 0 0 -1
    outer loop
      vertex 28.7753 -8.47469 -7.3
      vertex 31.15 -12.7 -7.3
      vertex 29.2 -9.5 -7.3
    endloop
  endfacet
  facet normal 0 0 -1
    outer loop
      vertex 31.15 -12.7 -7.3
      vertex 28.7753 -10.5253 -7.3
      vertex 29.2 -9.5 -7.3
    endloop
  endfacet
  facet normal 0 0 -1
    outer loop
      vertex 31.15 -12.7 -7.3
      vertex 27.75 -10.95 -7.3
      vertex 28.7753 -10.5253 -7.3
    endloop
  endfacet
  facet normal 0 0 -1
    outer loop
      vertex 31.15 -12.7 -7.3
      vertex 26.7247 -10.5253 -7.3
      vertex 27.75 -10.95 -7.3
    endloop
  endfacet
  facet normal 0 0 -1
    outer loop
      vertex 26.3 -9.5 -7.3
      vertex -26.3 -9.5 -7.3
      vertex 26.3 9.5 -7.3
    endloop
  endfacet
  facet normal 0 0 -1
    outer loop
      vertex 26.7247 -10.5253 -7.3
      vertex -26.3 -9.5 -7.3
      vertex 26.3 -9.5 -7.3
    endloop
  endfacet
  facet normal 0 0 -1
    outer loop
      vertex -26.7247 -10.5253 -7.3
      vertex 26.7247 -10.5253 -7.3
      vertex 31.15 -12.7 -7.3
    endloop
  endfacet
  facet normal 0 0 -1
    outer loop
      vertex 26.7247 -10.5253 -7.3
      vertex -26.7247 -10.5253 -7.3
      vertex -26.3 -9.5 -7.3
    endloop
  endfacet
  facet normal 0 0 -1
    outer loop
      vertex -31.15 -12.7 -7.3
      vertex -26.7247 -10.5253 -7.3
      vertex 31.15 -12.7 -7.3
    endloop
  endfacet
  facet normal 0 0 -1
    outer loop
      vertex -31.15 12.7 -7.3
      vertex -28.7753 8.47469 -7.3
      vertex -31.15 -12.7 -7.3
    endloop
  endfacet
  facet normal -0 0 -1
    outer loop
      vertex -28.7753 -10.5253 -7.3
      vertex -31.15 -12.7 -7.3
      vertex -29.2 -9.5 -7.3
    endloop
  endfacet
  facet normal -0 0 -1
    outer loop
      vertex -27.75 -10.95 -7.3
      vertex -31.15 -12.7 -7.3
      vertex -28.7753 -10.5253 -7.3
    endloop
  endfacet
  facet normal 0 0 -1
    outer loop
      vertex -26.7247 -10.5253 -7.3
      vertex -31.15 -12.7 -7.3
      vertex -27.75 -10.95 -7.3
    endloop
  endfacet
  facet normal 0 0 -1
    outer loop
      vertex 31.15 -12.7 -7.3
      vertex 28.7753 -8.47469 -7.3
      vertex 31.15 12.7 -7.3
    endloop
  endfacet
  facet normal 0 0 -1
    outer loop
      vertex 28.7753 10.5253 -7.3
      vertex 31.15 12.7 -7.3
      vertex 29.2 9.5 -7.3
    endloop
  endfacet
  facet normal 0 0 -1
    outer loop
      vertex 27.75 10.95 -7.3
      vertex 31.15 12.7 -7.3
      vertex 28.7753 10.5253 -7.3
    endloop
  endfacet
  facet normal 0 0 -1
    outer loop
      vertex 26.7247 10.5253 -7.3
      vertex 31.15 12.7 -7.3
      vertex 27.75 10.95 -7.3
    endloop
  endfacet
  facet normal 0 0 -1
    outer loop
      vertex -26.3 9.5 -7.3
      vertex 26.3 9.5 -7.3
      vertex -26.3 -9.5 -7.3
    endloop
  endfacet
  facet normal 0 0 -1
    outer loop
      vertex 26.3 9.5 -7.3
      vertex -26.3 9.5 -7.3
      vertex 26.7247 10.5253 -7.3
    endloop
  endfacet
  facet normal 0 0 -1
    outer loop
      vertex -26.7247 10.5253 -7.3
      vertex 26.7247 10.5253 -7.3
      vertex -26.3 9.5 -7.3
    endloop
  endfacet
  facet normal 0 0 -1
    outer loop
      vertex 26.7247 10.5253 -7.3
      vertex -26.7247 10.5253 -7.3
      vertex 31.15 12.7 -7.3
    endloop
  endfacet
  facet normal 0 0 -1
    outer loop
      vertex -31.15 12.7 -7.3
      vertex -26.7247 10.5253 -7.3
      vertex -27.75 10.95 -7.3
    endloop
  endfacet
  facet normal 0 0 -1
    outer loop
      vertex -26.7247 10.5253 -7.3
      vertex -31.15 12.7 -7.3
      vertex 31.15 12.7 -7.3
    endloop
  endfacet
  facet normal 0 0 -1
    outer loop
      vertex -28.7753 10.5253 -7.3
      vertex -31.15 12.7 -7.3
      vertex -27.75 10.95 -7.3
    endloop
  endfacet
  facet normal 0 0 -1
    outer loop
      vertex -29.2 9.5 -7.3
      vertex -31.15 12.7 -7.3
      vertex -28.7753 10.5253 -7.3
    endloop
  endfacet
  facet normal 0 0 -1
    outer loop
      vertex -28.7753 8.47469 -7.3
      vertex -31.15 12.7 -7.3
      vertex -29.2 9.5 -7.3
    endloop
  endfacet
  facet normal 0 -1 0
    outer loop
      vertex -31.15 -12.7 -7.3
      vertex 31.15 -12.7 7.3
      vertex -31.15 -12.7 7.3
    endloop
  endfacet
  facet normal 0 -1 -0
    outer loop
      vertex 31.15 -12.7 7.3
      vertex -31.15 -12.7 -7.3
      vertex 31.15 -12.7 -7.3
    endloop
  endfacet
  facet normal -0.92388 -0.382683 0
    outer loop
      vertex -26.3 9.5 -7.3
      vertex -26.7247 10.5253 7.3
      vertex -26.7247 10.5253 -7.3
    endloop
  endfacet
  facet normal -0.92388 -0.382683 0
    outer loop
      vertex -26.7247 10.5253 7.3
      vertex -26.3 9.5 -7.3
      vertex -26.3 9.5 7.3
    endloop
  endfacet
  facet normal 0.382683 -0.92388 0
    outer loop
      vertex -28.7753 10.5253 -7.3
      vertex -27.75 10.95 7.3
      vertex -28.7753 10.5253 7.3
    endloop
  endfacet
  facet normal 0.382683 -0.92388 0
    outer loop
      vertex -27.75 10.95 7.3
      vertex -28.7753 10.5253 -7.3
      vertex -27.75 10.95 -7.3
    endloop
  endfacet
  facet normal -0.382683 -0.92388 0
    outer loop
      vertex -27.75 10.95 -7.3
      vertex -26.7247 10.5253 7.3
      vertex -27.75 10.95 7.3
    endloop
  endfacet
  facet normal -0.382683 -0.92388 -0
    outer loop
      vertex -26.7247 10.5253 7.3
      vertex -27.75 10.95 -7.3
      vertex -26.7247 10.5253 -7.3
    endloop
  endfacet
  facet normal 0.923879 -0.382684 0
    outer loop
      vertex -29.2 9.5 7.3
      vertex -28.7753 10.5253 -7.3
      vertex -28.7753 10.5253 7.3
    endloop
  endfacet
  facet normal 0.923879 -0.382684 0
    outer loop
      vertex -28.7753 10.5253 -7.3
      vertex -29.2 9.5 7.3
      vertex -29.2 9.5 -7.3
    endloop
  endfacet
  facet normal -0.92388 0.382682 0
    outer loop
      vertex -26.7247 8.47469 -7.3
      vertex -26.3 9.5 7.3
      vertex -26.3 9.5 -7.3
    endloop
  endfacet
  facet normal -0.92388 0.382682 0
    outer loop
      vertex -26.3 9.5 7.3
      vertex -26.7247 8.47469 -7.3
      vertex -26.7247 8.47469 7.3
    endloop
  endfacet
  facet normal 0.382683 0.92388 -0
    outer loop
      vertex -27.75 8.05 -7.3
      vertex -28.7753 8.47469 7.3
      vertex -27.75 8.05 7.3
    endloop
  endfacet
  facet normal 0.382683 0.92388 0
    outer loop
      vertex -28.7753 8.47469 7.3
      vertex -27.75 8.05 -7.3
      vertex -28.7753 8.47469 -7.3
    endloop
  endfacet
  facet normal 0.923879 0.382684 0
    outer loop
      vertex -28.7753 8.47469 7.3
      vertex -29.2 9.5 -7.3
      vertex -29.2 9.5 7.3
    endloop
  endfacet
  facet normal 0.923879 0.382684 0
    outer loop
      vertex -29.2 9.5 -7.3
      vertex -28.7753 8.47469 7.3
      vertex -28.7753 8.47469 -7.3
    endloop
  endfacet
  facet normal -0.382683 0.92388 0
    outer loop
      vertex -26.7247 8.47469 -7.3
      vertex -27.75 8.05 7.3
      vertex -26.7247 8.47469 7.3
    endloop
  endfacet
  facet normal -0.382683 0.92388 0
    outer loop
      vertex -27.75 8.05 7.3
      vertex -26.7247 8.47469 -7.3
      vertex -27.75 8.05 -7.3
    endloop
  endfacet
  facet normal -0.923879 -0.382684 0
    outer loop
      vertex 29.2 9.5 -7.3
      vertex 28.7753 10.5253 7.3
      vertex 28.7753 10.5253 -7.3
    endloop
  endfacet
  facet normal -0.923879 -0.382684 0
    outer loop
      vertex 28.7753 10.5253 7.3
      vertex 29.2 9.5 -7.3
      vertex 29.2 9.5 7.3
    endloop
  endfacet
  facet normal 0.382683 -0.92388 0
    outer loop
      vertex 26.7247 10.5253 -7.3
      vertex 27.75 10.95 7.3
      vertex 26.7247 10.5253 7.3
    endloop
  endfacet
  facet normal 0.382683 -0.92388 0
    outer loop
      vertex 27.75 10.95 7.3
      vertex 26.7247 10.5253 -7.3
      vertex 27.75 10.95 -7.3
    endloop
  endfacet
  facet normal -0.382683 -0.92388 0
    outer loop
      vertex 27.75 10.95 -7.3
      vertex 28.7753 10.5253 7.3
      vertex 27.75 10.95 7.3
    endloop
  endfacet
  facet normal -0.382683 -0.92388 -0
    outer loop
      vertex 28.7753 10.5253 7.3
      vertex 27.75 10.95 -7.3
      vertex 28.7753 10.5253 -7.3
    endloop
  endfacet
  facet normal 0.92388 -0.382683 0
    outer loop
      vertex 26.3 9.5 7.3
      vertex 26.7247 10.5253 -7.3
      vertex 26.7247 10.5253 7.3
    endloop
  endfacet
  facet normal 0.92388 -0.382683 0
    outer loop
      vertex 26.7247 10.5253 -7.3
      vertex 26.3 9.5 7.3
      vertex 26.3 9.5 -7.3
    endloop
  endfacet
  facet normal -0.923879 0.382684 0
    outer loop
      vertex 28.7753 8.47469 -7.3
      vertex 29.2 9.5 7.3
      vertex 29.2 9.5 -7.3
    endloop
  endfacet
  facet normal -0.923879 0.382684 0
    outer loop
      vertex 29.2 9.5 7.3
      vertex 28.7753 8.47469 -7.3
      vertex 28.7753 8.47469 7.3
    endloop
  endfacet
  facet normal 0.382683 0.92388 -0
    outer loop
      vertex 27.75 8.05 -7.3
      vertex 26.7247 8.47469 7.3
      vertex 27.75 8.05 7.3
    endloop
  endfacet
  facet normal 0.382683 0.92388 0
    outer loop
      vertex 26.7247 8.47469 7.3
      vertex 27.75 8.05 -7.3
      vertex 26.7247 8.47469 -7.3
    endloop
  endfacet
  facet normal 0.92388 0.382682 0
    outer loop
      vertex 26.7247 8.47469 7.3
      vertex 26.3 9.5 -7.3
      vertex 26.3 9.5 7.3
    endloop
  endfacet
  facet normal 0.92388 0.382682 0
    outer loop
      vertex 26.3 9.5 -7.3
      vertex 26.7247 8.47469 7.3
      vertex 26.7247 8.47469 -7.3
    endloop
  endfacet
  facet normal -0.382683 0.92388 0
    outer loop
      vertex 28.7753 8.47469 -7.3
      vertex 27.75 8.05 7.3
      vertex 28.7753 8.47469 7.3
    endloop
  endfacet
  facet normal -0.382683 0.92388 0
    outer loop
      vertex 27.75 8.05 7.3
      vertex 28.7753 8.47469 -7.3
      vertex 27.75 8.05 -7.3
    endloop
  endfacet
  facet normal -0.92388 -0.382682 0
    outer loop
      vertex -26.3 -9.5 -7.3
      vertex -26.7247 -8.47469 7.3
      vertex -26.7247 -8.47469 -7.3
    endloop
  endfacet
  facet normal -0.92388 -0.382682 0
    outer loop
      vertex -26.7247 -8.47469 7.3
      vertex -26.3 -9.5 -7.3
      vertex -26.3 -9.5 7.3
    endloop
  endfacet
  facet normal 0.923879 -0.382684 0
    outer loop
      vertex -29.2 -9.5 7.3
      vertex -28.7753 -8.47469 -7.3
      vertex -28.7753 -8.47469 7.3
    endloop
  endfacet
  facet normal 0.923879 -0.382684 0
    outer loop
      vertex -28.7753 -8.47469 -7.3
      vertex -29.2 -9.5 7.3
      vertex -29.2 -9.5 -7.3
    endloop
  endfacet
  facet normal -0.382683 0.92388 0
    outer loop
      vertex -26.7247 -10.5253 -7.3
      vertex -27.75 -10.95 7.3
      vertex -26.7247 -10.5253 7.3
    endloop
  endfacet
  facet normal -0.382683 0.92388 0
    outer loop
      vertex -27.75 -10.95 7.3
      vertex -26.7247 -10.5253 -7.3
      vertex -27.75 -10.95 -7.3
    endloop
  endfacet
  facet normal 0.382683 -0.92388 0
    outer loop
      vertex -28.7753 -8.47469 -7.3
      vertex -27.75 -8.05 7.3
      vertex -28.7753 -8.47469 7.3
    endloop
  endfacet
  facet normal 0.382683 -0.92388 0
    outer loop
      vertex -27.75 -8.05 7.3
      vertex -28.7753 -8.47469 -7.3
      vertex -27.75 -8.05 -7.3
    endloop
  endfacet
  facet normal -0.382683 -0.92388 0
    outer loop
      vertex -27.75 -8.05 -7.3
      vertex -26.7247 -8.47469 7.3
      vertex -27.75 -8.05 7.3
    endloop
  endfacet
  facet normal -0.382683 -0.92388 -0
    outer loop
      vertex -26.7247 -8.47469 7.3
      vertex -27.75 -8.05 -7.3
      vertex -26.7247 -8.47469 -7.3
    endloop
  endfacet
  facet normal -0.92388 0.382683 0
    outer loop
      vertex -26.7247 -10.5253 -7.3
      vertex -26.3 -9.5 7.3
      vertex -26.3 -9.5 -7.3
    endloop
  endfacet
  facet normal -0.92388 0.382683 0
    outer loop
      vertex -26.3 -9.5 7.3
      vertex -26.7247 -10.5253 -7.3
      vertex -26.7247 -10.5253 7.3
    endloop
  endfacet
  facet normal 0.382683 0.92388 -0
    outer loop
      vertex -27.75 -10.95 -7.3
      vertex -28.7753 -10.5253 7.3
      vertex -27.75 -10.95 7.3
    endloop
  endfacet
  facet normal 0.382683 0.92388 0
    outer loop
      vertex -28.7753 -10.5253 7.3
      vertex -27.75 -10.95 -7.3
      vertex -28.7753 -10.5253 -7.3
    endloop
  endfacet
  facet normal 0.923879 0.382684 0
    outer loop
      vertex -28.7753 -10.5253 7.3
      vertex -29.2 -9.5 -7.3
      vertex -29.2 -9.5 7.3
    endloop
  endfacet
  facet normal 0.923879 0.382684 0
    outer loop
      vertex -29.2 -9.5 -7.3
      vertex -28.7753 -10.5253 7.3
      vertex -28.7753 -10.5253 -7.3
    endloop
  endfacet
  facet normal -0.923879 -0.382684 0
    outer loop
      vertex 29.2 -9.5 -7.3
      vertex 28.7753 -8.47469 7.3
      vertex 28.7753 -8.47469 -7.3
    endloop
  endfacet
  facet normal -0.923879 -0.382684 0
    outer loop
      vertex 28.7753 -8.47469 7.3
      vertex 29.2 -9.5 -7.3
      vertex 29.2 -9.5 7.3
    endloop
  endfacet
  facet normal 0.92388 -0.382682 0
    outer loop
      vertex 26.3 -9.5 7.3
      vertex 26.7247 -8.47469 -7.3
      vertex 26.7247 -8.47469 7.3
    endloop
  endfacet
  facet normal 0.92388 -0.382682 0
    outer loop
      vertex 26.7247 -8.47469 -7.3
      vertex 26.3 -9.5 7.3
      vertex 26.3 -9.5 -7.3
    endloop
  endfacet
  facet normal 0.382683 -0.92388 0
    outer loop
      vertex 26.7247 -8.47469 -7.3
      vertex 27.75 -8.05 7.3
      vertex 26.7247 -8.47469 7.3
    endloop
  endfacet
  facet normal 0.382683 -0.92388 0
    outer loop
      vertex 27.75 -8.05 7.3
      vertex 26.7247 -8.47469 -7.3
      vertex 27.75 -8.05 -7.3
    endloop
  endfacet
  facet normal -0.382683 -0.92388 0
    outer loop
      vertex 27.75 -8.05 -7.3
      vertex 28.7753 -8.47469 7.3
      vertex 27.75 -8.05 7.3
    endloop
  endfacet
  facet normal -0.382683 -0.92388 -0
    outer loop
      vertex 28.7753 -8.47469 7.3
      vertex 27.75 -8.05 -7.3
      vertex 28.7753 -8.47469 -7.3
    endloop
  endfacet
  facet normal -0.923879 0.382684 0
    outer loop
      vertex 28.7753 -10.5253 -7.3
      vertex 29.2 -9.5 7.3
      vertex 29.2 -9.5 -7.3
    endloop
  endfacet
  facet normal -0.923879 0.382684 0
    outer loop
      vertex 29.2 -9.5 7.3
      vertex 28.7753 -10.5253 -7.3
      vertex 28.7753 -10.5253 7.3
    endloop
  endfacet
  facet normal -0.382683 0.92388 0
    outer loop
      vertex 28.7753 -10.5253 -7.3
      vertex 27.75 -10.95 7.3
      vertex 28.7753 -10.5253 7.3
    endloop
  endfacet
  facet normal -0.382683 0.92388 0
    outer loop
      vertex 27.75 -10.95 7.3
      vertex 28.7753 -10.5253 -7.3
      vertex 27.75 -10.95 -7.3
    endloop
  endfacet
  facet normal 0.382683 0.92388 -0
    outer loop
      vertex 27.75 -10.95 -7.3
      vertex 26.7247 -10.5253 7.3
      vertex 27.75 -10.95 7.3
    endloop
  endfacet
  facet normal 0.382683 0.92388 0
    outer loop
      vertex 26.7247 -10.5253 7.3
      vertex 27.75 -10.95 -7.3
      vertex 26.7247 -10.5253 -7.3
    endloop
  endfacet
  facet normal 0.92388 0.382683 0
    outer loop
      vertex 26.7247 -10.5253 7.3
      vertex 26.3 -9.5 -7.3
      vertex 26.3 -9.5 7.3
    endloop
  endfacet
  facet normal 0.92388 0.382683 0
    outer loop
      vertex 26.3 -9.5 -7.3
      vertex 26.7247 -10.5253 7.3
      vertex 26.7247 -10.5253 -7.3
    endloop
  endfacet
endsolid OpenSCAD_Model
